<?xml version="1.0" standalone="no"?>
<!DOCTYPE svg PUBLIC "-//W3C//DTD SVG 1.1//EN" "http://www.w3.org/Graphics/SVG/1.1/DTD/svg11.dtd" >
<svg xmlns="http://www.w3.org/2000/svg" xmlns:xlink="http://www.w3.org/1999/xlink" version="1.1">
<metadata>
Created by FontForge 20170731 at Mon Sep  5 17:29:16 2016
 By Aleksey,,,
(c) 2012 - 2016 by Stawix Ruecha &#38; Foundry. All rights reserved. @KASE27.
</metadata>
<defs>
<font id="SoinSansNeue-Roman" horiz-adv-x="500" >
  <font-face 
    font-family="Soin Sans Neue"
    font-weight="400"
    font-style="italic"
    font-stretch="normal"
    units-per-em="1000"
    panose-1="2 11 5 4 3 2 0 1 1 2"
    ascent="750"
    descent="-250"
    x-height="434"
    cap-height="700"
    bbox="-121 -276 1346 1151"
    underline-thickness="55"
    underline-position="-316"
    slope="-180"
    unicode-range="U+000D-FB02"
  />
<missing-glyph horiz-adv-x="560" 
d="M30 0v706h500v-706h-500zM302 353l184 -281v562zM257 353l-183 281v-562zM280 318l-180 -278h360zM100 666l180 -278l180 278h-360z" />
    <glyph glyph-name=".notdef" horiz-adv-x="560" 
d="M30 0v706h500v-706h-500zM302 353l184 -281v562zM257 353l-183 281v-562zM280 318l-180 -278h360zM100 666l180 -278l180 278h-360z" />
    <glyph glyph-name=".null" horiz-adv-x="0" 
 />
    <glyph glyph-name="nonmarkingreturn" horiz-adv-x="333" 
 />
    <glyph glyph-name="NULL" horiz-adv-x="0" 
 />
    <glyph glyph-name="NULL" horiz-adv-x="0" 
 />
    <glyph glyph-name="CR" unicode="&#xd;" 
 />
    <glyph glyph-name="space" unicode=" " horiz-adv-x="239" 
 />
    <glyph glyph-name="exclam" unicode="!" horiz-adv-x="281" 
d="M166 203h-51q-16 210 -16 437v60h82v-60q0 -219 -15 -437zM85 50q0 23 15.5 39t39.5 16t39.5 -15.5t15.5 -39.5t-15 -39.5t-40 -15.5q-24 0 -39.5 15.5t-15.5 39.5z" />
    <glyph glyph-name="quotedbl" unicode="&#x22;" horiz-adv-x="430" 
d="M89 710h78l-8 -287h-62zM263 710h78l-8 -287h-62z" />
    <glyph glyph-name="numbersign" unicode="#" horiz-adv-x="703" 
d="M94 453v64h125l34 183h70l-34 -183h186l34 183h70l-34 -183h104v-64h-116l-38 -206h114v-64h-126l-34 -183h-70l34 183h-186l-34 -183h-70l34 183h-103v64h115l38 206h-113zM277 453l-38 -206h186l38 206h-186z" />
    <glyph glyph-name="dollar" unicode="$" horiz-adv-x="650" 
d="M362 800v-94q88 -8 138 -50t60 -113h-72q-14 83 -126 97v-257l57 -14q164 -39 164 -179q0 -90 -59.5 -140.5t-161.5 -57.5v-92h-66v92q-105 6 -166.5 51.5t-71.5 127.5h74q15 -104 164 -113v267l-35 8q-189 45 -189 187q0 86 58.5 134.5t165.5 53.5v92h66zM147 522
q0 -90 140 -121l9 -2v243q-149 -6 -149 -120zM393 302l-31 7v-251q69 7 107.5 40t38.5 88q0 88 -115 116z" />
    <glyph glyph-name="percent" unicode="%" horiz-adv-x="969" 
d="M304 0h-78l439 700h78zM230 706q76 0 127 -52t51 -128q0 -77 -51 -129t-127 -52t-127.5 52t-51.5 129q0 76 51.5 128t127.5 52zM230 408q48 0 79 33.5t31 84.5q0 50 -31 83.5t-79 33.5t-79 -33t-31 -84t31 -84.5t79 -33.5zM739 355q76 0 127.5 -52t51.5 -129
q0 -76 -51.5 -128t-127.5 -52t-127 52t-51 128q0 77 51 129t127 52zM739 57q48 0 79 33t31 84t-31 84.5t-79 33.5t-79 -33.5t-31 -84.5q0 -50 31 -83.5t79 -33.5z" />
    <glyph glyph-name="ampersand" unicode="&#x26;" horiz-adv-x="697" 
d="M614 350l51 -43q-81 -101 -126 -150l134 -157h-90l-91 107q-60 -59 -115.5 -88t-118.5 -29q-83 0 -140.5 50.5t-57.5 136.5q0 32 10 61t21.5 48t38.5 44t41.5 36t48.5 36l12 8q-24 27 -38 45t-27.5 48t-13.5 59q0 68 40.5 107.5t110.5 39.5q65 0 106.5 -37t41.5 -102
q0 -52 -29 -88.5t-83 -74.5l-9 -6l165 -194q32 36 118 143zM259 58q89 0 190 99l-174 203l-16 -11q-35 -26 -51 -39t-36.5 -34.5t-28 -44.5t-7.5 -52q0 -55 35.5 -88t87.5 -33zM224 566q0 -20 11.5 -42.5t21 -34.5t32.5 -39l9 6q39 28 60.5 53.5t21.5 59.5q0 35 -21 57.5
t-55 22.5q-38 0 -59 -21.5t-21 -61.5z" />
    <glyph glyph-name="quotesingle" unicode="'" horiz-adv-x="257" 
d="M89 710h78l-8 -287h-62z" />
    <glyph glyph-name="parenleft" unicode="(" horiz-adv-x="424" 
d="M79 284q0 173 82.5 303t223.5 165v-69q-108 -32 -168 -138.5t-60 -260.5t60 -260.5t168 -139.5v-68q-141 35 -223.5 165t-82.5 303z" />
    <glyph glyph-name="parenright" unicode=")" horiz-adv-x="424" 
d="M345 284q0 -173 -82 -303t-223 -165v68q107 33 167 139.5t60 260.5t-60 260.5t-167 138.5v69q141 -35 223 -165t82 -303z" />
    <glyph glyph-name="asterisk" unicode="*" horiz-adv-x="447" 
d="M223 496l-74 -114l-53 36l84 107l-131 35l21 62l127 -48l-6 136h65l-6 -136l127 48l20 -62l-131 -35l84 -107l-53 -36z" />
    <glyph glyph-name="plus" unicode="+" horiz-adv-x="610" 
d="M339 48h-68v164h-162v65h162v163h68v-163h162v-65h-162v-164z" />
    <glyph glyph-name="comma" unicode="," horiz-adv-x="233" 
d="M38 -130l41 245h89l-68 -245h-62z" />
    <glyph glyph-name="hyphen" unicode="-" horiz-adv-x="392" 
d="M48 187v62h297v-62h-297z" />
    <glyph glyph-name="period" unicode="." horiz-adv-x="243" 
d="M66 50q0 23 15.5 39t39.5 16t39.5 -15.5t15.5 -39.5t-15 -39.5t-40 -15.5q-24 0 -39.5 15.5t-15.5 39.5z" />
    <glyph glyph-name="slash" unicode="/" horiz-adv-x="515" 
d="M515 800l-439 -900h-76l439 900h76z" />
    <glyph glyph-name="zero" unicode="0" horiz-adv-x="702" 
d="M351 710q131 0 208 -96.5t77 -263.5t-77 -263.5t-208 -96.5t-208 96.5t-77 263.5t77 263.5t208 96.5zM351 58q96 0 151.5 77t55.5 215t-55.5 215t-151.5 77t-151.5 -77t-55.5 -215t55.5 -215t151.5 -77z" />
    <glyph glyph-name="one" unicode="1" horiz-adv-x="498" 
d="M245 0v629l-173 -51l-22 58l206 69h64v-705h-75z" />
    <glyph glyph-name="two" unicode="2" horiz-adv-x="626" 
d="M308 642q-163 0 -172 -149h-75q6 99 69.5 158t178.5 59q110 0 173.5 -57.5t63.5 -150.5q0 -76 -39 -131.5t-126 -130.5l-196 -172h376v-68h-494v55l253 224q81 71 115 118t34 105q0 64 -42.5 102t-118.5 38z" />
    <glyph glyph-name="three" unicode="3" horiz-adv-x="615" 
d="M303 644q-79 0 -122.5 -36.5t-48.5 -101.5h-75q6 94 69.5 149t177.5 55q99 0 166.5 -48.5t67.5 -134.5q0 -64 -27.5 -103.5t-74.5 -53.5q55 -11 89 -55.5t34 -113.5q0 -96 -71.5 -153.5t-182.5 -57.5q-119 0 -184 54t-73 148h75q11 -136 181 -136q83 0 130.5 38t47.5 108
q0 131 -157 131h-76v63h67q145 0 145 127q0 57 -45 89t-113 32z" />
    <glyph glyph-name="four" unicode="4" horiz-adv-x="664" 
d="M511 702v-463h114v-65h-114v-174h-74v174h-395v60l400 468h69zM129 239h308v359z" />
    <glyph glyph-name="five" unicode="5" horiz-adv-x="608" 
d="M299 56q77 0 128 46.5t51 117.5q0 67 -47.5 111t-132.5 44q-101 0 -154 -41l-70 25l16 341h418v-68h-350l-11 -232q24 16 69 27.5t91 11.5q115 0 181.5 -60.5t66.5 -156.5q0 -103 -73.5 -167.5t-181.5 -64.5q-115 0 -181.5 55.5t-72.5 146.5h73q5 -60 53 -98t127 -38z
" />
    <glyph glyph-name="six" unicode="6" horiz-adv-x="638" 
d="M344 458q105 0 175 -66.5t70 -163.5q0 -106 -69.5 -172t-180.5 -66q-120 0 -196.5 82.5t-76.5 251.5q0 60 8.5 113t28.5 104t51 87.5t80.5 59t111.5 22.5q90 0 149.5 -45t71.5 -114h-74q-8 44 -48 68.5t-99 24.5q-47 0 -83 -18t-58 -46.5t-36.5 -68.5t-20.5 -79t-7 -83
q29 49 83 79t120 30zM337 57q80 0 127.5 47t47.5 124q0 72 -48 119t-127 47q-76 0 -129.5 -48t-53.5 -118q0 -73 53 -122t130 -49z" />
    <glyph glyph-name="seven" unicode="7" horiz-adv-x="611" 
d="M546 643l-327 -643h-79l322 632h-401v68h485v-57z" />
    <glyph glyph-name="eight" unicode="8" horiz-adv-x="652" 
d="M326 -10q-121 0 -194.5 52t-73.5 144q0 61 36.5 107t104.5 65q-57 19 -88.5 63.5t-31.5 98.5q0 86 67.5 138t179.5 52t180 -52t68 -138q0 -55 -31.5 -99t-89.5 -63q68 -19 105 -65t37 -107q0 -91 -74 -143.5t-195 -52.5zM326 323q-88 0 -140 -37.5t-52 -98.5
q0 -63 51.5 -97t140.5 -34t140.5 34t51.5 97q0 61 -52 98.5t-140 37.5zM326 386q79 0 125.5 37t46.5 93q0 62 -47.5 95.5t-124.5 33.5t-124.5 -33.5t-47.5 -95.5q0 -56 46.5 -93t125.5 -37z" />
    <glyph glyph-name="nine" unicode="9" horiz-adv-x="638" 
d="M295 242q-105 0 -175 66.5t-70 163.5q0 106 69 172t180 66q120 0 197 -82.5t77 -251.5q0 -76 -14 -141t-45 -122t-88 -90t-134 -33q-89 0 -148.5 45t-71.5 114h74q8 -43 48 -68t98 -25q197 0 206 296q-28 -49 -82 -79.5t-121 -30.5zM301 643q-80 0 -127 -47t-47 -124
q0 -72 47.5 -119t126.5 -47q77 0 130.5 48t53.5 118q0 74 -53.5 122.5t-130.5 48.5z" />
    <glyph glyph-name="colon" unicode=":" horiz-adv-x="243" 
d="M66 50q0 23 15.5 39t39.5 16t39.5 -15.5t15.5 -39.5t-15 -39.5t-40 -15.5q-24 0 -39.5 15.5t-15.5 39.5zM66 385q0 23 15.5 39t39.5 16t39.5 -15.5t15.5 -39.5t-15 -39.5t-40 -15.5q-24 0 -39.5 15.5t-15.5 39.5z" />
    <glyph glyph-name="semicolon" unicode=";" horiz-adv-x="243" 
d="M66 385q0 23 15.5 39t39.5 16t39.5 -15.5t15.5 -39.5t-15 -39.5t-40 -15.5q-24 0 -39.5 15.5t-15.5 39.5zM38 -130l41 245h89l-68 -245h-62z" />
    <glyph glyph-name="less" unicode="&#x3c;" horiz-adv-x="610" 
d="M106 213v62l396 198v-82l-314 -147l314 -147v-82z" />
    <glyph glyph-name="equal" unicode="=" horiz-adv-x="610" 
d="M496 371v-65h-382v65h382zM496 183v-66h-382v66h382z" />
    <glyph glyph-name="greater" unicode="&#x3e;" horiz-adv-x="610" 
d="M504 275v-62l-396 -198v82l314 147l-314 147v82z" />
    <glyph glyph-name="question" unicode="?" horiz-adv-x="591" 
d="M531 510q0 -32 -13 -62t-31 -51.5t-45.5 -43t-47.5 -34t-46 -26.5l-9 -90h-58l-10 120q43 22 63.5 33.5t54.5 36t49.5 52.5t15.5 61q0 64 -42 100t-125 36q-169 0 -179 -149h-72q6 100 69 158.5t184 58.5q116 0 179 -55t63 -145zM254 50q0 23 15.5 39t39.5 16t39.5 -15.5
t15.5 -39.5t-15 -39.5t-40 -15.5q-24 0 -39.5 15.5t-15.5 39.5z" />
    <glyph glyph-name="at" unicode="@" horiz-adv-x="979" 
d="M685 -70v-56q-83 -39 -195 -39q-182 0 -299.5 115t-117.5 284q0 178 118.5 294.5t304.5 116.5q181 0 295.5 -107t114.5 -279q0 -102 -43.5 -160.5t-121.5 -58.5q-84 0 -107 81q-56 -85 -153 -85q-82 0 -138.5 58.5t-56.5 143.5t56.5 143.5t138.5 58.5q84 0 140 -68v62h64
v-231q0 -57 14.5 -82.5t48.5 -25.5q42 0 67.5 42.5t25.5 121.5q0 151 -96 240.5t-249 89.5q-159 0 -258.5 -99.5t-99.5 -255.5q0 -148 99 -245.5t253 -97.5q105 0 195 39zM352 238q0 -63 37.5 -104t97.5 -41q55 0 94.5 41.5t39.5 103.5t-39.5 103.5t-94.5 41.5
q-60 0 -97.5 -41t-37.5 -104z" />
    <glyph glyph-name="A" unicode="A" horiz-adv-x="748" 
d="M639 0l-85 193h-362l-84 -193h-75l312 704h59l311 -704h-76zM373 607l-151 -346h303z" />
    <glyph glyph-name="B" unicode="B" horiz-adv-x="712" 
d="M101 700h299q106 0 167.5 -47t61.5 -135q0 -65 -31 -106t-83 -53q63 -7 101 -53t38 -114q0 -95 -64.5 -143.5t-181.5 -48.5h-307v700zM174 319v-252h233q171 0 171 128q0 67 -42.5 95.5t-133.5 28.5h-228zM174 632v-245h214q165 0 165 126q0 63 -39.5 91t-119.5 28h-220z
" />
    <glyph glyph-name="C" unicode="C" horiz-adv-x="811" 
d="M66 350q0 152 103.5 256t259.5 104q123 0 212.5 -66t112.5 -173h-79q-15 74 -81.5 121.5t-164.5 47.5q-125 0 -205 -82t-80 -208t80 -208t205 -82q99 0 166 48t82 122h79q-23 -107 -113 -173.5t-214 -66.5q-156 0 -259.5 104t-103.5 256z" />
    <glyph glyph-name="D" unicode="D" horiz-adv-x="771" 
d="M706 352q0 -154 -102.5 -253t-268.5 -99h-234v700h236q165 0 267 -97.5t102 -250.5zM175 70h160q139 0 215.5 77t76.5 205q0 126 -76.5 202t-213.5 76h-162v-560z" />
    <glyph glyph-name="E" unicode="E" horiz-adv-x="659" 
d="M588 0h-487v700h483v-68h-409v-245h385v-68h-385v-251h413v-68z" />
    <glyph glyph-name="F" unicode="F" horiz-adv-x="634" 
d="M175 0h-74v700h473v-68h-399v-261h369v-68h-369v-303z" />
    <glyph glyph-name="G" unicode="G" horiz-adv-x="828" 
d="M426 60q116 0 188 70.5t76 176.5h-257v68h331q2 -17 2 -41q0 -154 -94.5 -249t-245.5 -95q-157 0 -258.5 103.5t-101.5 256.5q0 151 103.5 255.5t259.5 104.5q120 0 208 -64.5t110 -167.5h-78q-15 69 -81 115.5t-159 46.5q-125 0 -205 -82.5t-80 -207.5q0 -126 78 -208
t204 -82z" />
    <glyph glyph-name="H" unicode="H" horiz-adv-x="777" 
d="M175 388h427v312h74v-700h-74v318h-427v-318h-74v700h74v-312z" />
    <glyph glyph-name="I" unicode="I" horiz-adv-x="288" 
d="M181 700v-700h-74v700h74z" />
    <glyph glyph-name="J" unicode="J" horiz-adv-x="589" 
d="M497 700v-457q0 -122 -63.5 -187.5t-168.5 -65.5q-101 0 -159 46.5t-68 131.5h72q17 -108 153 -108q76 0 118 48.5t42 145.5v446h74z" />
    <glyph glyph-name="K" unicode="K" horiz-adv-x="704" 
d="M667 700l-309 -316l325 -384h-92l-281 334l-135 -139v-195h-74v700h74v-408l394 408h98z" />
    <glyph glyph-name="L" unicode="L" horiz-adv-x="604" 
d="M572 0h-471v700h74v-630h397v-70z" />
    <glyph glyph-name="M" unicode="M" horiz-adv-x="930" 
d="M437 132l-263 434v-566h-73v702h73l291 -487l292 487h72v-702h-75v566l-263 -434h-54z" />
    <glyph glyph-name="N" unicode="N" horiz-adv-x="789" 
d="M101 702h67l447 -585v583h73v-702h-67l-447 585v-583h-73v702z" />
    <glyph glyph-name="O" unicode="O" horiz-adv-x="852" 
d="M426 710q151 0 255.5 -104.5t104.5 -255.5t-104.5 -255.5t-255.5 -104.5t-255.5 104.5t-104.5 255.5t104.5 255.5t255.5 104.5zM426 60q120 0 201 82.5t81 207.5t-81 207.5t-201 82.5t-201 -82.5t-81 -207.5t81 -207.5t201 -82.5z" />
    <glyph glyph-name="P" unicode="P" horiz-adv-x="688" 
d="M175 332h206q179 0 179 149q0 150 -179 150h-206v-299zM175 264v-264h-74v700h292q117 0 180 -57t63 -158t-66.5 -161t-181.5 -60h-213z" />
    <glyph glyph-name="Q" unicode="Q" horiz-adv-x="852" 
d="M426 0q-150 0 -255 104t-105 251t105 251t255 104t255 -104t105 -251q0 -90 -42.5 -164.5t-117.5 -122.5h160v-68h-360zM426 70q119 0 200.5 82t81.5 203t-81.5 203t-200.5 82t-200.5 -82t-81.5 -203t81.5 -203t200.5 -82z" />
    <glyph glyph-name="R" unicode="R" horiz-adv-x="712" 
d="M175 264v-264h-74v700h307q115 0 178.5 -57t63.5 -158q0 -90 -54.5 -148.5t-149.5 -70.5l210 -266h-86l-207 264h-188zM175 332h221q86 0 132 38.5t46 111.5q0 149 -178 149h-221v-299z" />
    <glyph glyph-name="S" unicode="S" horiz-adv-x="634" 
d="M318 58q80 0 128 34.5t48 93.5q0 89 -128 119l-100 24q-98 23 -147.5 68.5t-49.5 122.5q0 88 64.5 138.5t173.5 50.5q102 0 165 -44.5t74 -121.5h-72q-8 47 -52 73t-116 26q-76 0 -118.5 -30.5t-42.5 -89.5q0 -49 36 -78t113 -47l99 -24q93 -22 134.5 -66t41.5 -117
q0 -94 -70 -146.5t-180 -52.5q-113 0 -185 47.5t-82 132.5h74q8 -54 59 -83.5t133 -29.5z" />
    <glyph glyph-name="T" unicode="T" horiz-adv-x="616" 
d="M584 700v-68h-239v-632h-74v632h-239v68h552z" />
    <glyph glyph-name="U" unicode="U" horiz-adv-x="769" 
d="M385 -10q-130 0 -210 76t-80 215v419h75v-407q0 -114 57.5 -173.5t158.5 -59.5q100 0 157.5 59.5t57.5 173.5v407h73v-419q0 -139 -80 -215t-209 -76z" />
    <glyph glyph-name="V" unicode="V" horiz-adv-x="728" 
d="M112 700l253 -611l254 611h76l-297 -704h-68l-297 704h79z" />
    <glyph glyph-name="W" unicode="W" horiz-adv-x="1108" 
d="M586 700l201 -587l202 587h76l-246 -704h-62l-203 572l-202 -572h-63l-246 704h79l197 -587l205 587h62z" />
    <glyph glyph-name="X" unicode="X" horiz-adv-x="730" 
d="M675 700l-264 -344l272 -356h-86l-232 307l-234 -307h-84l271 354l-263 346h86l224 -297l226 297h84z" />
    <glyph glyph-name="Y" unicode="Y" horiz-adv-x="670" 
d="M98 700l236 -357l238 357h84l-284 -426v-274h-74v274l-284 426h84z" />
    <glyph glyph-name="Z" unicode="Z" horiz-adv-x="684" 
d="M612 68v-68h-541v55l439 577h-433v68h529v-55l-438 -577h444z" />
    <glyph glyph-name="bracketleft" unicode="[" horiz-adv-x="383" 
d="M105 742h238v-64h-164v-789h164v-64h-238v917z" />
    <glyph glyph-name="backslash" unicode="\" horiz-adv-x="515" 
d="M76 800l439 -900h-76l-439 900h76z" />
    <glyph glyph-name="bracketright" unicode="]" horiz-adv-x="383" 
d="M278 -175h-238v64h163v789h-163v64h238v-917z" />
    <glyph glyph-name="asciicircum" unicode="^" horiz-adv-x="604" 
d="M338 700l207 -350h-83l-160 272l-159 -272h-84l207 350h72z" />
    <glyph glyph-name="underscore" unicode="_" horiz-adv-x="424" 
d="M0 -121v61h424v-61h-424z" />
    <glyph glyph-name="grave" unicode="`" 
d="M110 632l52 57l139 -141l-35 -34z" />
    <glyph glyph-name="a" unicode="a" horiz-adv-x="572" 
d="M48 217q0 96 62.5 161t156.5 65q97 0 159 -77v68h68v-434h-68v68q-62 -76 -159 -76q-95 0 -157 64.5t-62 160.5zM120 217q0 -71 42 -117.5t110 -46.5q63 0 107.5 47t44.5 117t-44.5 117t-107.5 47q-68 0 -110 -46t-42 -118z" />
    <glyph glyph-name="b" unicode="b" horiz-adv-x="572" 
d="M524 217q0 -96 -63 -160.5t-157 -64.5q-96 0 -158 76v-68h-69v700h70v-332q62 75 157 75q94 0 157 -65t63 -161zM452 217q0 72 -42 118t-110 46q-64 0 -108.5 -47t-44.5 -117t44.5 -117t108.5 -47q68 0 110 46.5t42 117.5z" />
    <glyph glyph-name="c" unicode="c" horiz-adv-x="516" 
d="M48 217q0 95 65 160.5t159 65.5q88 0 143.5 -45.5t62.5 -111.5h-72q-9 41 -43.5 67.5t-88.5 26.5q-68 0 -111 -46t-43 -117t43 -116.5t112 -45.5q55 0 89 26.5t43 68.5h72q-7 -66 -62.5 -112t-143.5 -46q-95 0 -160 65t-65 160z" />
    <glyph glyph-name="d" unicode="d" horiz-adv-x="572" 
d="M48 217q0 96 62.5 161t156.5 65q95 0 157 -74v331h70v-700h-68v68q-62 -76 -159 -76q-94 0 -156.5 64.5t-62.5 160.5zM120 217q0 -71 42 -117.5t110 -46.5q63 0 107.5 47t44.5 117t-44.5 117t-107.5 47q-68 0 -110 -46t-42 -118z" />
    <glyph glyph-name="e" unicode="e" horiz-adv-x="516" 
d="M265 -8q-96 0 -156.5 62.5t-60.5 162.5q0 101 59 163.5t154 62.5q97 0 153.5 -64t56.5 -162q0 -14 -1 -28h-352q7 -67 47 -102.5t102 -35.5q51 0 85.5 21.5t42.5 55.5h66q-12 -59 -66 -97.5t-130 -38.5zM260 383q-58 0 -96.5 -35.5t-45.5 -101.5h282q-7 66 -44 101.5
t-96 35.5z" />
    <glyph glyph-name="f" unicode="f" horiz-adv-x="356" 
d="M35 434h82v84q0 95 37.5 141.5t117.5 46.5q37 0 67 -8v-60q-27 4 -56 4q-55 0 -75.5 -31t-20.5 -104v-73h146v-61h-146v-373h-70v373h-82v61z" />
    <glyph glyph-name="g" unicode="g" horiz-adv-x="574" 
d="M427 12v59q-63 -75 -159 -75q-95 0 -157.5 65.5t-62.5 157.5q0 93 62.5 158.5t157.5 65.5q96 0 159 -75v66h69v-434q0 -100 -61 -157t-162 -57q-92 0 -149 42.5t-63 105.5h70q7 -38 44 -62.5t96 -24.5q75 0 115.5 42t40.5 123zM426 219q0 67 -44.5 114.5t-108.5 47.5
q-69 0 -111.5 -46.5t-42.5 -115.5q0 -68 42.5 -114.5t111.5 -46.5q64 0 108.5 47.5t44.5 113.5z" />
    <glyph glyph-name="h" unicode="h" horiz-adv-x="550" 
d="M298 443q81 0 131 -49t50 -130v-264h-70v242q0 65 -32.5 101t-94.5 36q-60 0 -97.5 -37.5t-37.5 -101.5v-240h-70v700h70v-335q47 78 151 78z" />
    <glyph glyph-name="i" unicode="i" horiz-adv-x="228" 
d="M149 434v-434h-70v434h70zM67 578q0 21 13 34t34 13q22 0 34.5 -13t12.5 -34t-13 -34t-34 -13t-34 13.5t-13 33.5z" />
    <glyph glyph-name="j" unicode="j" horiz-adv-x="232" 
d="M83 -61v495h70v-505q0 -151 -129 -151q-24 0 -54 6v61q24 -3 40 -3q40 0 56.5 23.5t16.5 73.5zM71 578q0 21 13 34t34 13q22 0 34.5 -13t12.5 -34t-13 -34t-34 -13t-34 13.5t-13 33.5z" />
    <glyph glyph-name="k" unicode="k" horiz-adv-x="487" 
d="M462 434l-197 -178l201 -256h-83l-166 213l-70 -63v-150h-70v700h70v-470l223 204h92z" />
    <glyph glyph-name="l" unicode="l" horiz-adv-x="228" 
d="M149 700v-700h-70v700h70z" />
    <glyph glyph-name="m" unicode="m" horiz-adv-x="865" 
d="M617 443q79 0 128 -49t49 -128v-266h-70v244q0 63 -32 99t-91 36q-57 0 -93.5 -37t-36.5 -100v-242h-70v244q0 63 -32 99t-91 36q-57 0 -94 -37t-37 -100v-242h-70v434h69v-66q23 34 63 54.5t85 20.5q52 0 92.5 -23t62.5 -63q23 39 69.5 62.5t98.5 23.5z" />
    <glyph glyph-name="n" unicode="n" horiz-adv-x="550" 
d="M298 443q81 0 131 -49t50 -130v-264h-70v242q0 65 -32.5 101t-94.5 36q-60 0 -97.5 -37.5t-37.5 -101.5v-240h-70v434h69v-70q46 79 152 79z" />
    <glyph glyph-name="o" unicode="o" horiz-adv-x="548" 
d="M274 443q94 0 160 -65.5t66 -160.5q0 -94 -65.5 -159.5t-160.5 -65.5t-160.5 65.5t-65.5 159.5q0 95 66 160.5t160 65.5zM274 54q66 0 110 46.5t44 116.5q0 71 -44 117.5t-110 46.5t-110 -46.5t-44 -117.5q0 -70 44 -116.5t110 -46.5z" />
    <glyph glyph-name="p" unicode="p" horiz-adv-x="572" 
d="M524 217q0 -96 -63 -160.5t-157 -64.5q-95 0 -157 75v-283h-70v650h69v-68q62 77 158 77q94 0 157 -65t63 -161zM452 217q0 72 -42 118t-110 46q-64 0 -108.5 -47t-44.5 -117t44.5 -117t108.5 -47q68 0 110 46.5t42 117.5z" />
    <glyph glyph-name="q" unicode="q" horiz-adv-x="572" 
d="M48 217q0 96 62.5 161t156.5 65q97 0 159 -77v68h68v-650h-70v282q-62 -74 -157 -74q-94 0 -156.5 64.5t-62.5 160.5zM120 217q0 -71 42 -117.5t110 -46.5q63 0 107.5 47t44.5 117t-44.5 117t-107.5 47q-68 0 -110 -46t-42 -118z" />
    <glyph glyph-name="r" unicode="r" horiz-adv-x="356" 
d="M329 434v-63q-14 3 -35 3q-75 0 -111 -42t-36 -116v-216h-70v434h69v-79q47 83 149 83q18 0 34 -4z" />
    <glyph glyph-name="s" unicode="s" horiz-adv-x="414" 
d="M211 50q45 0 73 18.5t28 49.5q0 28 -19.5 42.5t-68.5 25.5l-48 10q-65 15 -97 43.5t-32 77.5q0 56 44 90.5t112 34.5q75 0 117 -34.5t48 -84.5h-65q-4 27 -30 44t-70 17q-39 0 -65 -17.5t-26 -46.5q0 -30 20 -43t65 -23l49 -11q131 -28 131 -123q0 -58 -46.5 -92.5
t-123.5 -34.5q-80 0 -124 35t-51 88h65q5 -30 35.5 -48t78.5 -18z" />
    <glyph glyph-name="t" unicode="t" horiz-adv-x="389" 
d="M32 434h83v134h69v-134h163v-61h-163v-226q0 -52 21 -70.5t68 -18.5q40 0 76 13v-61q-36 -16 -87 -16q-72 0 -110 33t-38 110v236h-82v61z" />
    <glyph glyph-name="u" unicode="u" horiz-adv-x="548" 
d="M251 -8q-81 0 -130.5 48.5t-49.5 129.5v264h70v-242q0 -65 32.5 -100.5t93.5 -35.5q60 0 97 37.5t37 101.5v239h70v-434h-69v71q-46 -79 -151 -79z" />
    <glyph glyph-name="v" unicode="v" horiz-adv-x="483" 
d="M214 -2l-190 436h75l143 -341l145 341h73l-191 -436h-55z" />
    <glyph glyph-name="w" unicode="w" horiz-adv-x="752" 
d="M503 -2l-126 334l-128 -334h-54l-165 436h74l119 -335l126 335h60l120 -336l124 336h69l-165 -436h-54z" />
    <glyph glyph-name="x" unicode="x" horiz-adv-x="485" 
d="M457 434l-175 -215l178 -219h-83l-135 170l-136 -170h-80l177 218l-174 216h82l132 -167l133 167h81z" />
    <glyph glyph-name="y" unicode="y" horiz-adv-x="497" 
d="M97 434l156 -318l148 318h74l-311 -650h-74l127 262l-195 388h75z" />
    <glyph glyph-name="z" unicode="z" horiz-adv-x="478" 
d="M62 375v59h363v-48l-279 -326h281v-60h-374v48l279 327h-270z" />
    <glyph glyph-name="braceleft" unicode="{" horiz-adv-x="440" 
d="M65 248v72q56 0 89.5 34.5t28.5 92.5l-7 96q-11 199 191 199h34v-64h-34q-64 0 -91.5 -29.5t-25.5 -97.5l6 -96q4 -64 -22 -109t-78 -62q52 -17 78 -62t22 -109l-6 -96q-2 -68 25.5 -97.5t91.5 -29.5h34v-64h-34q-202 0 -191 199l7 96q5 58 -28.5 92.5t-89.5 34.5z" />
    <glyph glyph-name="bar" unicode="|" horiz-adv-x="347" 
d="M209 700v-864h-70v864h70z" />
    <glyph glyph-name="braceright" unicode="}" horiz-adv-x="440" 
d="M375 320v-72q-56 0 -89.5 -34.5t-28.5 -92.5l8 -96q11 -199 -191 -199h-34v64h33q65 0 92 29.5t25 97.5l-5 96q-5 64 21 109t78 62q-52 17 -78 62t-21 109l5 96q2 68 -25 97.5t-92 29.5h-33v64h34q202 0 191 -199l-8 -96q-5 -58 28.5 -92.5t89.5 -34.5z" />
    <glyph glyph-name="asciitilde" unicode="~" horiz-adv-x="502" 
d="M386 272l47 -6q-9 -43 -35 -71t-66 -28q-30 0 -88 24q-5 2 -16.5 7t-18 8t-17.5 5.5t-20 2.5q-41 0 -56 -49l-47 6q9 43 35 71t66 28q30 0 88 -24q5 -2 16.5 -7t18 -8t17.5 -5.5t20 -2.5q41 0 56 49z" />
    <glyph glyph-name="uni00A0" unicode="&#xa0;" horiz-adv-x="239" 
 />
    <glyph glyph-name="exclamdown" unicode="&#xa1;" horiz-adv-x="281" 
d="M115 232h51q15 -220 15 -438v-60h-82v60q0 227 16 438zM85 385q0 23 15.5 38.5t39.5 15.5t39.5 -15.5t15.5 -38.5q0 -24 -15 -39.5t-40 -15.5q-24 0 -39.5 15.5t-15.5 39.5z" />
    <glyph glyph-name="cent" unicode="&#xa2;" horiz-adv-x="650" 
d="M374 534v-93q73 -9 119.5 -53t52.5 -102h-72q-8 34 -34 58.5t-66 31.5v-318q41 7 67 32t34 60h72q-6 -59 -52.5 -103t-120.5 -53v-94h-66v94q-85 11 -141 74t-56 149t56 149.5t141 74.5v93h66zM184 217q0 -62 34 -105t90 -54v319q-56 -11 -90 -54.5t-34 -105.5z" />
    <glyph glyph-name="sterling" unicode="&#xa3;" horiz-adv-x="650" 
d="M50 375h80v61q0 120 64 197t185 77q102 0 159 -56t63 -141h-73q-4 56 -41.5 92.5t-106.5 36.5q-175 0 -175 -210v-57h226v-64h-226v-243h393v-68h-548v68h80v243h-80v64z" />
    <glyph glyph-name="currency" unicode="&#xa4;" horiz-adv-x="650" 
d="M144 579l58 -59q57 39 123 39q67 0 122 -39l59 59l49 -49l-59 -59q39 -53 39 -121q0 -69 -39 -122l59 -58l-49 -49l-59 58q-54 -38 -122 -38t-123 38l-58 -58l-49 49l58 58q-38 54 -38 122q0 67 38 121l-58 59zM325 199q61 0 102 43t41 108t-41 108t-102 43t-102 -43
t-41 -108t41 -108t102 -43z" />
    <glyph glyph-name="yen" unicode="&#xa5;" horiz-adv-x="650" 
d="M90 218h198v37l-33 54h-165v62h127l-199 329h80l227 -379l227 379h81l-201 -329h129v-62h-166l-33 -54v-37h199v-61h-199v-157h-74v157h-198v61z" />
    <glyph glyph-name="brokenbar" unicode="&#xa6;" horiz-adv-x="347" 
d="M209 700v-325h-70v325h70zM209 161v-325h-70v325h70z" />
    <glyph glyph-name="section" unicode="&#xa7;" horiz-adv-x="650" 
d="M319 -105q69 0 110 27t41 74q0 68 -105 93l-102 27q-80 20 -123.5 57t-43.5 101q0 49 30 85.5t84 53.5q-99 42 -99 136q0 76 57 118.5t157 42.5q98 0 152.5 -39t63.5 -108h-71q-14 83 -146 83q-67 0 -103.5 -24t-36.5 -70q0 -40 28.5 -62t84.5 -35l103 -25
q153 -37 153 -156q0 -105 -109 -138q99 -41 99 -137q0 -81 -60 -124t-163 -43q-106 0 -167 41t-69 114h72q6 -45 48.5 -68.5t114.5 -23.5zM169 277q0 -73 118 -101l49 -11q65 1 104 31.5t39 75.5q0 73 -104 96l-61 15q-64 -2 -104.5 -31t-40.5 -75z" />
    <glyph glyph-name="dieresis" unicode="&#xa8;" 
d="M107 569q0 21 13 34t34 13t34 -13.5t13 -33.5q0 -21 -13 -34t-34 -13q-22 0 -34.5 13t-12.5 34zM299 569q0 20 13 33.5t34 13.5t34 -13t13 -34t-12.5 -34t-34.5 -13q-21 0 -34 13t-13 34z" />
    <glyph glyph-name="copyright" unicode="&#xa9;" horiz-adv-x="851" 
d="M426 710q151 0 255.5 -104.5t104.5 -255.5t-104.5 -255.5t-255.5 -104.5t-256 104.5t-105 255.5t105 255.5t256 104.5zM426 51q125 0 210 86t85 213t-85 213t-210 86t-210 -86t-85 -213t85 -213t210 -86zM237 350q0 82 56 138.5t138 56.5q75 0 122.5 -39.5t54.5 -96.5
h-69q-9 33 -36.5 54t-69.5 21q-57 0 -93 -38t-36 -96t36 -96t93 -38q44 0 71.5 21.5t35.5 54.5h69q-7 -56 -54.5 -96.5t-122.5 -40.5q-82 0 -138.5 56.5t-56.5 138.5z" />
    <glyph glyph-name="ordfeminine" unicode="&#xaa;" horiz-adv-x="480" 
d="M36 513q0 81 55 137.5t133 56.5q82 0 138 -64v57h58v-374h-58v56q-55 -63 -138 -63q-78 0 -133 56.5t-55 137.5zM101 513q0 -60 36 -98.5t95 -38.5q55 0 92.5 39t37.5 98t-37.5 98t-92.5 39q-59 0 -95 -38.5t-36 -98.5z" />
    <glyph glyph-name="guillemotleft" unicode="&#xab;" horiz-adv-x="474" 
d="M237 410l-112 -180l112 -180h-76l-112 180l112 180h76zM424 410l-112 -180l112 -180h-76l-112 180l112 180h76z" />
    <glyph glyph-name="logicalnot" unicode="&#xac;" horiz-adv-x="562" 
d="M49 412h434v-241h-70v178h-364v63z" />
    <glyph glyph-name="uni00AD" unicode="&#xad;" horiz-adv-x="392" 
d="M48 187v62h297v-62h-297z" />
    <glyph glyph-name="registered" unicode="&#xae;" horiz-adv-x="481" 
d="M240 708q84 0 142.5 -58.5t58.5 -141.5q0 -84 -58.5 -142.5t-142.5 -58.5q-83 0 -141.5 58.5t-58.5 142.5q0 83 58.5 141.5t141.5 58.5zM240 348q67 0 112.5 46t45.5 114t-45.5 114t-112.5 46t-112.5 -46t-45.5 -114t45.5 -114t112.5 -46zM213 479v-65h-45v191h87
q35 0 54.5 -16.5t19.5 -44.5q0 -48 -47 -62l51 -68h-49l-48 65h-23zM213 516h41q30 0 30 27q0 25 -30 25h-41v-52z" />
    <glyph glyph-name="macron" unicode="&#xaf;" 
d="M401 597v-58h-302v58h302z" />
    <glyph glyph-name="degree" unicode="&#xb0;" horiz-adv-x="363" 
d="M182 714q62 0 103.5 -42.5t41.5 -105.5q0 -62 -41.5 -104.5t-103.5 -42.5q-63 0 -104.5 42t-41.5 105t41.5 105.5t104.5 42.5zM182 473q38 0 63 26.5t25 66.5q0 41 -25 67.5t-63 26.5q-39 0 -64 -26.5t-25 -67.5q0 -40 25 -66.5t64 -26.5z" />
    <glyph glyph-name="plusminus" unicode="&#xb1;" horiz-adv-x="610" 
d="M339 110h-68v143h-162v65h162v143h68v-143h162v-65h-162v-143zM501 65v-65h-392v65h392z" />
    <glyph glyph-name="two.superior" unicode="&#xb2;" horiz-adv-x="388" 
d="M193 835q-81 0 -86 -76h-59q3 58 40.5 94.5t105.5 36.5q66 0 102.5 -30.5t36.5 -81.5q0 -42 -23.5 -73.5t-69.5 -66.5l-85 -65h186v-55h-288v44l143 110q41 33 58 55.5t17 48.5q0 27 -20.5 43t-57.5 16z" />
    <glyph glyph-name="three.superior" unicode="&#xb3;" horiz-adv-x="388" 
d="M191 836q-84 0 -89 -67h-58q4 56 42.5 88.5t105.5 32.5q61 0 99.5 -27.5t38.5 -80.5q0 -26 -13 -45t-33 -25q58 -16 58 -86q0 -54 -42 -85t-108 -31q-144 0 -153 120h59q6 -66 94 -66t88 63q0 54 -70 54h-46v52h46q60 0 60 46q0 57 -79 57z" />
    <glyph glyph-name="acute" unicode="&#xb4;" 
d="M338 689l52 -57l-156 -118l-35 34z" />
    <glyph glyph-name="mu" unicode="&#xb5;" horiz-adv-x="554" 
d="M270 -8q-85 0 -123 49v-257h-70v650h70v-242q0 -65 32.5 -100.5t93.5 -35.5q60 0 97 37.5t37 101.5v239h70v-434h-69v70q-21 -37 -59 -57.5t-79 -20.5z" />
    <glyph glyph-name="paragraph" unicode="&#xb6;" horiz-adv-x="567" 
d="M303 700h229v-65h-78q-32 0 -45 -14t-13 -45v-647q0 -74 -34.5 -112.5t-98.5 -38.5q-25 0 -55 6v65q24 -3 41 -3q40 0 56.5 23.5t16.5 73.5v260h-19q-105 0 -177.5 72t-72.5 177q0 104 73 176t177 72z" />
    <glyph glyph-name="periodcentered" unicode="&#xb7;" horiz-adv-x="243" 
d="M66 218q0 24 15.5 39.5t39.5 15.5q25 0 40 -15.5t15 -39.5t-15.5 -39.5t-39.5 -15.5t-39.5 16t-15.5 39z" />
    <glyph glyph-name="cedilla" unicode="&#xb8;" 
d="M254 -161h-78l62 163h66z" />
    <glyph glyph-name="one.superior" unicode="&#xb9;" horiz-adv-x="388" 
d="M194 518v299l-105 -33l-17 50l134 50h49v-366h-61z" />
    <glyph glyph-name="ordmasculine" unicode="&#xba;" horiz-adv-x="461" 
d="M230 707q82 0 138.5 -56.5t56.5 -137.5q0 -82 -56.5 -138t-138.5 -56q-81 0 -137.5 56t-56.5 138q0 81 56.5 137.5t137.5 56.5zM230 376q56 0 93.5 38.5t37.5 98.5q0 59 -37.5 97.5t-93.5 38.5q-55 0 -92 -38.5t-37 -97.5q0 -60 37 -98.5t92 -38.5z" />
    <glyph glyph-name="guillemotright" unicode="&#xbb;" horiz-adv-x="474" 
d="M50 50l111 180l-111 180h75l112 -180l-112 -180h-75zM237 50l111 180l-111 180h75l112 -180l-112 -180h-75z" />
    <glyph glyph-name="onequarter" unicode="&#xbc;" horiz-adv-x="902" 
d="M816 366v-232h58v-54h-58v-80h-62v80h-207v46l217 240h52zM619 134h136v150zM275 0h-68l441 700h68zM194 336v299l-105 -33l-17 50l134 50h49v-366h-61z" />
    <glyph glyph-name="onehalf" unicode="&#xbd;" horiz-adv-x="902" 
d="M258 0h-68l441 700h68zM706 317q-81 0 -86 -76h-59q3 58 40.5 94.5t105.5 36.5q66 0 102.5 -30.5t36.5 -81.5q0 -42 -23.5 -73.5t-69.5 -66.5l-85 -65h186v-55h-288v44l143 110q41 33 58 55.5t17 48.5q0 27 -20.5 43t-57.5 16zM194 336v299l-105 -33l-17 50l134 50h49
v-366h-61z" />
    <glyph glyph-name="threequarters" unicode="&#xbe;" horiz-adv-x="902" 
d="M191 654q-84 0 -89 -67h-58q4 56 42.5 88.5t105.5 32.5q61 0 99.5 -27.5t38.5 -80.5q0 -26 -13 -45t-33 -25q58 -16 58 -86q0 -54 -42 -85t-108 -31q-144 0 -153 120h59q6 -66 94 -66t88 63q0 54 -70 54h-46v52h46q60 0 60 46q0 57 -79 57zM294 0h-68l441 700h68z
M816 366v-232h58v-54h-58v-80h-62v80h-207v46l217 240h52zM619 134h136v150z" />
    <glyph glyph-name="questiondown" unicode="&#xbf;" horiz-adv-x="540" 
d="M60 -75q0 39 17.5 74t50 63t57 44.5t58.5 34.5l9 91h57l10 -121q-33 -16 -50 -25t-46.5 -28.5t-45 -36t-28 -41t-12.5 -51.5q0 -64 41.5 -100.5t124.5 -36.5q169 0 179 149h73q-6 -100 -69 -158.5t-184 -58.5q-116 0 -179 55t-63 146zM226 385q0 23 15.5 38.5t40.5 15.5
q24 0 39.5 -15.5t15.5 -38.5q0 -24 -15.5 -39.5t-39.5 -15.5q-25 0 -40.5 15.5t-15.5 39.5z" />
    <glyph glyph-name="Agrave" unicode="&#xc0;" horiz-adv-x="748" 
d="M639 0l-85 193h-362l-84 -193h-75l312 704h59l311 -704h-76zM373 607l-151 -346h303zM223 857l52 60l133 -124l-35 -37z" />
    <glyph glyph-name="Aacute" unicode="&#xc1;" horiz-adv-x="748" 
d="M639 0l-85 193h-362l-84 -193h-75l312 704h59l311 -704h-76zM373 607l-151 -346h303zM471 917l52 -60l-150 -101l-35 37z" />
    <glyph glyph-name="Acircumflex" unicode="&#xc2;" horiz-adv-x="748" 
d="M639 0l-85 193h-362l-84 -193h-75l312 704h59l311 -704h-76zM373 607l-151 -346h303zM334 896h78l124 -136h-75l-88 80l-88 -80h-75z" />
    <glyph glyph-name="Atilde" unicode="&#xc3;" horiz-adv-x="748" 
d="M639 0l-85 193h-362l-84 -193h-75l312 704h59l311 -704h-76zM373 607l-151 -346h303zM484 857l50 -7q-21 -94 -93 -94q-28 0 -71.5 20t-62.5 20q-32 0 -45 -37l-50 6q21 95 93 95q28 0 71.5 -20t62.5 -20q32 0 45 37z" />
    <glyph glyph-name="Adieresis" unicode="&#xc4;" horiz-adv-x="748" 
d="M639 0l-85 193h-362l-84 -193h-75l312 704h59l311 -704h-76zM373 607l-151 -346h303zM430 805q0 21 13.5 34.5t35.5 13.5t35.5 -13.5t13.5 -34.5q0 -22 -13.5 -35.5t-35.5 -13.5t-35.5 13.5t-13.5 35.5zM218 805q0 21 13.5 34.5t35.5 13.5t35.5 -13.5t13.5 -34.5
q0 -22 -13.5 -35.5t-35.5 -13.5t-35.5 13.5t-13.5 35.5z" />
    <glyph glyph-name="Aring" unicode="&#xc5;" horiz-adv-x="748" 
d="M639 0l-85 193h-362l-84 -193h-75l312 704h59l311 -704h-76zM373 607l-151 -346h303zM373 756q-44 0 -73 27.5t-29 69.5q0 43 29 70.5t73 27.5t73 -27.5t29 -70.5q0 -42 -29 -69.5t-73 -27.5zM373 800q23 0 38 15t15 38t-15 38t-38 15t-38 -15t-15 -38t15 -38t38 -15z
" />
    <glyph glyph-name="AE" unicode="&#xc6;" horiz-adv-x="1116" 
d="M1041 700v-68h-409v-245h385v-68h-385v-251h413v-68h-487v185h-322l-135 -185h-87l516 700h511zM286 253h272v372z" />
    <glyph glyph-name="Ccedilla" unicode="&#xc7;" horiz-adv-x="811" 
d="M416 -165h-84l60 157q-142 13 -234 114.5t-92 243.5q0 152 103.5 256t259.5 104q123 0 212.5 -66t112.5 -173h-79q-15 74 -81.5 121.5t-164.5 47.5q-125 0 -205 -82t-80 -208t80 -208t205 -82q99 0 166 48t82 122h79q-21 -100 -101.5 -165t-193.5 -74z" />
    <glyph glyph-name="Egrave" unicode="&#xc8;" horiz-adv-x="659" 
d="M588 0h-487v700h483v-68h-409v-245h385v-68h-385v-251h413v-68zM206 857l52 60l133 -124l-35 -37z" />
    <glyph glyph-name="Eacute" unicode="&#xc9;" horiz-adv-x="659" 
d="M588 0h-487v700h483v-68h-409v-245h385v-68h-385v-251h413v-68zM453 917l52 -60l-150 -101l-35 37z" />
    <glyph glyph-name="Ecircumflex" unicode="&#xca;" horiz-adv-x="659" 
d="M588 0h-487v700h483v-68h-409v-245h385v-68h-385v-251h413v-68zM317 896h78l124 -136h-75l-88 80l-88 -80h-75z" />
    <glyph glyph-name="Edieresis" unicode="&#xcb;" horiz-adv-x="659" 
d="M588 0h-487v700h483v-68h-409v-245h385v-68h-385v-251h413v-68zM201 805q0 21 13.5 34.5t35.5 13.5t35.5 -13.5t13.5 -34.5q0 -22 -13.5 -35.5t-35.5 -13.5t-35.5 13.5t-13.5 35.5zM413 805q0 21 13.5 34.5t35.5 13.5t35.5 -13.5t13.5 -34.5q0 -22 -13.5 -35.5
t-35.5 -13.5t-35.5 13.5t-13.5 35.5z" />
    <glyph glyph-name="Igrave" unicode="&#xcc;" horiz-adv-x="288" 
d="M181 700v-700h-74v700h74zM-6 857l52 60l133 -124l-35 -37z" />
    <glyph glyph-name="Iacute" unicode="&#xcd;" horiz-adv-x="288" 
d="M181 700v-700h-74v700h74zM242 917l52 -60l-150 -101l-35 37z" />
    <glyph glyph-name="Icircumflex" unicode="&#xce;" horiz-adv-x="288" 
d="M181 700v-700h-74v700h74zM105 896h78l124 -136h-75l-88 80l-88 -80h-75z" />
    <glyph glyph-name="Idieresis" unicode="&#xcf;" horiz-adv-x="288" 
d="M181 700v-700h-74v700h74zM-11 805q0 21 13.5 34.5t35.5 13.5t35.5 -13.5t13.5 -34.5q0 -22 -13.5 -35.5t-35.5 -13.5t-35.5 13.5t-13.5 35.5zM201 805q0 21 13.5 34.5t35.5 13.5t35.5 -13.5t13.5 -34.5q0 -22 -13.5 -35.5t-35.5 -13.5t-35.5 13.5t-13.5 35.5z" />
    <glyph glyph-name="Eth" unicode="&#xd0;" horiz-adv-x="771" 
d="M706 352q0 -154 -102.5 -253t-268.5 -99h-234v322h-88v59h88v319h236q165 0 267 -97.5t102 -250.5zM175 70h160q139 0 215.5 77t76.5 205q0 126 -76.5 202t-213.5 76h-162v-249h188v-59h-188v-252z" />
    <glyph glyph-name="Ntilde" unicode="&#xd1;" horiz-adv-x="789" 
d="M101 702h67l447 -585v583h73v-702h-67l-447 585v-583h-73v702zM506 857l50 -7q-21 -94 -93 -94q-28 0 -71.5 20t-62.5 20q-32 0 -45 -37l-50 6q21 95 93 95q28 0 71.5 -20t62.5 -20q32 0 45 37z" />
    <glyph glyph-name="Ograve" unicode="&#xd2;" horiz-adv-x="852" 
d="M426 710q151 0 255.5 -104.5t104.5 -255.5t-104.5 -255.5t-255.5 -104.5t-255.5 104.5t-104.5 255.5t104.5 255.5t255.5 104.5zM426 60q120 0 201 82.5t81 207.5t-81 207.5t-201 82.5t-201 -82.5t-81 -207.5t81 -207.5t201 -82.5zM276 857l52 60l133 -124l-35 -37z" />
    <glyph glyph-name="Oacute" unicode="&#xd3;" horiz-adv-x="852" 
d="M426 710q151 0 255.5 -104.5t104.5 -255.5t-104.5 -255.5t-255.5 -104.5t-255.5 104.5t-104.5 255.5t104.5 255.5t255.5 104.5zM426 60q120 0 201 82.5t81 207.5t-81 207.5t-201 82.5t-201 -82.5t-81 -207.5t81 -207.5t201 -82.5zM524 917l52 -60l-150 -101l-35 37z" />
    <glyph glyph-name="Ocircumflex" unicode="&#xd4;" horiz-adv-x="852" 
d="M426 710q151 0 255.5 -104.5t104.5 -255.5t-104.5 -255.5t-255.5 -104.5t-255.5 104.5t-104.5 255.5t104.5 255.5t255.5 104.5zM426 60q120 0 201 82.5t81 207.5t-81 207.5t-201 82.5t-201 -82.5t-81 -207.5t81 -207.5t201 -82.5zM387 896h78l124 -136h-75l-88 80
l-88 -80h-75z" />
    <glyph glyph-name="Otilde" unicode="&#xd5;" horiz-adv-x="852" 
d="M426 710q151 0 255.5 -104.5t104.5 -255.5t-104.5 -255.5t-255.5 -104.5t-255.5 104.5t-104.5 255.5t104.5 255.5t255.5 104.5zM426 60q120 0 201 82.5t81 207.5t-81 207.5t-201 82.5t-201 -82.5t-81 -207.5t81 -207.5t201 -82.5zM537 857l50 -7q-21 -94 -93 -94
q-28 0 -71.5 20t-62.5 20q-32 0 -45 -37l-50 6q21 95 93 95q28 0 71.5 -20t62.5 -20q32 0 45 37z" />
    <glyph glyph-name="Odieresis" unicode="&#xd6;" horiz-adv-x="852" 
d="M426 710q151 0 255.5 -104.5t104.5 -255.5t-104.5 -255.5t-255.5 -104.5t-255.5 104.5t-104.5 255.5t104.5 255.5t255.5 104.5zM426 60q120 0 201 82.5t81 207.5t-81 207.5t-201 82.5t-201 -82.5t-81 -207.5t81 -207.5t201 -82.5zM271 805q0 21 13.5 34.5t35.5 13.5
t35.5 -13.5t13.5 -34.5q0 -22 -13.5 -35.5t-35.5 -13.5t-35.5 13.5t-13.5 35.5zM483 805q0 21 13.5 34.5t35.5 13.5t35.5 -13.5t13.5 -34.5q0 -22 -13.5 -35.5t-35.5 -13.5t-35.5 13.5t-13.5 35.5z" />
    <glyph glyph-name="multiply" unicode="&#xd7;" horiz-adv-x="610" 
d="M133 368l48 48l124 -124l124 124l48 -48l-124 -124l124 -124l-48 -48l-124 124l-124 -124l-48 48l124 124z" />
    <glyph glyph-name="Oslash" unicode="&#xd8;" horiz-adv-x="852" 
d="M426 710q126 0 225 -78l69 74l42 -41l-69 -73q93 -101 93 -242q0 -151 -104.5 -255.5t-255.5 -104.5q-129 0 -226 78l-68 -74l-43 41l68 73q-91 102 -91 242q0 151 104.5 255.5t255.5 104.5zM426 60q119 0 200.5 83.5t81.5 206.5q0 109 -66 189l-393 -418q75 -61 177 -61
zM144 350q0 -109 65 -188l392 417q-77 61 -175 61q-119 0 -200.5 -83.5t-81.5 -206.5z" />
    <glyph glyph-name="Ugrave" unicode="&#xd9;" horiz-adv-x="769" 
d="M385 -10q-130 0 -210 76t-80 215v419h75v-407q0 -114 57.5 -173.5t158.5 -59.5q100 0 157.5 59.5t57.5 173.5v407h73v-419q0 -139 -80 -215t-209 -76zM236 857l52 60l133 -124l-35 -37z" />
    <glyph glyph-name="Uacute" unicode="&#xda;" horiz-adv-x="769" 
d="M385 -10q-130 0 -210 76t-80 215v419h75v-407q0 -114 57.5 -173.5t158.5 -59.5q100 0 157.5 59.5t57.5 173.5v407h73v-419q0 -139 -80 -215t-209 -76zM483 917l52 -60l-150 -101l-35 37z" />
    <glyph glyph-name="Ucircumflex" unicode="&#xdb;" horiz-adv-x="769" 
d="M385 -10q-130 0 -210 76t-80 215v419h75v-407q0 -114 57.5 -173.5t158.5 -59.5q100 0 157.5 59.5t57.5 173.5v407h73v-419q0 -139 -80 -215t-209 -76zM347 896h78l124 -136h-75l-88 80l-88 -80h-75z" />
    <glyph glyph-name="Udieresis" unicode="&#xdc;" horiz-adv-x="769" 
d="M385 -10q-130 0 -210 76t-80 215v419h75v-407q0 -114 57.5 -173.5t158.5 -59.5q100 0 157.5 59.5t57.5 173.5v407h73v-419q0 -139 -80 -215t-209 -76zM231 805q0 21 13.5 34.5t35.5 13.5t35.5 -13.5t13.5 -34.5q0 -22 -13.5 -35.5t-35.5 -13.5t-35.5 13.5t-13.5 35.5z
M443 805q0 21 13.5 34.5t35.5 13.5t35.5 -13.5t13.5 -34.5q0 -22 -13.5 -35.5t-35.5 -13.5t-35.5 13.5t-13.5 35.5z" />
    <glyph glyph-name="Yacute" unicode="&#xdd;" horiz-adv-x="670" 
d="M98 700l236 -357l238 357h84l-284 -426v-274h-74v274l-284 426h84zM433 917l52 -60l-150 -101l-35 37z" />
    <glyph glyph-name="Thorn" unicode="&#xde;" horiz-adv-x="690" 
d="M175 170v-170h-74v700h74v-110h221q114 0 177 -55t63 -151q0 -97 -66 -155.5t-179 -58.5h-216zM175 238h209q176 0 176 142q0 141 -176 141h-209v-283z" />
    <glyph glyph-name="germandbls" unicode="&#xdf;" horiz-adv-x="666" 
d="M77 451q0 117 70.5 188t197.5 71q109 0 174.5 -53.5t65.5 -137.5q0 -62 -31 -105t-74 -57q55 -11 95.5 -54.5t40.5 -113.5q0 -98 -63.5 -148.5t-170.5 -50.5q-85 0 -136 19v58q64 -16 135 -16q78 0 120.5 35t42.5 105q0 67 -47.5 99.5t-128.5 32.5h-56v60h43
q77 0 118.5 29t41.5 101q0 61 -46.5 99t-124.5 38q-99 0 -148 -53t-49 -151v-446h-70v451z" />
    <glyph glyph-name="agrave" unicode="&#xe0;" horiz-adv-x="572" 
d="M48 217q0 96 62.5 161t156.5 65q97 0 159 -77v68h68v-434h-68v68q-62 -76 -159 -76q-95 0 -157 64.5t-62 160.5zM120 217q0 -71 42 -117.5t110 -46.5q63 0 107.5 47t44.5 117t-44.5 117t-107.5 47q-68 0 -110 -46t-42 -118zM112 632l52 57l139 -141l-35 -34z" />
    <glyph glyph-name="aacute" unicode="&#xe1;" horiz-adv-x="572" 
d="M48 217q0 96 62.5 161t156.5 65q97 0 159 -77v68h68v-434h-68v68q-62 -76 -159 -76q-95 0 -157 64.5t-62 160.5zM120 217q0 -71 42 -117.5t110 -46.5q63 0 107.5 47t44.5 117t-44.5 117t-107.5 47q-68 0 -110 -46t-42 -118zM372 689l52 -57l-156 -118l-35 34z" />
    <glyph glyph-name="acircumflex" unicode="&#xe2;" horiz-adv-x="572" 
d="M48 217q0 96 62.5 161t156.5 65q97 0 159 -77v68h68v-434h-68v68q-62 -76 -159 -76q-95 0 -157 64.5t-62 160.5zM120 217q0 -71 42 -117.5t110 -46.5q63 0 107.5 47t44.5 117t-44.5 117t-107.5 47q-68 0 -110 -46t-42 -118zM229 660h78l120 -140h-74l-85 86l-85 -86h-74z
" />
    <glyph glyph-name="atilde" unicode="&#xe3;" horiz-adv-x="572" 
d="M48 217q0 96 62.5 161t156.5 65q97 0 159 -77v68h68v-434h-68v68q-62 -76 -159 -76q-95 0 -157 64.5t-62 160.5zM120 217q0 -71 42 -117.5t110 -46.5q63 0 107.5 47t44.5 117t-44.5 117t-107.5 47q-68 0 -110 -46t-42 -118zM425 609q-21 -94 -91 -94q-22 0 -67 20.5
t-63 20.5q-31 0 -45 -38l-48 5q21 94 91 94q22 0 67 -20.5t63 -20.5q32 0 45 37z" />
    <glyph glyph-name="adieresis" unicode="&#xe4;" horiz-adv-x="572" 
d="M48 217q0 96 62.5 161t156.5 65q97 0 159 -77v68h68v-434h-68v68q-62 -76 -159 -76q-95 0 -157 64.5t-62 160.5zM120 217q0 -71 42 -117.5t110 -46.5q63 0 107.5 47t44.5 117t-44.5 117t-107.5 47q-68 0 -110 -46t-42 -118zM317 569q0 20 13 33.5t34 13.5t34 -13t13 -34
t-12.5 -34t-34.5 -13q-21 0 -34 13t-13 34zM125 569q0 21 13 34t34 13t34 -13.5t13 -33.5q0 -21 -13 -34t-34 -13q-22 0 -34.5 13t-12.5 34z" />
    <glyph glyph-name="aring" unicode="&#xe5;" horiz-adv-x="572" 
d="M48 217q0 96 62.5 161t156.5 65q97 0 159 -77v68h68v-434h-68v68q-62 -76 -159 -76q-95 0 -157 64.5t-62 160.5zM120 217q0 -71 42 -117.5t110 -46.5q63 0 107.5 47t44.5 117t-44.5 117t-107.5 47q-68 0 -110 -46t-42 -118zM268 505q-44 0 -72 27t-28 69q0 41 28.5 68
t71.5 27t71.5 -27t28.5 -68q0 -42 -28 -69t-72 -27zM268 547q24 0 39 15t15 39t-15 39t-39 15t-39 -15t-15 -39t15 -39t39 -15z" />
    <glyph glyph-name="ae" unicode="&#xe6;" horiz-adv-x="829" 
d="M783 190h-347v-4q8 -63 49 -99t98 -36q50 0 83.5 21.5t41.5 56.5h66q-12 -60 -65 -98.5t-128 -38.5q-115 0 -174 93q-57 -92 -195 -92q-72 0 -119 30.5t-47 96.5q0 59 41.5 92t121.5 33h163q1 13 5 32q-5 50 -36.5 77.5t-85.5 27.5q-49 0 -79.5 -17t-35.5 -44h-68
q7 53 55 87t127 34q119 0 162 -79q59 80 163 80q90 0 147.5 -65.5t57.5 -160.5q0 -14 -1 -27zM377 158q-4 19 -5 32h-149q-59 0 -84 -17t-25 -53q0 -70 98 -70q70 0 115 28.5t50 79.5zM579 383q-56 0 -95.5 -36t-47.5 -100v-2h277q-7 64 -44 101t-90 37z" />
    <glyph glyph-name="ccedilla" unicode="&#xe7;" horiz-adv-x="516" 
d="M258 -163h-78l60 158q-84 11 -138 73.5t-54 148.5q0 95 65 160.5t159 65.5q88 0 143.5 -45.5t62.5 -111.5h-72q-9 41 -43.5 67.5t-88.5 26.5q-68 0 -111 -46t-43 -117t43 -116.5t112 -45.5q55 0 89 26.5t43 68.5h72q-6 -60 -52.5 -104t-120.5 -52z" />
    <glyph glyph-name="egrave" unicode="&#xe8;" horiz-adv-x="516" 
d="M265 -8q-96 0 -156.5 62.5t-60.5 162.5q0 101 59 163.5t154 62.5q97 0 153.5 -64t56.5 -162q0 -14 -1 -28h-352q7 -67 47 -102.5t102 -35.5q51 0 85.5 21.5t42.5 55.5h66q-12 -59 -66 -97.5t-130 -38.5zM260 383q-58 0 -96.5 -35.5t-45.5 -101.5h282q-7 66 -44 101.5
t-96 35.5zM107 632l52 57l139 -141l-35 -34z" />
    <glyph glyph-name="eacute" unicode="&#xe9;" horiz-adv-x="516" 
d="M265 -8q-96 0 -156.5 62.5t-60.5 162.5q0 101 59 163.5t154 62.5q97 0 153.5 -64t56.5 -162q0 -14 -1 -28h-352q7 -67 47 -102.5t102 -35.5q51 0 85.5 21.5t42.5 55.5h66q-12 -59 -66 -97.5t-130 -38.5zM260 383q-58 0 -96.5 -35.5t-45.5 -101.5h282q-7 66 -44 101.5
t-96 35.5zM367 689l52 -57l-156 -118l-35 34z" />
    <glyph glyph-name="ecircumflex" unicode="&#xea;" horiz-adv-x="516" 
d="M265 -8q-96 0 -156.5 62.5t-60.5 162.5q0 101 59 163.5t154 62.5q97 0 153.5 -64t56.5 -162q0 -14 -1 -28h-352q7 -67 47 -102.5t102 -35.5q51 0 85.5 21.5t42.5 55.5h66q-12 -59 -66 -97.5t-130 -38.5zM260 383q-58 0 -96.5 -35.5t-45.5 -101.5h282q-7 66 -44 101.5
t-96 35.5zM224 660h78l120 -140h-74l-85 86l-85 -86h-74z" />
    <glyph glyph-name="edieresis" unicode="&#xeb;" horiz-adv-x="516" 
d="M265 -8q-96 0 -156.5 62.5t-60.5 162.5q0 101 59 163.5t154 62.5q97 0 153.5 -64t56.5 -162q0 -14 -1 -28h-352q7 -67 47 -102.5t102 -35.5q51 0 85.5 21.5t42.5 55.5h66q-12 -59 -66 -97.5t-130 -38.5zM260 383q-58 0 -96.5 -35.5t-45.5 -101.5h282q-7 66 -44 101.5
t-96 35.5zM120 569q0 21 13 34t34 13t34 -13.5t13 -33.5q0 -21 -13 -34t-34 -13q-22 0 -34.5 13t-12.5 34zM312 569q0 20 13 33.5t34 13.5t34 -13t13 -34t-12.5 -34t-34.5 -13q-21 0 -34 13t-13 34z" />
    <glyph glyph-name="igrave" unicode="&#xec;" horiz-adv-x="228" 
d="M149 434v-434h-70v434h70zM-42 632l52 57l139 -141l-35 -34z" />
    <glyph glyph-name="iacute" unicode="&#xed;" horiz-adv-x="228" 
d="M149 434v-434h-70v434h70zM218 689l52 -57l-156 -118l-35 34z" />
    <glyph glyph-name="icircumflex" unicode="&#xee;" horiz-adv-x="228" 
d="M149 434v-434h-70v434h70zM75 658h78l106 -138h-73l-72 85l-72 -85h-73z" />
    <glyph glyph-name="idieresis" unicode="&#xef;" horiz-adv-x="228" 
d="M149 434v-434h-70v434h70zM-19 569q0 20 13 33.5t34 13.5t34 -13t13 -34t-12.5 -34t-34.5 -13q-21 0 -34 13t-13 34zM153 569q0 21 13 34t34 13t34 -13.5t13 -33.5q0 -21 -13 -34t-34 -13q-22 0 -34.5 13t-12.5 34z" />
    <glyph glyph-name="eth" unicode="&#xf0;" horiz-adv-x="550" 
d="M423 700l30 -49l-120 -70q169 -164 169 -347q0 -108 -65 -175t-163 -67q-95 0 -160.5 65t-65.5 159t65.5 159t160.5 65q66 0 130 -45q-41 81 -123 155l-121 -70l-30 50l103 60q-50 36 -103 62l32 52q67 -35 125 -83zM274 54q66 0 110 46t44 116t-44 116t-110 46t-110 -46
t-44 -116t44 -116t110 -46z" />
    <glyph glyph-name="ntilde" unicode="&#xf1;" horiz-adv-x="550" 
d="M298 443q81 0 131 -49t50 -130v-264h-70v242q0 65 -32.5 101t-94.5 36q-60 0 -97.5 -37.5t-37.5 -101.5v-240h-70v434h69v-70q46 79 152 79zM441 609q-21 -94 -91 -94q-22 0 -67 20.5t-63 20.5q-31 0 -45 -38l-48 5q21 94 91 94q22 0 67 -20.5t63 -20.5q32 0 45 37z" />
    <glyph glyph-name="ograve" unicode="&#xf2;" horiz-adv-x="548" 
d="M274 443q94 0 160 -65.5t66 -160.5q0 -94 -65.5 -159.5t-160.5 -65.5t-160.5 65.5t-65.5 159.5q0 95 66 160.5t160 65.5zM274 54q66 0 110 46.5t44 116.5q0 71 -44 117.5t-110 46.5t-110 -46.5t-44 -117.5q0 -70 44 -116.5t110 -46.5zM118 632l52 57l139 -141l-35 -34z
" />
    <glyph glyph-name="oacute" unicode="&#xf3;" horiz-adv-x="548" 
d="M274 443q94 0 160 -65.5t66 -160.5q0 -94 -65.5 -159.5t-160.5 -65.5t-160.5 65.5t-65.5 159.5q0 95 66 160.5t160 65.5zM274 54q66 0 110 46.5t44 116.5q0 71 -44 117.5t-110 46.5t-110 -46.5t-44 -117.5q0 -70 44 -116.5t110 -46.5zM378 689l52 -57l-156 -118l-35 34z
" />
    <glyph glyph-name="ocircumflex" unicode="&#xf4;" horiz-adv-x="548" 
d="M274 443q94 0 160 -65.5t66 -160.5q0 -94 -65.5 -159.5t-160.5 -65.5t-160.5 65.5t-65.5 159.5q0 95 66 160.5t160 65.5zM274 54q66 0 110 46.5t44 116.5q0 71 -44 117.5t-110 46.5t-110 -46.5t-44 -117.5q0 -70 44 -116.5t110 -46.5zM235 660h78l120 -140h-74l-85 86
l-85 -86h-74z" />
    <glyph glyph-name="otilde" unicode="&#xf5;" horiz-adv-x="548" 
d="M274 443q94 0 160 -65.5t66 -160.5q0 -94 -65.5 -159.5t-160.5 -65.5t-160.5 65.5t-65.5 159.5q0 95 66 160.5t160 65.5zM274 54q66 0 110 46.5t44 116.5q0 71 -44 117.5t-110 46.5t-110 -46.5t-44 -117.5q0 -70 44 -116.5t110 -46.5zM431 609q-21 -94 -91 -94
q-22 0 -67 20.5t-63 20.5q-31 0 -45 -38l-48 5q21 94 91 94q22 0 67 -20.5t63 -20.5q32 0 45 37z" />
    <glyph glyph-name="odieresis" unicode="&#xf6;" horiz-adv-x="548" 
d="M274 443q94 0 160 -65.5t66 -160.5q0 -94 -65.5 -159.5t-160.5 -65.5t-160.5 65.5t-65.5 159.5q0 95 66 160.5t160 65.5zM274 54q66 0 110 46.5t44 116.5q0 71 -44 117.5t-110 46.5t-110 -46.5t-44 -117.5q0 -70 44 -116.5t110 -46.5zM131 569q0 21 13 34t34 13t34 -13.5
t13 -33.5q0 -21 -13 -34t-34 -13q-22 0 -34.5 13t-12.5 34zM323 569q0 20 13 33.5t34 13.5t34 -13t13 -34t-12.5 -34t-34.5 -13q-21 0 -34 13t-13 34z" />
    <glyph glyph-name="divide" unicode="&#xf7;" horiz-adv-x="610" 
d="M496 277v-65h-382v65h382zM251 413q0 23 15.5 38.5t38.5 15.5q24 0 39 -15.5t15 -38.5t-15 -38.5t-39 -15.5q-23 0 -38.5 15.5t-15.5 38.5zM251 76q0 23 15.5 38.5t38.5 15.5q24 0 39 -15.5t15 -38.5t-15 -38.5t-39 -15.5q-23 0 -38.5 15.5t-15.5 38.5z" />
    <glyph glyph-name="oslash" unicode="&#xf8;" horiz-adv-x="548" 
d="M274 443q75 0 136 -45l38 40l34 -34l-37 -39q55 -65 55 -148q0 -94 -65.5 -159.5t-160.5 -65.5q-78 0 -136 44l-38 -40l-34 34l36 40q-54 62 -54 147q0 95 66 160.5t160 65.5zM274 54q66 0 110 46.5t44 116.5q0 56 -30 99l-216 -232q41 -30 92 -30zM120 217q0 -57 29 -98
l216 232q-39 30 -91 30q-66 0 -110 -46.5t-44 -117.5z" />
    <glyph glyph-name="ugrave" unicode="&#xf9;" horiz-adv-x="548" 
d="M251 -8q-81 0 -130.5 48.5t-49.5 129.5v264h70v-242q0 -65 32.5 -100.5t93.5 -35.5q60 0 97 37.5t37 101.5v239h70v-434h-69v71q-46 -79 -151 -79zM115 632l52 57l139 -141l-35 -34z" />
    <glyph glyph-name="uacute" unicode="&#xfa;" horiz-adv-x="548" 
d="M251 -8q-81 0 -130.5 48.5t-49.5 129.5v264h70v-242q0 -65 32.5 -100.5t93.5 -35.5q60 0 97 37.5t37 101.5v239h70v-434h-69v71q-46 -79 -151 -79zM375 689l52 -57l-156 -118l-35 34z" />
    <glyph glyph-name="ucircumflex" unicode="&#xfb;" horiz-adv-x="548" 
d="M251 -8q-81 0 -130.5 48.5t-49.5 129.5v264h70v-242q0 -65 32.5 -100.5t93.5 -35.5q60 0 97 37.5t37 101.5v239h70v-434h-69v71q-46 -79 -151 -79zM232 660h78l120 -140h-74l-85 86l-85 -86h-74z" />
    <glyph glyph-name="udieresis" unicode="&#xfc;" horiz-adv-x="548" 
d="M251 -8q-81 0 -130.5 48.5t-49.5 129.5v264h70v-242q0 -65 32.5 -100.5t93.5 -35.5q60 0 97 37.5t37 101.5v239h70v-434h-69v71q-46 -79 -151 -79zM320 569q0 20 13 33.5t34 13.5t34 -13t13 -34t-12.5 -34t-34.5 -13q-21 0 -34 13t-13 34zM128 569q0 21 13 34t34 13
t34 -13.5t13 -33.5q0 -21 -13 -34t-34 -13q-22 0 -34.5 13t-12.5 34z" />
    <glyph glyph-name="yacute" unicode="&#xfd;" horiz-adv-x="497" 
d="M97 434l156 -318l148 318h74l-311 -650h-74l127 262l-195 388h75zM357 689l52 -57l-156 -118l-35 34z" />
    <glyph glyph-name="thorn" unicode="&#xfe;" horiz-adv-x="572" 
d="M524 217q0 -96 -63 -160.5t-157 -64.5q-95 0 -157 75v-283h-70v916h70v-332q62 75 157 75q94 0 157 -65t63 -161zM452 217q0 72 -42 118t-110 46q-64 0 -108.5 -47t-44.5 -117t44.5 -117t108.5 -47q68 0 110 46.5t42 117.5z" />
    <glyph glyph-name="ydieresis" unicode="&#xff;" horiz-adv-x="497" 
d="M97 434l156 -318l148 318h74l-311 -650h-74l127 262l-195 388h75zM302 569q0 20 13 33.5t34 13.5t34 -13t13 -34t-12.5 -34t-34.5 -13q-21 0 -34 13t-13 34zM110 569q0 21 13 34t34 13t34 -13.5t13 -33.5q0 -21 -13 -34t-34 -13q-22 0 -34.5 13t-12.5 34z" />
    <glyph glyph-name="Amacron" unicode="&#x100;" horiz-adv-x="748" 
d="M639 0l-85 193h-362l-84 -193h-75l312 704h59l311 -704h-76zM373 607l-151 -346h303zM530 819v-59h-314v59h314z" />
    <glyph glyph-name="amacron" unicode="&#x101;" horiz-adv-x="572" 
d="M48 217q0 96 62.5 161t156.5 65q97 0 159 -77v68h68v-434h-68v68q-62 -76 -159 -76q-95 0 -157 64.5t-62 160.5zM120 217q0 -71 42 -117.5t110 -46.5q63 0 107.5 47t44.5 117t-44.5 117t-107.5 47q-68 0 -110 -46t-42 -118zM419 597v-58h-302v58h302z" />
    <glyph glyph-name="Abreve" unicode="&#x102;" horiz-adv-x="748" 
d="M639 0l-85 193h-362l-84 -193h-75l312 704h59l311 -704h-76zM373 607l-151 -346h303zM373 756q-73 0 -113 38.5t-50 92.5h65q4 -31 30 -51.5t68 -20.5t68 20.5t30 51.5h65q-10 -54 -50 -92.5t-113 -38.5z" />
    <glyph glyph-name="abreve" unicode="&#x103;" horiz-adv-x="572" 
d="M48 217q0 96 62.5 161t156.5 65q97 0 159 -77v68h68v-434h-68v68q-62 -76 -159 -76q-95 0 -157 64.5t-62 160.5zM120 217q0 -71 42 -117.5t110 -46.5q63 0 107.5 47t44.5 117t-44.5 117t-107.5 47q-68 0 -110 -46t-42 -118zM268 518q-73 0 -111 39t-48 95h62
q5 -32 31 -54.5t66 -22.5t66 22.5t31 54.5h62q-10 -56 -48 -95t-111 -39z" />
    <glyph glyph-name="Aogonek" unicode="&#x104;" horiz-adv-x="748" 
d="M716 -111l24 -41q-41 -37 -97 -37q-43 0 -70.5 19.5t-27.5 55.5q0 64 94 114l-85 193h-362l-84 -193h-75l312 704h59l311 -704q-100 -45 -100 -98q0 -30 41 -30q29 0 60 17zM373 607l-151 -346h303z" />
    <glyph glyph-name="aogonek" unicode="&#x105;" horiz-adv-x="572" 
d="M48 217q0 96 62.5 161t156.5 65q97 0 159 -77v68h68v-434q-99 -49 -99 -101q0 -30 41 -30q31 0 56 17l24 -40q-40 -36 -93 -36q-41 0 -68.5 20t-27.5 54q0 66 99 118v66q-62 -76 -159 -76q-95 0 -157 64.5t-62 160.5zM120 217q0 -71 42 -117.5t110 -46.5q63 0 107.5 47
t44.5 117t-44.5 117t-107.5 47q-68 0 -110 -46t-42 -118z" />
    <glyph glyph-name="Cacute" unicode="&#x106;" horiz-adv-x="811" 
d="M66 350q0 152 103.5 256t259.5 104q123 0 212.5 -66t112.5 -173h-79q-15 74 -81.5 121.5t-164.5 47.5q-125 0 -205 -82t-80 -208t80 -208t205 -82q99 0 166 48t82 122h79q-23 -107 -113 -173.5t-214 -66.5q-156 0 -259.5 104t-103.5 256zM527 917l52 -60l-150 -101
l-35 37z" />
    <glyph glyph-name="cacute" unicode="&#x107;" horiz-adv-x="516" 
d="M48 217q0 95 65 160.5t159 65.5q88 0 143.5 -45.5t62.5 -111.5h-72q-9 41 -43.5 67.5t-88.5 26.5q-68 0 -111 -46t-43 -117t43 -116.5t112 -45.5q55 0 89 26.5t43 68.5h72q-7 -66 -62.5 -112t-143.5 -46q-95 0 -160 65t-65 160zM376 689l52 -57l-156 -118l-35 34z" />
    <glyph glyph-name="Ccircumflex" unicode="&#x108;" horiz-adv-x="811" 
d="M66 350q0 152 103.5 256t259.5 104q123 0 212.5 -66t112.5 -173h-79q-15 74 -81.5 121.5t-164.5 47.5q-125 0 -205 -82t-80 -208t80 -208t205 -82q99 0 166 48t82 122h79q-23 -107 -113 -173.5t-214 -66.5q-156 0 -259.5 104t-103.5 256zM390 896h78l124 -136h-75l-88 80
l-88 -80h-75z" />
    <glyph glyph-name="ccircumflex" unicode="&#x109;" horiz-adv-x="516" 
d="M48 217q0 95 65 160.5t159 65.5q88 0 143.5 -45.5t62.5 -111.5h-72q-9 41 -43.5 67.5t-88.5 26.5q-68 0 -111 -46t-43 -117t43 -116.5t112 -45.5q55 0 89 26.5t43 68.5h72q-7 -66 -62.5 -112t-143.5 -46q-95 0 -160 65t-65 160zM233 660h78l120 -140h-74l-85 86l-85 -86
h-74z" />
    <glyph glyph-name="Cdotaccent" unicode="&#x10a;" horiz-adv-x="811" 
d="M66 350q0 152 103.5 256t259.5 104q123 0 212.5 -66t112.5 -173h-79q-15 74 -81.5 121.5t-164.5 47.5q-125 0 -205 -82t-80 -208t80 -208t205 -82q99 0 166 48t82 122h79q-23 -107 -113 -173.5t-214 -66.5q-156 0 -259.5 104t-103.5 256zM380 805q0 21 13.5 35t35.5 14
t35.5 -14t13.5 -35q0 -22 -13.5 -35.5t-35.5 -13.5t-35.5 13.5t-13.5 35.5z" />
    <glyph glyph-name="cdotaccent" unicode="&#x10b;" horiz-adv-x="516" 
d="M48 217q0 95 65 160.5t159 65.5q88 0 143.5 -45.5t62.5 -111.5h-72q-9 41 -43.5 67.5t-88.5 26.5q-68 0 -111 -46t-43 -117t43 -116.5t112 -45.5q55 0 89 26.5t43 68.5h72q-7 -66 -62.5 -112t-143.5 -46q-95 0 -160 65t-65 160zM225 578q0 21 12.5 34t34.5 13t34.5 -13
t12.5 -34t-13 -34t-34 -13t-34 13t-13 34z" />
    <glyph glyph-name="Ccaron" unicode="&#x10c;" horiz-adv-x="811" 
d="M66 350q0 152 103.5 256t259.5 104q123 0 212.5 -66t112.5 -173h-79q-15 74 -81.5 121.5t-164.5 47.5q-125 0 -205 -82t-80 -208t80 -208t205 -82q99 0 166 48t82 122h79q-23 -107 -113 -173.5t-214 -66.5q-156 0 -259.5 104t-103.5 256zM468 760h-78l-124 136h75l88 -79
l88 79h75z" />
    <glyph glyph-name="ccaron" unicode="&#x10d;" horiz-adv-x="516" 
d="M48 217q0 95 65 160.5t159 65.5q88 0 143.5 -45.5t62.5 -111.5h-72q-9 41 -43.5 67.5t-88.5 26.5q-68 0 -111 -46t-43 -117t43 -116.5t112 -45.5q55 0 89 26.5t43 68.5h72q-7 -66 -62.5 -112t-143.5 -46q-95 0 -160 65t-65 160zM311 520h-78l-120 140h74l85 -86l85 86h74
z" />
    <glyph glyph-name="Dcaron" unicode="&#x10e;" horiz-adv-x="771" 
d="M706 352q0 -154 -102.5 -253t-268.5 -99h-234v700h236q165 0 267 -97.5t102 -250.5zM175 70h160q139 0 215.5 77t76.5 205q0 126 -76.5 202t-213.5 76h-162v-560zM423 760h-78l-124 136h75l88 -79l88 79h75z" />
    <glyph glyph-name="dcaron" unicode="&#x10f;" horiz-adv-x="575" 
d="M48 217q0 96 62.5 161t156.5 65q95 0 157 -74v331h70v-700h-68v68q-62 -76 -159 -76q-94 0 -156.5 64.5t-62.5 160.5zM120 217q0 -71 42 -117.5t110 -46.5q63 0 107.5 47t44.5 117t-44.5 117t-107.5 47q-68 0 -110 -46t-42 -118zM557 513l9 187h71l-31 -187h-49z" />
    <glyph glyph-name="Dcroat" unicode="&#x110;" horiz-adv-x="771" 
d="M706 352q0 -154 -102.5 -253t-268.5 -99h-234v322h-88v59h88v319h236q165 0 267 -97.5t102 -250.5zM175 70h160q139 0 215.5 77t76.5 205q0 126 -76.5 202t-213.5 76h-162v-249h188v-59h-188v-252z" />
    <glyph glyph-name="dcroat" unicode="&#x111;" horiz-adv-x="572" 
d="M569 585v-57h-75v-528h-68v68q-62 -76 -159 -76q-94 0 -156.5 64.5t-62.5 160.5t62.5 161t156.5 65q95 0 157 -74v159h-203v57h203v115h70v-115h75zM120 217q0 -71 42 -117.5t110 -46.5q63 0 107.5 47t44.5 117t-44.5 117t-107.5 47q-68 0 -110 -46t-42 -118z" />
    <glyph glyph-name="Emacron" unicode="&#x112;" horiz-adv-x="659" 
d="M588 0h-487v700h483v-68h-409v-245h385v-68h-385v-251h413v-68zM513 819v-59h-314v59h314z" />
    <glyph glyph-name="emacron" unicode="&#x113;" horiz-adv-x="516" 
d="M265 -8q-96 0 -156.5 62.5t-60.5 162.5q0 101 59 163.5t154 62.5q97 0 153.5 -64t56.5 -162q0 -14 -1 -28h-352q7 -67 47 -102.5t102 -35.5q51 0 85.5 21.5t42.5 55.5h66q-12 -59 -66 -97.5t-130 -38.5zM260 383q-58 0 -96.5 -35.5t-45.5 -101.5h282q-7 66 -44 101.5
t-96 35.5zM414 597v-58h-302v58h302z" />
    <glyph glyph-name="Ebreve" unicode="&#x114;" horiz-adv-x="659" 
d="M588 0h-487v700h483v-68h-409v-245h385v-68h-385v-251h413v-68zM356 756q-73 0 -113 38.5t-50 92.5h65q4 -31 30 -51.5t68 -20.5t68 20.5t30 51.5h65q-10 -54 -50 -92.5t-113 -38.5z" />
    <glyph glyph-name="ebreve" unicode="&#x115;" horiz-adv-x="516" 
d="M265 -8q-96 0 -156.5 62.5t-60.5 162.5q0 101 59 163.5t154 62.5q97 0 153.5 -64t56.5 -162q0 -14 -1 -28h-352q7 -67 47 -102.5t102 -35.5q51 0 85.5 21.5t42.5 55.5h66q-12 -59 -66 -97.5t-130 -38.5zM260 383q-58 0 -96.5 -35.5t-45.5 -101.5h282q-7 66 -44 101.5
t-96 35.5zM263 518q-73 0 -111 39t-48 95h62q5 -32 31 -54.5t66 -22.5t66 22.5t31 54.5h62q-10 -56 -48 -95t-111 -39z" />
    <glyph glyph-name="Edotaccent" unicode="&#x116;" horiz-adv-x="659" 
d="M588 0h-487v700h483v-68h-409v-245h385v-68h-385v-251h413v-68zM307 805q0 21 13.5 35t35.5 14t35.5 -14t13.5 -35q0 -22 -13.5 -35.5t-35.5 -13.5t-35.5 13.5t-13.5 35.5z" />
    <glyph glyph-name="edotaccent" unicode="&#x117;" horiz-adv-x="516" 
d="M265 -8q-96 0 -156.5 62.5t-60.5 162.5q0 101 59 163.5t154 62.5q97 0 153.5 -64t56.5 -162q0 -14 -1 -28h-352q7 -67 47 -102.5t102 -35.5q51 0 85.5 21.5t42.5 55.5h66q-12 -59 -66 -97.5t-130 -38.5zM260 383q-58 0 -96.5 -35.5t-45.5 -101.5h282q-7 66 -44 101.5
t-96 35.5zM216 578q0 21 12.5 34t34.5 13t34.5 -13t12.5 -34t-13 -34t-34 -13t-34 13t-13 34z" />
    <glyph glyph-name="Eogonek" unicode="&#x118;" horiz-adv-x="659" 
d="M565 -111l24 -41q-41 -37 -97 -37q-43 0 -70.5 19.5t-27.5 55.5q0 64 94 114h-387v700h483v-68h-409v-245h385v-68h-385v-251h413v-68h-24q-100 -45 -100 -98q0 -30 41 -30q29 0 60 17z" />
    <glyph glyph-name="eogonek" unicode="&#x119;" horiz-adv-x="516" 
d="M265 -8q-96 0 -156.5 62.5t-60.5 162.5q0 101 59 163.5t154 62.5q97 0 153.5 -64t56.5 -162q0 -14 -1 -28h-352q7 -67 47 -102.5t102 -35.5q51 0 85.5 21.5t42.5 55.5h66q-14 -69 -82 -107l1 -1q-50 -26 -73.5 -49t-23.5 -52q0 -23 17 -36.5t44 -13.5q35 0 65 28l35 -43
q-46 -44 -107 -44q-53 0 -86.5 27t-33.5 68q0 51 49 87h-1zM260 383q-58 0 -96.5 -35.5t-45.5 -101.5h282q-7 66 -44 101.5t-96 35.5z" />
    <glyph glyph-name="Ecaron" unicode="&#x11a;" horiz-adv-x="659" 
d="M588 0h-487v700h483v-68h-409v-245h385v-68h-385v-251h413v-68zM395 760h-78l-124 136h75l88 -79l88 79h75z" />
    <glyph glyph-name="ecaron" unicode="&#x11b;" horiz-adv-x="516" 
d="M265 -8q-96 0 -156.5 62.5t-60.5 162.5q0 101 59 163.5t154 62.5q97 0 153.5 -64t56.5 -162q0 -14 -1 -28h-352q7 -67 47 -102.5t102 -35.5q51 0 85.5 21.5t42.5 55.5h66q-12 -59 -66 -97.5t-130 -38.5zM260 383q-58 0 -96.5 -35.5t-45.5 -101.5h282q-7 66 -44 101.5
t-96 35.5zM302 520h-78l-120 140h74l85 -86l85 86h74z" />
    <glyph glyph-name="Gcircumflex" unicode="&#x11c;" horiz-adv-x="828" 
d="M426 60q116 0 188 70.5t76 176.5h-257v68h331q2 -17 2 -41q0 -154 -94.5 -249t-245.5 -95q-157 0 -258.5 103.5t-101.5 256.5q0 151 103.5 255.5t259.5 104.5q120 0 208 -64.5t110 -167.5h-78q-15 69 -81 115.5t-159 46.5q-125 0 -205 -82.5t-80 -207.5q0 -126 78 -208
t204 -82zM384 896h78l124 -136h-75l-88 80l-88 -80h-75z" />
    <glyph glyph-name="gcircumflex" unicode="&#x11d;" horiz-adv-x="574" 
d="M427 12v59q-63 -75 -159 -75q-95 0 -157.5 65.5t-62.5 157.5q0 93 62.5 158.5t157.5 65.5q96 0 159 -75v66h69v-434q0 -100 -61 -157t-162 -57q-92 0 -149 42.5t-63 105.5h70q7 -38 44 -62.5t96 -24.5q75 0 115.5 42t40.5 123zM426 219q0 67 -44.5 114.5t-108.5 47.5
q-69 0 -111.5 -46.5t-42.5 -115.5q0 -68 42.5 -114.5t111.5 -46.5q64 0 108.5 47.5t44.5 113.5zM230 660h78l120 -140h-74l-85 86l-85 -86h-74z" />
    <glyph glyph-name="Gbreve" unicode="&#x11e;" horiz-adv-x="828" 
d="M426 60q116 0 188 70.5t76 176.5h-257v68h331q2 -17 2 -41q0 -154 -94.5 -249t-245.5 -95q-157 0 -258.5 103.5t-101.5 256.5q0 151 103.5 255.5t259.5 104.5q120 0 208 -64.5t110 -167.5h-78q-15 69 -81 115.5t-159 46.5q-125 0 -205 -82.5t-80 -207.5q0 -126 78 -208
t204 -82zM423 756q-73 0 -113 38.5t-50 92.5h65q4 -31 30 -51.5t68 -20.5t68 20.5t30 51.5h65q-10 -54 -50 -92.5t-113 -38.5z" />
    <glyph glyph-name="gbreve" unicode="&#x11f;" horiz-adv-x="574" 
d="M427 12v59q-63 -75 -159 -75q-95 0 -157.5 65.5t-62.5 157.5q0 93 62.5 158.5t157.5 65.5q96 0 159 -75v66h69v-434q0 -100 -61 -157t-162 -57q-92 0 -149 42.5t-63 105.5h70q7 -38 44 -62.5t96 -24.5q75 0 115.5 42t40.5 123zM426 219q0 67 -44.5 114.5t-108.5 47.5
q-69 0 -111.5 -46.5t-42.5 -115.5q0 -68 42.5 -114.5t111.5 -46.5q64 0 108.5 47.5t44.5 113.5zM269 518q-73 0 -111 39t-48 95h62q5 -32 31 -54.5t66 -22.5t66 22.5t31 54.5h62q-10 -56 -48 -95t-111 -39z" />
    <glyph glyph-name="Gdotaccent" unicode="&#x120;" horiz-adv-x="828" 
d="M426 60q116 0 188 70.5t76 176.5h-257v68h331q2 -17 2 -41q0 -154 -94.5 -249t-245.5 -95q-157 0 -258.5 103.5t-101.5 256.5q0 151 103.5 255.5t259.5 104.5q120 0 208 -64.5t110 -167.5h-78q-15 69 -81 115.5t-159 46.5q-125 0 -205 -82.5t-80 -207.5q0 -126 78 -208
t204 -82zM374 805q0 21 13.5 35t35.5 14t35.5 -14t13.5 -35q0 -22 -13.5 -35.5t-35.5 -13.5t-35.5 13.5t-13.5 35.5z" />
    <glyph glyph-name="gdotaccent" unicode="&#x121;" horiz-adv-x="574" 
d="M427 12v59q-63 -75 -159 -75q-95 0 -157.5 65.5t-62.5 157.5q0 93 62.5 158.5t157.5 65.5q96 0 159 -75v66h69v-434q0 -100 -61 -157t-162 -57q-92 0 -149 42.5t-63 105.5h70q7 -38 44 -62.5t96 -24.5q75 0 115.5 42t40.5 123zM426 219q0 67 -44.5 114.5t-108.5 47.5
q-69 0 -111.5 -46.5t-42.5 -115.5q0 -68 42.5 -114.5t111.5 -46.5q64 0 108.5 47.5t44.5 113.5zM222 578q0 21 12.5 34t34.5 13t34.5 -13t12.5 -34t-13 -34t-34 -13t-34 13t-13 34z" />
    <glyph glyph-name="Gcommaaccent" unicode="&#x122;" horiz-adv-x="828" 
d="M426 60q116 0 188 70.5t76 176.5h-257v68h331q2 -17 2 -41q0 -154 -94.5 -249t-245.5 -95q-157 0 -258.5 103.5t-101.5 256.5q0 151 103.5 255.5t259.5 104.5q120 0 208 -64.5t110 -167.5h-78q-15 69 -81 115.5t-159 46.5q-125 0 -205 -82.5t-80 -207.5q0 -126 78 -208
t204 -82zM469 -44l-40 -167h-60l22 167h78z" />
    <glyph glyph-name="gcommaaccent" unicode="&#x123;" horiz-adv-x="574" 
d="M427 12v59q-63 -75 -159 -75q-95 0 -157.5 65.5t-62.5 157.5q0 93 62.5 158.5t157.5 65.5q96 0 159 -75v66h69v-434q0 -100 -61 -157t-162 -57q-92 0 -149 42.5t-63 105.5h70q7 -38 44 -62.5t96 -24.5q75 0 115.5 42t40.5 123zM426 219q0 67 -44.5 114.5t-108.5 47.5
q-69 0 -111.5 -46.5t-42.5 -115.5q0 -68 42.5 -114.5t111.5 -46.5q64 0 108.5 47.5t44.5 113.5zM232 520l38 164h58l-22 -164h-74z" />
    <glyph glyph-name="Hcircumflex" unicode="&#x124;" horiz-adv-x="777" 
d="M175 388h427v312h74v-700h-74v318h-427v-318h-74v700h74v-312zM349 896h78l124 -136h-75l-88 80l-88 -80h-75z" />
    <glyph glyph-name="hcircumflex" unicode="&#x125;" horiz-adv-x="550" 
d="M298 443q81 0 131 -49t50 -130v-264h-70v242q0 65 -32.5 101t-94.5 36q-60 0 -97.5 -37.5t-37.5 -101.5v-240h-70v700h70v-335q47 78 151 78zM247 896h78l124 -136h-75l-88 80l-88 -80h-75z" />
    <glyph glyph-name="Hbar" unicode="&#x126;" horiz-adv-x="777" 
d="M762 586v-60h-86v-526h-74v318h-427v-318h-74v526h-87v60h87v114h74v-114h427v114h74v-114h86zM175 388h427v138h-427v-138z" />
    <glyph glyph-name="hbar" unicode="&#x127;" horiz-adv-x="550" 
d="M350 585v-57h-203v-163q47 78 151 78q81 0 131 -49t50 -130v-264h-70v242q0 65 -32.5 101t-94.5 36q-60 0 -97.5 -37.5t-37.5 -101.5v-240h-70v528h-75v57h75v115h70v-115h203z" />
    <glyph glyph-name="Itilde" unicode="&#x128;" horiz-adv-x="288" 
d="M181 700v-700h-74v700h74zM255 857l50 -7q-21 -94 -93 -94q-28 0 -71.5 20t-62.5 20q-32 0 -45 -37l-50 6q21 95 93 95q28 0 71.5 -20t62.5 -20q32 0 45 37z" />
    <glyph glyph-name="itilde" unicode="&#x129;" horiz-adv-x="228" 
d="M149 434v-434h-70v434h70zM254 609q-20 -91 -84 -91q-20 0 -57.5 17.5t-52.5 17.5q-25 0 -38 -35l-48 5q20 91 84 91q20 0 57.5 -17.5t52.5 -17.5q26 0 38 34z" />
    <glyph glyph-name="Imacron" unicode="&#x12a;" horiz-adv-x="288" 
d="M181 700v-700h-74v700h74zM301 819v-59h-314v59h314z" />
    <glyph glyph-name="imacron" unicode="&#x12b;" horiz-adv-x="228" 
d="M149 434v-434h-70v434h70zM243 597v-57h-258v57h258z" />
    <glyph glyph-name="Ibreve" unicode="&#x12c;" horiz-adv-x="288" 
d="M181 700v-700h-74v700h74zM144 756q-73 0 -113 38.5t-50 92.5h65q4 -31 30 -51.5t68 -20.5t68 20.5t30 51.5h65q-10 -54 -50 -92.5t-113 -38.5z" />
    <glyph glyph-name="ibreve" unicode="&#x12d;" horiz-adv-x="228" 
d="M149 434v-434h-70v434h70zM114 516q-66 0 -102.5 39.5t-42.5 92.5h62q3 -31 24 -53t59 -22t59 22t24 53h62q-6 -53 -42.5 -92.5t-102.5 -39.5z" />
    <glyph glyph-name="Iogonek" unicode="&#x12e;" horiz-adv-x="288" 
d="M198 -114l24 -42q-40 -33 -91 -33q-40 0 -69 21t-29 58q0 67 74 110v700h74v-700q-78 -35 -78 -94q0 -34 41 -34q30 0 54 14z" />
    <glyph glyph-name="iogonek" unicode="&#x12f;" horiz-adv-x="228" 
d="M180 -115l23 -39q-36 -36 -88 -36q-43 0 -70 22.5t-27 59.5q0 61 61 108v434h70v-434q-39 -21 -53.5 -42t-14.5 -48q0 -42 45 -42q30 0 54 17zM67 578q0 21 13 34t34 13q22 0 34.5 -13t12.5 -34t-13 -34t-34 -13t-34 13.5t-13 33.5z" />
    <glyph glyph-name="Idotaccent" unicode="&#x130;" horiz-adv-x="288" 
d="M181 700v-700h-74v700h74zM95 805q0 21 13.5 35t35.5 14t35.5 -14t13.5 -35q0 -22 -13.5 -35.5t-35.5 -13.5t-35.5 13.5t-13.5 35.5z" />
    <glyph glyph-name="dotlessi" unicode="&#x131;" horiz-adv-x="228" 
d="M149 434v-434h-70v434h70z" />
    <glyph glyph-name="IJ" unicode="&#x132;" horiz-adv-x="876" 
d="M181 700v-700h-74v700h74zM785 700v-457q0 -122 -63.5 -187.5t-168.5 -65.5q-101 0 -159 46.5t-68 131.5h72q17 -108 153 -108q76 0 118 48.5t42 145.5v446h74z" />
    <glyph glyph-name="ij" unicode="&#x133;" horiz-adv-x="461" 
d="M149 434v-434h-70v434h70zM67 578q0 21 13 34t34 13q22 0 34.5 -13t12.5 -34t-13 -34t-34 -13t-34 13.5t-13 33.5zM311 -61v495h70v-505q0 -151 -129 -151q-24 0 -54 6v61q24 -3 40 -3q40 0 56.5 23.5t16.5 73.5zM299 578q0 21 13 34t34 13q22 0 34.5 -13t12.5 -34
t-13 -34t-34 -13t-34 13.5t-13 33.5z" />
    <glyph glyph-name="Jcircumflex" unicode="&#x134;" horiz-adv-x="589" 
d="M497 700v-457q0 -122 -63.5 -187.5t-168.5 -65.5q-101 0 -159 46.5t-68 131.5h72q17 -108 153 -108q76 0 118 48.5t42 145.5v446h74zM421 896h78l124 -136h-75l-88 80l-88 -80h-75z" />
    <glyph glyph-name="jcircumflex" unicode="&#x135;" horiz-adv-x="232" 
d="M83 -61v495h70v-505q0 -151 -129 -151q-24 0 -54 6v61q24 -3 40 -3q40 0 56.5 23.5t16.5 73.5zM79 660h78l120 -140h-74l-85 86l-85 -86h-74z" />
    <glyph glyph-name="Kcommaaccent" unicode="&#x136;" horiz-adv-x="704" 
d="M667 700l-309 -316l325 -384h-92l-281 334l-135 -139v-195h-74v700h74v-408l394 408h98zM411 -44l-40 -167h-60l22 167h78z" />
    <glyph glyph-name="kcommaaccent" unicode="&#x137;" horiz-adv-x="487" 
d="M462 434l-197 -178l201 -256h-83l-166 213l-70 -63v-150h-70v700h70v-470l223 204h92zM304 -44l-38 -164h-58l22 164h74z" />
    <glyph glyph-name="kgreenlandic" unicode="&#x138;" horiz-adv-x="487" 
d="M462 434l-197 -178l201 -256h-83l-166 213l-70 -63v-150h-70v434h70v-204l223 204h92z" />
    <glyph glyph-name="Lacute" unicode="&#x139;" horiz-adv-x="604" 
d="M572 0h-471v700h74v-630h397v-70zM236 917l52 -60l-150 -101l-35 37z" />
    <glyph glyph-name="lacute" unicode="&#x13a;" horiz-adv-x="228" 
d="M149 700v-700h-70v700h70zM212 907l52 -60l-150 -101l-35 37z" />
    <glyph glyph-name="Lcommaaccent" unicode="&#x13b;" horiz-adv-x="604" 
d="M572 0h-471v700h74v-630h397v-70zM395 -44l-40 -167h-60l22 167h78z" />
    <glyph glyph-name="lcommaaccent" unicode="&#x13c;" horiz-adv-x="228" 
d="M149 700v-700h-70v700h70zM151 -44l-38 -164h-58l22 164h74z" />
    <glyph glyph-name="Lcaron" unicode="&#x13d;" horiz-adv-x="604" 
d="M572 0h-471v700h74v-630h397v-70zM297 512l9 188h75l-31 -188h-53z" />
    <glyph glyph-name="lcaron" unicode="&#x13e;" horiz-adv-x="231" 
d="M149 700v-700h-70v700h70zM212 513l9 187h71l-31 -187h-49z" />
    <glyph glyph-name="Ldot" unicode="&#x13f;" horiz-adv-x="604" 
d="M572 0h-471v700h74v-630h397v-70zM345 350q0 24 15.5 39.5t39.5 15.5q25 0 40 -15.5t15 -39.5t-15.5 -39.5t-39.5 -15.5t-39.5 16t-15.5 39z" />
    <glyph glyph-name="ldot" unicode="&#x140;" horiz-adv-x="304" 
d="M149 700v-700h-70v700h70zM207 243q0 24 15.5 39.5t39.5 15.5q25 0 40 -15.5t15 -39.5t-15.5 -39.5t-39.5 -15.5t-39.5 16t-15.5 39z" />
    <glyph glyph-name="Lslash" unicode="&#x141;" horiz-adv-x="608" 
d="M366 468l30 -51l-217 -124v-223h397v-70h-471v251l-60 -34l-30 50l90 51v382h74v-339z" />
    <glyph glyph-name="lslash" unicode="&#x142;" horiz-adv-x="287" 
d="M243 438l29 -50l-93 -54v-334h-70v294l-65 -37l-29 49l94 54v340h70v-299z" />
    <glyph glyph-name="Nacute" unicode="&#x143;" horiz-adv-x="789" 
d="M101 702h67l447 -585v583h73v-702h-67l-447 585v-583h-73v702zM493 917l52 -60l-150 -101l-35 37z" />
    <glyph glyph-name="nacute" unicode="&#x144;" horiz-adv-x="550" 
d="M298 443q81 0 131 -49t50 -130v-264h-70v242q0 65 -32.5 101t-94.5 36q-60 0 -97.5 -37.5t-37.5 -101.5v-240h-70v434h69v-70q46 79 152 79zM388 689l52 -57l-156 -118l-35 34z" />
    <glyph glyph-name="Ncommaaccent" unicode="&#x145;" horiz-adv-x="789" 
d="M101 702h67l447 -585v583h73v-702h-67l-447 585v-583h-73v702zM434 -44l-40 -167h-60l22 167h78z" />
    <glyph glyph-name="ncommaaccent" unicode="&#x146;" horiz-adv-x="550" 
d="M298 443q81 0 131 -49t50 -130v-264h-70v242q0 65 -32.5 101t-94.5 36q-60 0 -97.5 -37.5t-37.5 -101.5v-240h-70v434h69v-70q46 79 152 79zM317 -44l-38 -164h-58l22 164h74z" />
    <glyph glyph-name="Ncaron" unicode="&#x147;" horiz-adv-x="789" 
d="M101 702h67l447 -585v583h73v-702h-67l-447 585v-583h-73v702zM434 760h-78l-124 136h75l88 -79l88 79h75z" />
    <glyph glyph-name="ncaron" unicode="&#x148;" horiz-adv-x="550" 
d="M298 443q81 0 131 -49t50 -130v-264h-70v242q0 65 -32.5 101t-94.5 36q-60 0 -97.5 -37.5t-37.5 -101.5v-240h-70v434h69v-70q46 79 152 79zM323 520h-78l-120 140h74l85 -86l85 86h74z" />
    <glyph glyph-name="napostrophe" unicode="&#x149;" horiz-adv-x="704" 
d="M452 443q81 0 131 -49t50 -130v-264h-70v242q0 65 -32.5 101t-94.5 36q-60 0 -97.5 -37.5t-37.5 -101.5v-240h-70v434h69v-70q46 79 152 79zM41 423l50 287h89l-77 -287h-62z" />
    <glyph glyph-name="Eng" unicode="&#x14a;" horiz-adv-x="789" 
d="M615 6l-441 577v-583h-73v702h67l447 -585v583h73v-762q0 -77 -40 -118.5t-111 -41.5q-55 0 -95 11v61q34 -8 77 -8q50 0 73 26.5t23 79.5v58z" />
    <glyph glyph-name="eng" unicode="&#x14b;" horiz-adv-x="550" 
d="M409 -61v303q0 65 -32.5 101t-94.5 36q-60 0 -97.5 -37.5t-37.5 -101.5v-240h-70v434h69v-70q46 79 152 79q81 0 131 -49t50 -130v-335q0 -151 -129 -151q-25 0 -55 6v61q24 -3 40 -3q40 0 57 23.5t17 73.5z" />
    <glyph glyph-name="Omacron" unicode="&#x14c;" horiz-adv-x="852" 
d="M426 710q151 0 255.5 -104.5t104.5 -255.5t-104.5 -255.5t-255.5 -104.5t-255.5 104.5t-104.5 255.5t104.5 255.5t255.5 104.5zM426 60q120 0 201 82.5t81 207.5t-81 207.5t-201 82.5t-201 -82.5t-81 -207.5t81 -207.5t201 -82.5zM583 819v-59h-314v59h314z" />
    <glyph glyph-name="omacron" unicode="&#x14d;" horiz-adv-x="548" 
d="M274 443q94 0 160 -65.5t66 -160.5q0 -94 -65.5 -159.5t-160.5 -65.5t-160.5 65.5t-65.5 159.5q0 95 66 160.5t160 65.5zM274 54q66 0 110 46.5t44 116.5q0 71 -44 117.5t-110 46.5t-110 -46.5t-44 -117.5q0 -70 44 -116.5t110 -46.5zM425 597v-58h-302v58h302z" />
    <glyph glyph-name="Obreve" unicode="&#x14e;" horiz-adv-x="852" 
d="M426 710q151 0 255.5 -104.5t104.5 -255.5t-104.5 -255.5t-255.5 -104.5t-255.5 104.5t-104.5 255.5t104.5 255.5t255.5 104.5zM426 60q120 0 201 82.5t81 207.5t-81 207.5t-201 82.5t-201 -82.5t-81 -207.5t81 -207.5t201 -82.5zM426 756q-73 0 -113 38.5t-50 92.5h65
q4 -31 30 -51.5t68 -20.5t68 20.5t30 51.5h65q-10 -54 -50 -92.5t-113 -38.5z" />
    <glyph glyph-name="obreve" unicode="&#x14f;" horiz-adv-x="548" 
d="M274 443q94 0 160 -65.5t66 -160.5q0 -94 -65.5 -159.5t-160.5 -65.5t-160.5 65.5t-65.5 159.5q0 95 66 160.5t160 65.5zM274 54q66 0 110 46.5t44 116.5q0 71 -44 117.5t-110 46.5t-110 -46.5t-44 -117.5q0 -70 44 -116.5t110 -46.5zM274 518q-73 0 -111 39t-48 95h62
q5 -32 31 -54.5t66 -22.5t66 22.5t31 54.5h62q-10 -56 -48 -95t-111 -39z" />
    <glyph glyph-name="Ohungarumlaut" unicode="&#x150;" horiz-adv-x="852" 
d="M426 710q151 0 255.5 -104.5t104.5 -255.5t-104.5 -255.5t-255.5 -104.5t-255.5 104.5t-104.5 255.5t104.5 255.5t255.5 104.5zM426 60q120 0 201 82.5t81 207.5t-81 207.5t-201 82.5t-201 -82.5t-81 -207.5t81 -207.5t201 -82.5zM443 884l-100 -128l-45 24l75 146z
M627 884l-99 -128l-46 24l75 146z" />
    <glyph glyph-name="ohungarumlaut" unicode="&#x151;" horiz-adv-x="548" 
d="M274 443q94 0 160 -65.5t66 -160.5q0 -94 -65.5 -159.5t-160.5 -65.5t-160.5 65.5t-65.5 159.5q0 95 66 160.5t160 65.5zM274 54q66 0 110 46.5t44 116.5q0 71 -44 117.5t-110 46.5t-110 -46.5t-44 -117.5q0 -70 44 -116.5t110 -46.5zM303 659l-107 -141l-43 23l84 159z
M476 659l-106 -141l-44 23l85 159z" />
    <glyph glyph-name="OE" unicode="&#x152;" horiz-adv-x="1136" 
d="M1064 0h-628q-165 0 -267.5 99t-102.5 253q0 153 102 250.5t266 97.5h626v-68h-408v-245h384v-68h-384v-251h412v-68zM437 70h140v560h-142q-138 0 -214.5 -76t-76.5 -202q0 -128 77 -205t216 -77z" />
    <glyph glyph-name="oe" unicode="&#x153;" horiz-adv-x="895" 
d="M646 -8q-60 0 -108.5 27.5t-76.5 75.5q-30 -48 -79 -75.5t-108 -27.5q-95 0 -160.5 65.5t-65.5 159.5q0 95 66 160.5t160 65.5q58 0 107.5 -28t79.5 -76q28 48 76 76t105 28q92 0 149.5 -65.5t57.5 -160.5q0 -14 -1 -28h-351q8 -66 49.5 -102t101.5 -36q53 0 85 21t40 57
h66q-12 -60 -64 -98.5t-129 -38.5zM274 54q66 0 110 46.5t44 116.5q0 71 -44 117.5t-110 46.5t-110 -46.5t-44 -117.5q0 -70 44 -116.5t110 -46.5zM641 383q-54 0 -94.5 -36.5t-48.5 -100.5h280q-7 64 -45 100.5t-92 36.5z" />
    <glyph glyph-name="Racute" unicode="&#x154;" horiz-adv-x="712" 
d="M175 264v-264h-74v700h307q115 0 178.5 -57t63.5 -158q0 -90 -54.5 -148.5t-149.5 -70.5l210 -266h-86l-207 264h-188zM175 332h221q86 0 132 38.5t46 111.5q0 149 -178 149h-221v-299zM457 917l52 -60l-150 -101l-35 37z" />
    <glyph glyph-name="racute" unicode="&#x155;" horiz-adv-x="356" 
d="M329 434v-63q-14 3 -35 3q-75 0 -111 -42t-36 -116v-216h-70v434h69v-79q47 83 149 83q18 0 34 -4zM312 689l52 -57l-156 -118l-35 34z" />
    <glyph glyph-name="Rcommaaccent" unicode="&#x156;" horiz-adv-x="712" 
d="M175 264v-264h-74v700h307q115 0 178.5 -57t63.5 -158q0 -90 -54.5 -148.5t-149.5 -70.5l210 -266h-86l-207 264h-188zM175 332h221q86 0 132 38.5t46 111.5q0 149 -178 149h-221v-299zM393 -44l-40 -167h-60l22 167h78z" />
    <glyph glyph-name="rcommaaccent" unicode="&#x157;" horiz-adv-x="356" 
d="M329 434v-63q-14 3 -35 3q-75 0 -111 -42t-36 -116v-216h-70v434h69v-79q47 83 149 83q18 0 34 -4zM149 -44l-38 -164h-58l22 164h74z" />
    <glyph glyph-name="Rcaron" unicode="&#x158;" horiz-adv-x="712" 
d="M175 264v-264h-74v700h307q115 0 178.5 -57t63.5 -158q0 -90 -54.5 -148.5t-149.5 -70.5l210 -266h-86l-207 264h-188zM175 332h221q86 0 132 38.5t46 111.5q0 149 -178 149h-221v-299zM398 760h-78l-124 136h75l88 -79l88 79h75z" />
    <glyph glyph-name="rcaron" unicode="&#x159;" horiz-adv-x="356" 
d="M329 434v-63q-14 3 -35 3q-75 0 -111 -42t-36 -116v-216h-70v434h69v-79q47 83 149 83q18 0 34 -4zM247 520h-78l-120 140h74l85 -86l85 86h74z" />
    <glyph glyph-name="Sacute" unicode="&#x15a;" horiz-adv-x="634" 
d="M318 58q80 0 128 34.5t48 93.5q0 89 -128 119l-100 24q-98 23 -147.5 68.5t-49.5 122.5q0 88 64.5 138.5t173.5 50.5q102 0 165 -44.5t74 -121.5h-72q-8 47 -52 73t-116 26q-76 0 -118.5 -30.5t-42.5 -89.5q0 -49 36 -78t113 -47l99 -24q93 -22 134.5 -66t41.5 -117
q0 -94 -70 -146.5t-180 -52.5q-113 0 -185 47.5t-82 132.5h74q8 -54 59 -83.5t133 -29.5zM405 917l52 -60l-150 -101l-35 37z" />
    <glyph glyph-name="sacute" unicode="&#x15b;" horiz-adv-x="414" 
d="M211 50q45 0 73 18.5t28 49.5q0 28 -19.5 42.5t-68.5 25.5l-48 10q-65 15 -97 43.5t-32 77.5q0 56 44 90.5t112 34.5q75 0 117 -34.5t48 -84.5h-65q-4 27 -30 44t-70 17q-39 0 -65 -17.5t-26 -46.5q0 -30 20 -43t65 -23l49 -11q131 -28 131 -123q0 -58 -46.5 -92.5
t-123.5 -34.5q-80 0 -124 35t-51 88h65q5 -30 35.5 -48t78.5 -18zM307 689l52 -57l-156 -118l-35 34z" />
    <glyph glyph-name="Scircumflex" unicode="&#x15c;" horiz-adv-x="634" 
d="M318 58q80 0 128 34.5t48 93.5q0 89 -128 119l-100 24q-98 23 -147.5 68.5t-49.5 122.5q0 88 64.5 138.5t173.5 50.5q102 0 165 -44.5t74 -121.5h-72q-8 47 -52 73t-116 26q-76 0 -118.5 -30.5t-42.5 -89.5q0 -49 36 -78t113 -47l99 -24q93 -22 134.5 -66t41.5 -117
q0 -94 -70 -146.5t-180 -52.5q-113 0 -185 47.5t-82 132.5h74q8 -54 59 -83.5t133 -29.5zM268 896h78l124 -136h-75l-88 80l-88 -80h-75z" />
    <glyph glyph-name="scircumflex" unicode="&#x15d;" horiz-adv-x="414" 
d="M211 50q45 0 73 18.5t28 49.5q0 28 -19.5 42.5t-68.5 25.5l-48 10q-65 15 -97 43.5t-32 77.5q0 56 44 90.5t112 34.5q75 0 117 -34.5t48 -84.5h-65q-4 27 -30 44t-70 17q-39 0 -65 -17.5t-26 -46.5q0 -30 20 -43t65 -23l49 -11q131 -28 131 -123q0 -58 -46.5 -92.5
t-123.5 -34.5q-80 0 -124 35t-51 88h65q5 -30 35.5 -48t78.5 -18zM164 660h78l120 -140h-74l-85 86l-85 -86h-74z" />
    <glyph glyph-name="Scedilla" unicode="&#x15e;" horiz-adv-x="634" 
d="M305 -165h-84l61 158q-99 7 -160 53.5t-70 124.5h74q8 -54 59 -83.5t133 -29.5q80 0 128 34.5t48 93.5q0 89 -128 119l-100 24q-98 23 -147.5 68.5t-49.5 122.5q0 88 64.5 138.5t173.5 50.5q102 0 165 -44.5t74 -121.5h-72q-8 47 -52 73t-116 26q-76 0 -118.5 -30.5
t-42.5 -89.5q0 -49 36 -78t113 -47l99 -24q93 -22 134.5 -66t41.5 -117q0 -87 -60.5 -139t-158.5 -59z" />
    <glyph glyph-name="scedilla" unicode="&#x15f;" horiz-adv-x="414" 
d="M194 -163h-78l60 158q-65 6 -101.5 39.5t-42.5 81.5h65q5 -30 35.5 -48t78.5 -18q45 0 73 18.5t28 49.5q0 28 -19.5 42.5t-68.5 25.5l-48 10q-65 15 -97 43.5t-32 77.5q0 56 44 90.5t112 34.5q75 0 117 -34.5t48 -84.5h-65q-4 27 -30 44t-70 17q-39 0 -65 -17.5
t-26 -46.5q0 -30 20 -43t65 -23l49 -11q131 -28 131 -123q0 -51 -36 -83.5t-99 -40.5z" />
    <glyph glyph-name="Scaron" unicode="&#x160;" horiz-adv-x="634" 
d="M318 58q80 0 128 34.5t48 93.5q0 89 -128 119l-100 24q-98 23 -147.5 68.5t-49.5 122.5q0 88 64.5 138.5t173.5 50.5q102 0 165 -44.5t74 -121.5h-72q-8 47 -52 73t-116 26q-76 0 -118.5 -30.5t-42.5 -89.5q0 -49 36 -78t113 -47l99 -24q93 -22 134.5 -66t41.5 -117
q0 -94 -70 -146.5t-180 -52.5q-113 0 -185 47.5t-82 132.5h74q8 -54 59 -83.5t133 -29.5zM346 760h-78l-124 136h75l88 -79l88 79h75z" />
    <glyph glyph-name="scaron" unicode="&#x161;" horiz-adv-x="414" 
d="M211 50q45 0 73 18.5t28 49.5q0 28 -19.5 42.5t-68.5 25.5l-48 10q-65 15 -97 43.5t-32 77.5q0 56 44 90.5t112 34.5q75 0 117 -34.5t48 -84.5h-65q-4 27 -30 44t-70 17q-39 0 -65 -17.5t-26 -46.5q0 -30 20 -43t65 -23l49 -11q131 -28 131 -123q0 -58 -46.5 -92.5
t-123.5 -34.5q-80 0 -124 35t-51 88h65q5 -30 35.5 -48t78.5 -18zM242 520h-78l-120 140h74l85 -86l85 86h74z" />
    <glyph glyph-name="Tcommaaccent" unicode="&#x162;" horiz-adv-x="616" 
d="M584 700v-68h-239v-632h-74v632h-239v68h552zM347 -44l-40 -167h-60l22 167h78z" />
    <glyph glyph-name="tcommaaccent" unicode="&#x163;" horiz-adv-x="389" 
d="M32 434h83v134h69v-134h163v-61h-163v-226q0 -52 21 -70.5t68 -18.5q40 0 76 13v-61q-36 -16 -87 -16q-72 0 -110 33t-38 110v236h-82v61zM282 -44l-38 -164h-58l22 164h74z" />
    <glyph glyph-name="Tcaron" unicode="&#x164;" horiz-adv-x="616" 
d="M584 700v-68h-239v-632h-74v632h-239v68h552zM347 760h-78l-124 136h75l88 -79l88 79h75z" />
    <glyph glyph-name="tcaron" unicode="&#x165;" horiz-adv-x="389" 
d="M32 434h83v134h69v-134h163v-61h-163v-226q0 -52 21 -70.5t68 -18.5q40 0 76 13v-61q-36 -16 -87 -16q-72 0 -110 33t-38 110v236h-82v61zM261 514l9 187h71l-31 -187h-49z" />
    <glyph glyph-name="Tbar" unicode="&#x166;" horiz-adv-x="616" 
d="M483 380v-59h-138v-321h-74v321h-138v59h138v252h-239v68h552v-68h-239v-252h138z" />
    <glyph glyph-name="tbar" unicode="&#x167;" horiz-adv-x="389" 
d="M184 568v-134h163v-61h-163v-123h137v-57h-137v-46q0 -52 21 -70.5t68 -18.5q40 0 76 13v-61q-36 -16 -87 -16q-72 0 -110 33t-38 110v56h-82v57h82v123h-82v61h83v134h69z" />
    <glyph glyph-name="Utilde" unicode="&#x168;" horiz-adv-x="769" 
d="M385 -10q-130 0 -210 76t-80 215v419h75v-407q0 -114 57.5 -173.5t158.5 -59.5q100 0 157.5 59.5t57.5 173.5v407h73v-419q0 -139 -80 -215t-209 -76zM497 857l50 -7q-21 -94 -93 -94q-28 0 -71.5 20t-62.5 20q-32 0 -45 -37l-50 6q21 95 93 95q28 0 71.5 -20t62.5 -20
q32 0 45 37z" />
    <glyph glyph-name="utilde" unicode="&#x169;" horiz-adv-x="548" 
d="M251 -8q-81 0 -130.5 48.5t-49.5 129.5v264h70v-242q0 -65 32.5 -100.5t93.5 -35.5q60 0 97 37.5t37 101.5v239h70v-434h-69v71q-46 -79 -151 -79zM428 609q-21 -94 -91 -94q-22 0 -67 20.5t-63 20.5q-31 0 -45 -38l-48 5q21 94 91 94q22 0 67 -20.5t63 -20.5q32 0 45 37
z" />
    <glyph glyph-name="Umacron" unicode="&#x16a;" horiz-adv-x="769" 
d="M385 -10q-130 0 -210 76t-80 215v419h75v-407q0 -114 57.5 -173.5t158.5 -59.5q100 0 157.5 59.5t57.5 173.5v407h73v-419q0 -139 -80 -215t-209 -76zM543 819v-59h-314v59h314z" />
    <glyph glyph-name="umacron" unicode="&#x16b;" horiz-adv-x="548" 
d="M251 -8q-81 0 -130.5 48.5t-49.5 129.5v264h70v-242q0 -65 32.5 -100.5t93.5 -35.5q60 0 97 37.5t37 101.5v239h70v-434h-69v71q-46 -79 -151 -79zM422 597v-58h-302v58h302z" />
    <glyph glyph-name="Ubreve" unicode="&#x16c;" horiz-adv-x="769" 
d="M385 -10q-130 0 -210 76t-80 215v419h75v-407q0 -114 57.5 -173.5t158.5 -59.5q100 0 157.5 59.5t57.5 173.5v407h73v-419q0 -139 -80 -215t-209 -76zM386 756q-73 0 -113 38.5t-50 92.5h65q4 -31 30 -51.5t68 -20.5t68 20.5t30 51.5h65q-10 -54 -50 -92.5t-113 -38.5z
" />
    <glyph glyph-name="ubreve" unicode="&#x16d;" horiz-adv-x="548" 
d="M251 -8q-81 0 -130.5 48.5t-49.5 129.5v264h70v-242q0 -65 32.5 -100.5t93.5 -35.5q60 0 97 37.5t37 101.5v239h70v-434h-69v71q-46 -79 -151 -79zM271 518q-73 0 -111 39t-48 95h62q5 -32 31 -54.5t66 -22.5t66 22.5t31 54.5h62q-10 -56 -48 -95t-111 -39z" />
    <glyph glyph-name="Uring" unicode="&#x16e;" horiz-adv-x="769" 
d="M385 -10q-130 0 -210 76t-80 215v419h75v-407q0 -114 57.5 -173.5t158.5 -59.5q100 0 157.5 59.5t57.5 173.5v407h73v-419q0 -139 -80 -215t-209 -76zM386 800q23 0 38 15t15 38t-15 38t-38 15t-38 -15t-15 -38t15 -38t38 -15zM386 756q-44 0 -73 27.5t-29 69.5
q0 43 29 70.5t73 27.5t73 -27.5t29 -70.5q0 -42 -29 -69.5t-73 -27.5z" />
    <glyph glyph-name="uring" unicode="&#x16f;" horiz-adv-x="548" 
d="M251 -8q-81 0 -130.5 48.5t-49.5 129.5v264h70v-242q0 -65 32.5 -100.5t93.5 -35.5q60 0 97 37.5t37 101.5v239h70v-434h-69v71q-46 -79 -151 -79zM271 505q-44 0 -72 27t-28 69q0 41 28.5 68t71.5 27t71.5 -27t28.5 -68q0 -42 -28 -69t-72 -27zM271 547q24 0 39 15
t15 39t-15 39t-39 15t-39 -15t-15 -39t15 -39t39 -15z" />
    <glyph glyph-name="Uhungarumlaut" unicode="&#x170;" horiz-adv-x="769" 
d="M385 -10q-130 0 -210 76t-80 215v419h75v-407q0 -114 57.5 -173.5t158.5 -59.5q100 0 157.5 59.5t57.5 173.5v407h73v-419q0 -139 -80 -215t-209 -76zM403 884l-100 -128l-45 24l75 146zM587 884l-99 -128l-46 24l75 146z" />
    <glyph glyph-name="uhungarumlaut" unicode="&#x171;" horiz-adv-x="548" 
d="M251 -8q-81 0 -130.5 48.5t-49.5 129.5v264h70v-242q0 -65 32.5 -100.5t93.5 -35.5q60 0 97 37.5t37 101.5v239h70v-434h-69v71q-46 -79 -151 -79zM437 659l-106 -141l-44 23l85 159zM264 659l-107 -141l-43 23l84 159z" />
    <glyph glyph-name="Uogonek" unicode="&#x172;" horiz-adv-x="769" 
d="M518 -111l24 -41q-41 -37 -97 -37q-44 0 -71 21t-27 61q0 53 57 98q-7 -1 -19 -1q-130 0 -210 76t-80 215v419h75v-407q0 -114 57.5 -173.5t158.5 -59.5q100 0 157.5 59.5t57.5 173.5v407h73v-419q0 -103 -45 -172.5t-124 -98.5q-41 -20 -64.5 -46.5t-23.5 -52.5
q0 -39 41 -39q29 0 60 17z" />
    <glyph glyph-name="uogonek" unicode="&#x173;" horiz-adv-x="548" 
d="M469 -114l24 -40q-40 -36 -93 -36q-41 0 -68.5 20t-27.5 54q0 65 98 117v70q-46 -79 -151 -79q-81 0 -130.5 48.5t-49.5 129.5v264h70v-242q0 -65 32.5 -100.5t93.5 -35.5q60 0 97 37.5t37 101.5v239h70v-434q-99 -49 -99 -101q0 -30 41 -30q31 0 56 17z" />
    <glyph glyph-name="Wcircumflex" unicode="&#x174;" horiz-adv-x="1108" 
d="M586 700l201 -587l202 587h76l-246 -704h-62l-203 572l-202 -572h-63l-246 704h79l197 -587l205 587h62zM515 896h78l124 -136h-75l-88 80l-88 -80h-75z" />
    <glyph glyph-name="wcircumflex" unicode="&#x175;" horiz-adv-x="752" 
d="M503 -2l-126 334l-128 -334h-54l-165 436h74l119 -335l126 335h60l120 -336l124 336h69l-165 -436h-54zM338 660h78l120 -140h-74l-85 86l-85 -86h-74z" />
    <glyph glyph-name="Ycircumflex" unicode="&#x176;" horiz-adv-x="670" 
d="M98 700l236 -357l238 357h84l-284 -426v-274h-74v274l-284 426h84zM296 896h78l124 -136h-75l-88 80l-88 -80h-75z" />
    <glyph glyph-name="ycircumflex" unicode="&#x177;" horiz-adv-x="497" 
d="M97 434l156 -318l148 318h74l-311 -650h-74l127 262l-195 388h75zM214 660h78l120 -140h-74l-85 86l-85 -86h-74z" />
    <glyph glyph-name="Ydieresis" unicode="&#x178;" horiz-adv-x="670" 
d="M98 700l236 -357l238 357h84l-284 -426v-274h-74v274l-284 426h84zM392 805q0 21 13.5 34.5t35.5 13.5t35.5 -13.5t13.5 -34.5q0 -22 -13.5 -35.5t-35.5 -13.5t-35.5 13.5t-13.5 35.5zM180 805q0 21 13.5 34.5t35.5 13.5t35.5 -13.5t13.5 -34.5q0 -22 -13.5 -35.5
t-35.5 -13.5t-35.5 13.5t-13.5 35.5z" />
    <glyph glyph-name="Zacute" unicode="&#x179;" horiz-adv-x="684" 
d="M612 68v-68h-541v55l439 577h-433v68h529v-55l-438 -577h444zM440 917l52 -60l-150 -101l-35 37z" />
    <glyph glyph-name="zacute" unicode="&#x17a;" horiz-adv-x="478" 
d="M62 375v59h363v-48l-279 -326h281v-60h-374v48l279 327h-270zM350 689l52 -57l-156 -118l-35 34z" />
    <glyph glyph-name="Zdotaccent" unicode="&#x17b;" horiz-adv-x="684" 
d="M612 68v-68h-541v55l439 577h-433v68h529v-55l-438 -577h444zM293 805q0 21 13.5 35t35.5 14t35.5 -14t13.5 -35q0 -22 -13.5 -35.5t-35.5 -13.5t-35.5 13.5t-13.5 35.5z" />
    <glyph glyph-name="zdotaccent" unicode="&#x17c;" horiz-adv-x="478" 
d="M62 375v59h363v-48l-279 -326h281v-60h-374v48l279 327h-270zM199 578q0 21 12.5 34t34.5 13t34.5 -13t12.5 -34t-13 -34t-34 -13t-34 13t-13 34z" />
    <glyph glyph-name="Zcaron" unicode="&#x17d;" horiz-adv-x="684" 
d="M612 68v-68h-541v55l439 577h-433v68h529v-55l-438 -577h444zM381 760h-78l-124 136h75l88 -79l88 79h75z" />
    <glyph glyph-name="zcaron" unicode="&#x17e;" horiz-adv-x="478" 
d="M62 375v59h363v-48l-279 -326h281v-60h-374v48l279 327h-270zM285 520h-78l-120 140h74l85 -86l85 86h74z" />
    <glyph glyph-name="longs" unicode="&#x17f;" horiz-adv-x="238" 
d="M147 507v-507h-70v518q0 95 37.5 141.5t117.5 46.5q37 0 67 -8v-60q-27 4 -56 4q-55 0 -75.5 -31t-20.5 -104z" />
    <glyph glyph-name="Schwa" unicode="&#x18f;" horiz-adv-x="826" 
d="M397 710q161 0 262 -100t101 -261q0 -160 -97 -259.5t-254 -99.5q-160 0 -252.5 101.5t-92.5 257.5q0 14 2 38h614q-11 122 -87.5 187.5t-195.5 65.5q-97 0 -161 -40t-80 -109h-76q21 94 109 156.5t208 62.5zM412 60q111 0 185.5 67.5t83.5 191.5h-538
q8 -120 79.5 -189.5t189.5 -69.5z" />
    <glyph glyph-name="florin" unicode="&#x192;" horiz-adv-x="650" 
d="M194 350h98l23 168q13 96 56.5 142t126.5 46q35 0 65 -8l-9 -60q-25 4 -55 4q-54 0 -78 -30.5t-34 -103.5l-22 -158h146l-8 -61h-146l-49 -360q-20 -151 -152 -151q-22 0 -54 6l9 61q23 -3 39 -3q40 0 59.5 23.5t26.5 73.5l48 350h-99z" />
    <glyph glyph-name="Aringacute" unicode="&#x1fa;" horiz-adv-x="748" 
d="M639 0l-85 193h-362l-84 -193h-75l312 704h59l311 -704h-76zM373 607l-151 -346h303zM373 756q-44 0 -73 27.5t-29 69.5q0 43 29 70.5t73 27.5t73 -27.5t29 -70.5q0 -42 -29 -69.5t-73 -27.5zM471 1151l52 -60l-150 -101l-35 37zM373 800q23 0 38 15t15 38t-15 38t-38 15
t-38 -15t-15 -38t15 -38t38 -15z" />
    <glyph glyph-name="aringacute" unicode="&#x1fb;" horiz-adv-x="572" 
d="M48 217q0 96 62.5 161t156.5 65q97 0 159 -77v68h68v-434h-68v68q-62 -76 -159 -76q-95 0 -157 64.5t-62 160.5zM120 217q0 -71 42 -117.5t110 -46.5q63 0 107.5 47t44.5 117t-44.5 117t-107.5 47q-68 0 -110 -46t-42 -118zM268 505q-44 0 -72 27t-28 69q0 41 28.5 68
t71.5 27t71.5 -27t28.5 -68q0 -42 -28 -69t-72 -27zM372 915l52 -57l-156 -118l-35 34zM268 547q24 0 39 15t15 39t-15 39t-39 15t-39 -15t-15 -39t15 -39t39 -15z" />
    <glyph glyph-name="AEacute" unicode="&#x1fc;" horiz-adv-x="1116" 
d="M1041 700v-68h-409v-245h385v-68h-385v-251h413v-68h-487v185h-322l-135 -185h-87l516 700h511zM286 253h272v372zM667 917l52 -60l-150 -101l-35 37z" />
    <glyph glyph-name="aeacute" unicode="&#x1fd;" horiz-adv-x="829" 
d="M783 190h-347v-4q8 -63 49 -99t98 -36q50 0 83.5 21.5t41.5 56.5h66q-12 -60 -65 -98.5t-128 -38.5q-115 0 -174 93q-57 -92 -195 -92q-72 0 -119 30.5t-47 96.5q0 59 41.5 92t121.5 33h163q1 13 5 32q-5 50 -36.5 77.5t-85.5 27.5q-49 0 -79.5 -17t-35.5 -44h-68
q7 53 55 87t127 34q119 0 162 -79q59 80 163 80q90 0 147.5 -65.5t57.5 -160.5q0 -14 -1 -27zM377 158q-4 19 -5 32h-149q-59 0 -84 -17t-25 -53q0 -70 98 -70q70 0 115 28.5t50 79.5zM579 383q-56 0 -95.5 -36t-47.5 -100v-2h277q-7 64 -44 101t-90 37zM525 689l52 -57
l-156 -118l-35 34z" />
    <glyph glyph-name="Oslashacute" unicode="&#x1fe;" horiz-adv-x="852" 
d="M426 710q126 0 225 -78l69 74l42 -41l-69 -73q93 -101 93 -242q0 -151 -104.5 -255.5t-255.5 -104.5q-129 0 -226 78l-68 -74l-43 41l68 73q-91 102 -91 242q0 151 104.5 255.5t255.5 104.5zM426 60q119 0 200.5 83.5t81.5 206.5q0 109 -66 189l-393 -418q75 -61 177 -61
zM144 350q0 -109 65 -188l392 417q-77 61 -175 61q-119 0 -200.5 -83.5t-81.5 -206.5zM524 917l52 -60l-150 -101l-35 37z" />
    <glyph glyph-name="oslashacute" unicode="&#x1ff;" horiz-adv-x="548" 
d="M274 443q75 0 136 -45l38 40l34 -34l-37 -39q55 -65 55 -148q0 -94 -65.5 -159.5t-160.5 -65.5q-78 0 -136 44l-38 -40l-34 34l36 40q-54 62 -54 147q0 95 66 160.5t160 65.5zM274 54q66 0 110 46.5t44 116.5q0 56 -30 99l-216 -232q41 -30 92 -30zM120 217q0 -57 29 -98
l216 232q-39 30 -91 30q-66 0 -110 -46.5t-44 -117.5zM378 689l52 -57l-156 -118l-35 34z" />
    <glyph glyph-name="Scommaaccent" unicode="&#x218;" horiz-adv-x="634" 
d="M318 58q80 0 128 34.5t48 93.5q0 89 -128 119l-100 24q-98 23 -147.5 68.5t-49.5 122.5q0 88 64.5 138.5t173.5 50.5q102 0 165 -44.5t74 -121.5h-72q-8 47 -52 73t-116 26q-76 0 -118.5 -30.5t-42.5 -89.5q0 -49 36 -78t113 -47l99 -24q93 -22 134.5 -66t41.5 -117
q0 -94 -70 -146.5t-180 -52.5q-113 0 -185 47.5t-82 132.5h74q8 -54 59 -83.5t133 -29.5zM357 -44l-40 -167h-60l22 167h78z" />
    <glyph glyph-name="scommaaccent" unicode="&#x219;" horiz-adv-x="414" 
d="M211 50q45 0 73 18.5t28 49.5q0 28 -19.5 42.5t-68.5 25.5l-48 10q-65 15 -97 43.5t-32 77.5q0 56 44 90.5t112 34.5q75 0 117 -34.5t48 -84.5h-65q-4 27 -30 44t-70 17q-39 0 -65 -17.5t-26 -46.5q0 -30 20 -43t65 -23l49 -11q131 -28 131 -123q0 -58 -46.5 -92.5
t-123.5 -34.5q-80 0 -124 35t-51 88h65q5 -30 35.5 -48t78.5 -18zM247 -44l-38 -164h-58l22 164h74z" />
    <glyph glyph-name="uni021A" unicode="&#x21a;" horiz-adv-x="616" 
d="M584 700v-68h-239v-632h-74v632h-239v68h552zM347 -45l-40 -167h-60l22 167h78z" />
    <glyph glyph-name="uni021B" unicode="&#x21b;" horiz-adv-x="389" 
d="M32 434h83v134h69v-134h163v-61h-163v-226q0 -52 21 -70.5t68 -18.5q40 0 76 13v-61q-36 -16 -87 -16q-72 0 -110 33t-38 110v236h-82v61zM282 -44l-38 -164h-58l22 164h74z" />
    <glyph glyph-name="dotlessj" unicode="&#x237;" horiz-adv-x="232" 
d="M83 -61v495h70v-505q0 -151 -129 -151q-24 0 -54 6v61q24 -3 40 -3q40 0 56.5 23.5t16.5 73.5z" />
    <glyph glyph-name="schwa" unicode="&#x259;" horiz-adv-x="516" 
d="M251 442q96 0 156.5 -62.5t60.5 -162.5q0 -101 -59 -163.5t-154 -62.5q-97 0 -153.5 64t-56.5 162q0 14 1 28h351q-7 67 -47 102.5t-101 35.5q-51 0 -85.5 -21.5t-42.5 -55.5h-66q12 59 66 97.5t130 38.5zM256 51q58 0 96 35.5t45 101.5h-282q7 -66 44 -101.5t97 -35.5z
" />
    <glyph glyph-name="circumflex" unicode="&#x2c6;" 
d="M211 660h78l120 -140h-74l-85 86l-85 -86h-74z" />
    <glyph glyph-name="caron" unicode="&#x2c7;" 
d="M289 520h-78l-120 140h74l85 -86l85 86h74z" />
    <glyph glyph-name="uni02C9" unicode="&#x2c9;" 
d="M385 601v-58h-270v58h270z" />
    <glyph glyph-name="breve" unicode="&#x2d8;" 
d="M250 518q-73 0 -111 39t-48 95h62q5 -32 31 -54.5t66 -22.5t66 22.5t31 54.5h62q-10 -56 -48 -95t-111 -39z" />
    <glyph glyph-name="dotaccent" unicode="&#x2d9;" 
d="M203 578q0 21 12.5 34t34.5 13t34.5 -13t12.5 -34t-13 -34t-34 -13t-34 13t-13 34z" />
    <glyph glyph-name="ring" unicode="&#x2da;" 
d="M250 547q24 0 39 15t15 39t-15 39t-39 15t-39 -15t-15 -39t15 -39t39 -15zM250 505q-44 0 -72 27t-28 69q0 41 28.5 68t71.5 27t71.5 -27t28.5 -68q0 -42 -28 -69t-72 -27z" />
    <glyph glyph-name="ogonek" unicode="&#x2db;" 
d="M319 -114l24 -40q-40 -36 -93 -36q-41 0 -68.5 20t-27.5 54q0 46 38.5 78t111.5 65l17 -27q-99 -49 -99 -101q0 -30 41 -30q31 0 56 17z" />
    <glyph glyph-name="tilde" unicode="&#x2dc;" 
d="M407 609q-21 -94 -91 -94q-22 0 -67 20.5t-63 20.5q-31 0 -45 -38l-48 5q21 94 91 94q22 0 67 -20.5t63 -20.5q32 0 45 37z" />
    <glyph glyph-name="hungarumlaut" unicode="&#x2dd;" 
d="M239 659l-107 -141l-43 23l84 159zM412 659l-106 -141l-44 23l85 159z" />
    <glyph glyph-name="uni03A9" unicode="&#x3a9;" horiz-adv-x="826" 
d="M413 710q156 0 252 -95t96 -237q0 -98 -44.5 -180.5t-112.5 -129.5h142v-68h-253v49q189 139 189 314q0 119 -74 198t-195 79t-195 -79t-74 -198q0 -175 189 -314v-49h-253v68h142q-68 47 -112.5 129.5t-44.5 180.5q0 142 96 237t252 95z" />
    <glyph glyph-name="uni03BC" unicode="&#x3bc;" horiz-adv-x="554" 
d="M270 -8q-85 0 -123 49v-257h-70v650h70v-242q0 -65 32.5 -100.5t93.5 -35.5q60 0 97 37.5t37 101.5v239h70v-434h-69v70q-21 -37 -59 -57.5t-79 -20.5z" />
    <glyph glyph-name="pi" unicode="&#x3c0;" horiz-adv-x="683" 
d="M43 434h590v-61h-149v-226q0 -51 20 -70.5t57 -19.5q39 0 72 12v-61q-31 -14 -83 -14q-136 0 -136 143v236h-160l-66 -373h-70l66 373h-141v61z" />
    <glyph glyph-name="Wgrave" unicode="&#x1e80;" horiz-adv-x="1108" 
d="M586 700l201 -587l202 587h76l-246 -704h-62l-203 572l-202 -572h-63l-246 704h79l197 -587l205 587h62zM404 857l52 60l133 -124l-35 -37z" />
    <glyph glyph-name="wgrave" unicode="&#x1e81;" horiz-adv-x="752" 
d="M503 -2l-126 334l-128 -334h-54l-165 436h74l119 -335l126 335h60l120 -336l124 336h69l-165 -436h-54zM221 632l52 57l139 -141l-35 -34z" />
    <glyph glyph-name="Wacute" unicode="&#x1e82;" horiz-adv-x="1108" 
d="M586 700l201 -587l202 587h76l-246 -704h-62l-203 572l-202 -572h-63l-246 704h79l197 -587l205 587h62zM652 917l52 -60l-150 -101l-35 37z" />
    <glyph glyph-name="wacute" unicode="&#x1e83;" horiz-adv-x="752" 
d="M503 -2l-126 334l-128 -334h-54l-165 436h74l119 -335l126 335h60l120 -336l124 336h69l-165 -436h-54zM481 689l52 -57l-156 -118l-35 34z" />
    <glyph glyph-name="Wdieresis" unicode="&#x1e84;" horiz-adv-x="1108" 
d="M586 700l201 -587l202 587h76l-246 -704h-62l-203 572l-202 -572h-63l-246 704h79l197 -587l205 587h62zM611 805q0 21 13.5 34.5t35.5 13.5t35.5 -13.5t13.5 -34.5q0 -22 -13.5 -35.5t-35.5 -13.5t-35.5 13.5t-13.5 35.5zM399 805q0 21 13.5 34.5t35.5 13.5t35.5 -13.5
t13.5 -34.5q0 -22 -13.5 -35.5t-35.5 -13.5t-35.5 13.5t-13.5 35.5z" />
    <glyph glyph-name="wdieresis" unicode="&#x1e85;" horiz-adv-x="752" 
d="M503 -2l-126 334l-128 -334h-54l-165 436h74l119 -335l126 335h60l120 -336l124 336h69l-165 -436h-54zM234 569q0 21 13 34t34 13t34 -13.5t13 -33.5q0 -21 -13 -34t-34 -13q-22 0 -34.5 13t-12.5 34zM426 569q0 20 13 33.5t34 13.5t34 -13t13 -34t-12.5 -34t-34.5 -13
q-21 0 -34 13t-13 34z" />
    <glyph glyph-name="Ygrave" unicode="&#x1ef2;" horiz-adv-x="670" 
d="M98 700l236 -357l238 357h84l-284 -426v-274h-74v274l-284 426h84zM185 857l52 60l133 -124l-35 -37z" />
    <glyph glyph-name="ygrave" unicode="&#x1ef3;" horiz-adv-x="497" 
d="M97 434l156 -318l148 318h74l-311 -650h-74l127 262l-195 388h75zM97 632l52 57l139 -141l-35 -34z" />
    <glyph glyph-name="enspace" unicode="&#x2002;" 
 />
    <glyph glyph-name="emspace" unicode="&#x2003;" horiz-adv-x="996" 
 />
    <glyph glyph-name="endash" unicode="&#x2013;" horiz-adv-x="470" 
d="M30 187v62h411v-62h-411z" />
    <glyph glyph-name="emdash" unicode="&#x2014;" horiz-adv-x="580" 
d="M16 187v62h548v-62h-548z" />
    <glyph glyph-name="quoteleft" unicode="&#x2018;" horiz-adv-x="247" 
d="M205 710l-50 -287h-89l77 287h62z" />
    <glyph glyph-name="quoteright" unicode="&#x2019;" horiz-adv-x="247" 
d="M42 423l50 287h89l-77 -287h-62z" />
    <glyph glyph-name="quotesinglbase" unicode="&#x201a;" horiz-adv-x="247" 
d="M42 -152l50 287h89l-77 -287h-62z" />
    <glyph glyph-name="quotedblleft" unicode="&#x201c;" horiz-adv-x="424" 
d="M205 710l-50 -287h-89l77 287h62zM383 710l-50 -287h-89l77 287h62z" />
    <glyph glyph-name="quotedblright" unicode="&#x201d;" horiz-adv-x="424" 
d="M42 423l50 287h89l-77 -287h-62zM220 423l50 287h89l-77 -287h-62z" />
    <glyph glyph-name="quotedblbase" unicode="&#x201e;" horiz-adv-x="424" 
d="M42 -152l50 287h89l-77 -287h-62zM220 -152l50 287h89l-77 -287h-62z" />
    <glyph glyph-name="dagger" unicode="&#x2020;" horiz-adv-x="552" 
d="M511 500v-65h-200v-599h-70v599h-199v65h199v200h70v-200h200z" />
    <glyph glyph-name="daggerdbl" unicode="&#x2021;" horiz-adv-x="552" 
d="M511 101v-65h-200v-200h-70v200h-199v65h199v344h-199v65h199v200h70v-200h200v-65h-200v-344h200z" />
    <glyph glyph-name="bullet" unicode="&#x2022;" horiz-adv-x="403" 
d="M95 259q-2 44 27.5 77t73.5 35t77 -28t35 -74t-27.5 -77.5t-73.5 -35.5t-77 28.5t-35 74.5z" />
    <glyph glyph-name="onedotenleader" unicode="&#x2024;" horiz-adv-x="243" 
d="M66 50q0 23 15.5 39t39.5 16t39.5 -15.5t15.5 -39.5t-15 -39.5t-40 -15.5q-24 0 -39.5 15.5t-15.5 39.5z" />
    <glyph glyph-name="twodotenleader" unicode="&#x2025;" horiz-adv-x="563" 
d="M367 50q0 24 15.5 39.5t39.5 15.5t39.5 -15.5t15.5 -39.5t-15 -39.5t-40 -15.5t-40 15.5t-15 39.5zM86 50q0 24 15.5 39.5t39.5 15.5t39.5 -16t15.5 -39q0 -24 -15.5 -39.5t-39.5 -15.5q-25 0 -40 15.5t-15 39.5z" />
    <glyph glyph-name="ellipsis" unicode="&#x2026;" horiz-adv-x="844" 
d="M86 50q0 24 15.5 39.5t39.5 15.5t39.5 -16t15.5 -39q0 -24 -15.5 -39.5t-39.5 -15.5q-25 0 -40 15.5t-15 39.5zM367 50q0 24 15.5 39.5t39.5 15.5t39.5 -15.5t15.5 -39.5t-15 -39.5t-40 -15.5t-40 15.5t-15 39.5zM648 50q0 23 15.5 39t39.5 16t39.5 -15.5t15.5 -39.5
t-15 -39.5t-40 -15.5q-24 0 -39.5 15.5t-15.5 39.5z" />
    <glyph glyph-name="perthousand" unicode="&#x2030;" horiz-adv-x="1397" 
d="M304 0h-78l439 700h78zM230 706q76 0 127 -52t51 -128q0 -77 -51 -129t-127 -52t-127.5 52t-51.5 129q0 76 51.5 128t127.5 52zM230 408q48 0 79 33.5t31 84.5q0 50 -31 83.5t-79 33.5t-79 -33t-31 -84t31 -84.5t79 -33.5zM739 355q76 0 127.5 -52t51.5 -129
q0 -76 -51.5 -128t-127.5 -52t-127 52t-51 128q0 77 51 129t127 52zM739 57q48 0 79 33t31 84t-31 84.5t-79 33.5t-79 -33.5t-31 -84.5q0 -50 31 -83.5t79 -33.5zM1168 355q76 0 127 -52t51 -129q0 -76 -51 -128t-127 -52q-77 0 -128 52t-51 128q0 77 51 129t128 52z
M1168 57q48 0 79 33.5t31 83.5q0 51 -31 84.5t-79 33.5q-49 0 -80 -33.5t-31 -84.5t31.5 -84t79.5 -33z" />
    <glyph glyph-name="minute" unicode="&#x2032;" horiz-adv-x="239" 
d="M117 700h72l-71 -326h-68z" />
    <glyph glyph-name="second" unicode="&#x2033;" horiz-adv-x="401" 
d="M117 700h72l-71 -326h-68zM279 700h72l-71 -326h-68z" />
    <glyph glyph-name="uni2034" unicode="&#x2034;" horiz-adv-x="562" 
d="M117 700h72l-71 -326h-68zM279 700h72l-71 -326h-68zM440 700h72l-71 -326h-68z" />
    <glyph glyph-name="guilsinglleft" unicode="&#x2039;" horiz-adv-x="287" 
d="M237 410l-112 -180l112 -180h-76l-112 180l112 180h76z" />
    <glyph glyph-name="guilsinglright" unicode="&#x203a;" horiz-adv-x="287" 
d="M50 50l111 180l-111 180h75l112 -180l-112 -180h-75z" />
    <glyph glyph-name="fraction" unicode="&#x2044;" horiz-adv-x="276" 
d="M-43 0h-78l440 700h77z" />
    <glyph glyph-name="zero.superior" unicode="&#x2070;" horiz-adv-x="388" 
d="M194 890q76 0 122.5 -53.5t46.5 -136.5t-46.5 -136.5t-122.5 -53.5t-122 53.5t-46 136.5t46 136.5t122 53.5zM194 565q48 0 76.5 37t28.5 98t-28.5 98t-76.5 37q-47 0 -76 -37t-29 -98t29 -98t76 -37z" />
    <glyph glyph-name="four.superior" unicode="&#x2074;" horiz-adv-x="388" 
d="M303 884v-232h58v-54h-58v-80h-62v80h-207v46l217 240h52zM106 652h136v150z" />
    <glyph glyph-name="five.superior" unicode="&#x2075;" horiz-adv-x="388" 
d="M196 565q42 0 64.5 18.5t22.5 48.5q0 70 -91 70q-52 0 -82 -19l-49 14l12 185h248v-55h-196l-6 -93q31 17 83 17q67 0 105 -32.5t38 -84.5q0 -57 -41.5 -90.5t-106.5 -33.5q-69 0 -107.5 30.5t-41.5 85.5h57q6 -61 91 -61z" />
    <glyph glyph-name="six.superior" unicode="&#x2076;" horiz-adv-x="388" 
d="M216 761q61 0 100 -34.5t39 -88.5q0 -57 -41 -92.5t-108 -35.5q-69 0 -113.5 43t-44.5 125q0 212 166 212q115 0 133 -95h-60q-8 42 -72 42q-52 0 -75 -30.5t-28 -87.5q31 42 104 42zM205 563q42 0 66 20t24 54t-24 53.5t-66 19.5t-66 -19.5t-24 -53.5t24.5 -54t65.5 -20
z" />
    <glyph glyph-name="seven.superior" unicode="&#x2077;" horiz-adv-x="388" 
d="M335 835l-179 -317h-69l174 309h-211v55h285v-47z" />
    <glyph glyph-name="eight.superior" unicode="&#x2078;" horiz-adv-x="388" 
d="M194 890q68 0 106 -27.5t38 -74.5q0 -63 -60 -82q31 -8 52 -32t21 -57q0 -50 -42.5 -78.5t-114.5 -28.5t-114 28.5t-42 78.5q0 33 21 57t51 32q-59 20 -59 82q0 46 38 74t105 28zM194 564q97 0 97 56q0 58 -97 58t-97 -58q0 -56 97 -56zM194 727q41 0 63 15t22 41
q0 53 -85 53t-85 -53q0 -26 22.5 -41t62.5 -15z" />
    <glyph glyph-name="nine.superior" unicode="&#x2079;" horiz-adv-x="388" 
d="M173 639q-61 0 -100 34.5t-39 88.5q0 57 40.5 92.5t107.5 35.5q70 0 114.5 -43t44.5 -125q0 -212 -167 -212q-114 0 -132 95h59q4 -20 24 -31t48 -11q53 0 76 30.5t27 87.5q-31 -42 -103 -42zM183 837q-41 0 -65.5 -20t-24.5 -54t24 -53.5t66 -19.5t66 19.5t24 53.5
t-24 54t-66 20z" />
    <glyph glyph-name="parenleft.superior" unicode="&#x207d;" horiz-adv-x="275" 
d="M54 700q0 86 52 154t139 88v-53q-58 -16 -93 -68t-35 -121t35 -121t93 -68v-53q-87 20 -139 88t-52 154z" />
    <glyph glyph-name="parenright.superior" unicode="&#x207e;" horiz-adv-x="275" 
d="M221 700q0 -86 -52.5 -154t-138.5 -88v53q58 16 92.5 68t34.5 121t-34.5 121t-92.5 68v53q86 -20 138.5 -88t52.5 -154z" />
    <glyph glyph-name="n.superior" unicode="&#x207f;" horiz-adv-x="446" 
d="M243 890q70 0 113.5 -42t43.5 -112v-218h-61v199q0 56 -28 87t-82 31q-53 0 -85.5 -32t-32.5 -88v-197h-61v364h60v-59q39 67 133 67z" />
    <glyph glyph-name="zero.inferior" unicode="&#x2080;" horiz-adv-x="388" 
d="M194 190q76 0 122.5 -53.5t46.5 -136.5t-46.5 -136.5t-122.5 -53.5t-122 53.5t-46 136.5t46 136.5t122 53.5zM194 -135q48 0 76.5 37t28.5 98t-28.5 98t-76.5 37q-47 0 -76 -37t-29 -98t29 -98t76 -37z" />
    <glyph glyph-name="one.inferior" unicode="&#x2081;" horiz-adv-x="388" 
d="M194 -182v299l-105 -33l-17 50l134 50h49v-366h-61z" />
    <glyph glyph-name="two.inferior" unicode="&#x2082;" horiz-adv-x="388" 
d="M193 135q-81 0 -86 -76h-59q3 58 40.5 94.5t105.5 36.5q66 0 102.5 -30.5t36.5 -81.5q0 -42 -23.5 -73.5t-69.5 -66.5l-85 -65h186v-55h-288v44l143 110q41 33 58 55.5t17 48.5q0 27 -20.5 43t-57.5 16z" />
    <glyph glyph-name="three.inferior" unicode="&#x2083;" horiz-adv-x="388" 
d="M191 136q-84 0 -89 -67h-58q4 56 42.5 88.5t105.5 32.5q61 0 99.5 -27.5t38.5 -80.5q0 -26 -13 -45t-33 -25q58 -16 58 -86q0 -54 -42 -85t-108 -31q-144 0 -153 120h59q6 -66 94 -66t88 63q0 54 -70 54h-46v52h46q60 0 60 46q0 57 -79 57z" />
    <glyph glyph-name="four.inferior" unicode="&#x2084;" horiz-adv-x="388" 
d="M303 184v-232h58v-54h-58v-80h-62v80h-207v46l217 240h52zM106 -48h136v150z" />
    <glyph glyph-name="five.inferior" unicode="&#x2085;" horiz-adv-x="388" 
d="M196 -135q42 0 64.5 18.5t22.5 48.5q0 70 -91 70q-52 0 -82 -19l-49 14l12 185h248v-55h-196l-6 -93q31 17 83 17q67 0 105 -32.5t38 -84.5q0 -57 -41.5 -90.5t-106.5 -33.5q-69 0 -107.5 30.5t-41.5 85.5h57q6 -61 91 -61z" />
    <glyph glyph-name="six.inferior" unicode="&#x2086;" horiz-adv-x="388" 
d="M216 61q61 0 100 -34.5t39 -88.5q0 -57 -41 -92.5t-108 -35.5q-69 0 -113.5 43t-44.5 125q0 212 166 212q115 0 133 -95h-60q-8 42 -72 42q-52 0 -75 -30.5t-28 -87.5q31 42 104 42zM205 -137q42 0 66 20t24 54t-24 53.5t-66 19.5t-66 -19.5t-24 -53.5t24.5 -54t65.5 -20
z" />
    <glyph glyph-name="seven.inferior" unicode="&#x2087;" horiz-adv-x="388" 
d="M335 135l-179 -317h-69l174 309h-211v55h285v-47z" />
    <glyph glyph-name="eight.inferior" unicode="&#x2088;" horiz-adv-x="388" 
d="M194 190q68 0 106 -27.5t38 -74.5q0 -63 -60 -82q31 -8 52 -32t21 -57q0 -50 -42.5 -78.5t-114.5 -28.5t-114 28.5t-42 78.5q0 33 21 57t51 32q-59 20 -59 82q0 46 38 74t105 28zM194 -136q97 0 97 56q0 58 -97 58t-97 -58q0 -56 97 -56zM194 27q41 0 63 15t22 41
q0 53 -85 53t-85 -53q0 -26 22.5 -41t62.5 -15z" />
    <glyph glyph-name="nine.inferior" unicode="&#x2089;" horiz-adv-x="388" 
d="M173 -61q-61 0 -100 34.5t-39 88.5q0 57 40.5 92.5t107.5 35.5q70 0 114.5 -43t44.5 -125q0 -212 -167 -212q-114 0 -132 95h59q4 -20 24 -31t48 -11q53 0 76 30.5t27 87.5q-31 -42 -103 -42zM183 137q-41 0 -65.5 -20t-24.5 -54t24 -53.5t66 -19.5t66 19.5t24 53.5
t-24 54t-66 20z" />
    <glyph glyph-name="parenleft.inferior" unicode="&#x208d;" horiz-adv-x="275" 
d="M54 0q0 86 52 154t139 88v-53q-58 -16 -93 -68t-35 -121t35 -121t93 -68v-53q-87 20 -139 88t-52 154z" />
    <glyph glyph-name="parenright.inferior" unicode="&#x208e;" horiz-adv-x="275" 
d="M221 0q0 -86 -52.5 -154t-138.5 -88v53q58 16 92.5 68t34.5 121t-34.5 121t-92.5 68v53q86 -20 138.5 -88t52.5 -154z" />
    <glyph glyph-name="Euro" unicode="&#x20ac;" horiz-adv-x="650" 
d="M10 305h70q-2 28 -2 45q0 15 2 45h-70v62h83q31 112 120.5 182.5t209.5 70.5q115 0 197 -49l-33 -62q-65 41 -163 41q-90 0 -156.5 -50t-94.5 -133h347v-62h-362q-2 -15 -2 -45q0 -24 3 -45h275v-62h-261q28 -83 95 -133t157 -50q100 0 165 41l33 -62q-82 -49 -199 -49
q-120 0 -209.5 70t-121.5 183h-83v62z" />
    <glyph glyph-name="afii61289" unicode="&#x2113;" 
d="M436 543q0 -100 -75.5 -190t-186.5 -137v-27q0 -73 27.5 -100t87.5 -27q49 0 98 30l25 -57q-52 -41 -139 -41q-168 0 -168 186v282q0 110 44 179t134 69q77 0 115 -46t38 -121zM174 453v-174q80 39 136.5 112t56.5 151q0 46 -19.5 75.5t-64.5 29.5q-109 0 -109 -194z" />
    <glyph glyph-name="numerosign" unicode="&#x2116;" horiz-adv-x="1254" 
d="M101 702h67l447 -585v583h73v-702h-67l-447 585v-583h-73v702zM1019 707q82 0 139 -56.5t57 -137.5q0 -82 -56.5 -138t-139.5 -56q-81 0 -137.5 56t-56.5 138q0 81 56.5 137.5t137.5 56.5zM1019 376q57 0 94 38.5t37 98.5t-37 98t-94 38q-55 0 -91.5 -38t-36.5 -98
t36.5 -98.5t91.5 -38.5zM868 189v57h318v-57h-318z" />
    <glyph glyph-name="published" unicode="&#x2117;" horiz-adv-x="851" 
d="M426 710q151 0 255.5 -104.5t104.5 -255.5t-104.5 -255.5t-255.5 -104.5t-256 104.5t-105 255.5t105 255.5t256 104.5zM426 51q125 0 210 86t85 213t-85 213t-210 86t-210 -86t-85 -213t85 -213t210 -86zM359 351h96q84 0 84 66q0 65 -84 65h-96v-131zM359 293v-133h-64
v380h170q65 0 101.5 -34.5t36.5 -88.5t-36.5 -89t-101.5 -35h-106z" />
    <glyph glyph-name="servicemark" unicode="&#x2120;" horiz-adv-x="754" 
d="M368 700h55l109 -188l109 188h53v-300h-49v223l-96 -165h-36l-93 159v-217h-52v300zM173 438q73 0 73 44q0 20 -12 30.5t-42 14.5l-48 7q-91 16 -91 84q0 40 33 63t84 23q55 0 85.5 -24t34.5 -60h-49q-5 41 -71 41q-65 0 -65 -41q0 -21 13.5 -30.5t40.5 -13.5l48 -7
q90 -15 90 -86q0 -42 -34.5 -65t-89.5 -23q-57 0 -90 24.5t-37 64.5h49q6 -46 78 -46z" />
    <glyph glyph-name="trademark" unicode="&#x2122;" horiz-adv-x="726" 
d="M341 700h54l109 -188l109 188h54v-300h-50v223l-96 -165h-35l-94 160v-218h-51v300zM277 700v-47h-97v-253h-53v253h-97v47h247z" />
    <glyph glyph-name="Omega" unicode="&#x2126;" horiz-adv-x="826" 
d="M413 710q156 0 252 -95t96 -237q0 -98 -44.5 -180.5t-112.5 -129.5h142v-68h-253v49q189 139 189 314q0 119 -74 198t-195 79t-195 -79t-74 -198q0 -175 189 -314v-49h-253v68h142q-68 47 -112.5 129.5t-44.5 180.5q0 142 96 237t252 95z" />
    <glyph glyph-name="estimated" unicode="&#x212e;" horiz-adv-x="840" 
d="M420 670q-134 0 -224 -95v-205h453v200q-92 100 -229 100zM675 141l35 -26q-118 -125 -286 -125q-153 0 -258.5 104.5t-105.5 255.5t104.5 255.5t255.5 104.5q150 0 255 -104.5t105 -255.5q0 -4 -0.5 -10t-0.5 -10h-583v-205q90 -95 228 -95q155 0 251 111z" />
    <glyph glyph-name="oneseventh" unicode="&#x2150;" horiz-adv-x="902" 
d="M244 0h-68l441 700h68zM848 317l-179 -317h-69l174 309h-211v55h285v-47zM194 336v299l-105 -33l-17 50l134 50h49v-366h-61z" />
    <glyph glyph-name="oneninth" unicode="&#x2151;" horiz-adv-x="902" 
d="M244 0h-68l441 700h68zM686 121q-61 0 -100 34.5t-39 88.5q0 57 40.5 92.5t107.5 35.5q70 0 114.5 -43t44.5 -125q0 -212 -167 -212q-114 0 -132 95h59q4 -20 24 -31t48 -11q53 0 76 30.5t27 87.5q-31 -42 -103 -42zM696 319q-41 0 -65.5 -20t-24.5 -54t24 -53.5
t66 -19.5t66 19.5t24 53.5t-24 54t-66 20zM194 336v299l-105 -33l-17 50l134 50h49v-366h-61z" />
    <glyph glyph-name="onetenth" unicode="&#x2152;" horiz-adv-x="1202" 
d="M194 336v299l-105 -33l-17 50l134 50h49v-366h-61zM243 0h-68l441 700h68zM679 0v299l-105 -33l-17 50l134 50h49v-366h-61zM1007 372q76 0 122.5 -53.5t46.5 -136.5t-46.5 -136.5t-122.5 -53.5t-122 53.5t-46 136.5t46 136.5t122 53.5zM1007 47q48 0 76.5 37t28.5 98
t-28.5 98t-76.5 37q-47 0 -76 -37t-29 -98t29 -98t76 -37z" />
    <glyph glyph-name="onethird" unicode="&#x2153;" horiz-adv-x="902" 
d="M244 0h-68l441 700h68zM704 318q-84 0 -89 -67h-58q4 56 42.5 88.5t105.5 32.5q61 0 99.5 -27.5t38.5 -80.5q0 -26 -13 -45t-33 -25q58 -16 58 -86q0 -54 -42 -85t-108 -31q-144 0 -153 120h59q6 -66 94 -66t88 63q0 54 -70 54h-46v52h46q60 0 60 46q0 57 -79 57z
M194 336v299l-105 -33l-17 50l134 50h49v-366h-61z" />
    <glyph glyph-name="twothirds" unicode="&#x2154;" horiz-adv-x="902" 
d="M193 653q-81 0 -86 -76h-59q3 58 40.5 94.5t105.5 36.5q66 0 102.5 -30.5t36.5 -81.5q0 -42 -23.5 -73.5t-69.5 -66.5l-85 -65h186v-55h-288v44l143 110q41 33 58 55.5t17 48.5q0 27 -20.5 43t-57.5 16zM284 0h-68l441 700h68zM704 318q-84 0 -89 -67h-58q4 56 42.5 88.5
t105.5 32.5q61 0 99.5 -27.5t38.5 -80.5q0 -26 -13 -45t-33 -25q58 -16 58 -86q0 -54 -42 -85t-108 -31q-144 0 -153 120h59q6 -66 94 -66t88 63q0 54 -70 54h-46v52h46q60 0 60 46q0 57 -79 57z" />
    <glyph glyph-name="onefifth" unicode="&#x2155;" horiz-adv-x="902" 
d="M244 0h-68l441 700h68zM709 47q42 0 64.5 18.5t22.5 48.5q0 70 -91 70q-52 0 -82 -19l-49 14l12 185h248v-55h-196l-6 -93q31 17 83 17q67 0 105 -32.5t38 -84.5q0 -57 -41.5 -90.5t-106.5 -33.5q-69 0 -107.5 30.5t-41.5 85.5h57q6 -61 91 -61zM194 336v299l-105 -33
l-17 50l134 50h49v-366h-61z" />
    <glyph glyph-name="twofifths" unicode="&#x2156;" horiz-adv-x="902" 
d="M193 653q-81 0 -86 -76h-59q3 58 40.5 94.5t105.5 36.5q66 0 102.5 -30.5t36.5 -81.5q0 -42 -23.5 -73.5t-69.5 -66.5l-85 -65h186v-55h-288v44l143 110q41 33 58 55.5t17 48.5q0 27 -20.5 43t-57.5 16zM284 0h-68l441 700h68zM709 47q42 0 64.5 18.5t22.5 48.5
q0 70 -91 70q-52 0 -82 -19l-49 14l12 185h248v-55h-196l-6 -93q31 17 83 17q67 0 105 -32.5t38 -84.5q0 -57 -41.5 -90.5t-106.5 -33.5q-69 0 -107.5 30.5t-41.5 85.5h57q6 -61 91 -61z" />
    <glyph glyph-name="threefifths" unicode="&#x2157;" horiz-adv-x="902" 
d="M191 654q-84 0 -89 -67h-58q4 56 42.5 88.5t105.5 32.5q61 0 99.5 -27.5t38.5 -80.5q0 -26 -13 -45t-33 -25q58 -16 58 -86q0 -54 -42 -85t-108 -31q-144 0 -153 120h59q6 -66 94 -66t88 63q0 54 -70 54h-46v52h46q60 0 60 46q0 57 -79 57zM254 0h-68l441 700h68zM709 47
q42 0 64.5 18.5t22.5 48.5q0 70 -91 70q-52 0 -82 -19l-49 14l12 185h248v-55h-196l-6 -93q31 17 83 17q67 0 105 -32.5t38 -84.5q0 -57 -41.5 -90.5t-106.5 -33.5q-69 0 -107.5 30.5t-41.5 85.5h57q6 -61 91 -61z" />
    <glyph glyph-name="fourfifths" unicode="&#x2158;" horiz-adv-x="902" 
d="M303 702v-232h58v-54h-58v-80h-62v80h-207v46l217 240h52zM106 470h136v150zM264 0h-68l441 700h68zM709 47q42 0 64.5 18.5t22.5 48.5q0 70 -91 70q-52 0 -82 -19l-49 14l12 185h248v-55h-196l-6 -93q31 17 83 17q67 0 105 -32.5t38 -84.5q0 -57 -41.5 -90.5
t-106.5 -33.5q-69 0 -107.5 30.5t-41.5 85.5h57q6 -61 91 -61z" />
    <glyph glyph-name="onesixth" unicode="&#x2159;" horiz-adv-x="902" 
d="M254 0h-68l441 700h68zM729 243q61 0 100 -34.5t39 -88.5q0 -57 -41 -92.5t-108 -35.5q-69 0 -113.5 43t-44.5 125q0 212 166 212q115 0 133 -95h-60q-8 42 -72 42q-52 0 -75 -30.5t-28 -87.5q31 42 104 42zM718 45q42 0 66 20t24 54t-24 53.5t-66 19.5t-66 -19.5
t-24 -53.5t24.5 -54t65.5 -20zM194 336v299l-105 -33l-17 50l134 50h49v-366h-61z" />
    <glyph glyph-name="fivesixths" unicode="&#x215a;" horiz-adv-x="902" 
d="M271 0h-68l441 700h68zM196 383q42 0 64.5 18.5t22.5 48.5q0 70 -91 70q-52 0 -82 -19l-49 14l12 185h248v-55h-196l-6 -93q31 17 83 17q67 0 105 -32.5t38 -84.5q0 -57 -41.5 -90.5t-106.5 -33.5q-69 0 -107.5 30.5t-41.5 85.5h57q6 -61 91 -61zM729 243q61 0 100 -34.5
t39 -88.5q0 -57 -41 -92.5t-108 -35.5q-69 0 -113.5 43t-44.5 125q0 212 166 212q115 0 133 -95h-60q-8 42 -72 42q-52 0 -75 -30.5t-28 -87.5q31 42 104 42zM718 45q42 0 66 20t24 54t-24 53.5t-66 19.5t-66 -19.5t-24 -53.5t24.5 -54t65.5 -20z" />
    <glyph glyph-name="oneeighth" unicode="&#x215b;" horiz-adv-x="902" 
d="M254 0h-68l441 700h68zM707 372q68 0 106 -27.5t38 -74.5q0 -63 -60 -82q31 -8 52 -32t21 -57q0 -50 -42.5 -78.5t-114.5 -28.5t-114 28.5t-42 78.5q0 33 21 57t51 32q-59 20 -59 82q0 46 38 74t105 28zM707 46q97 0 97 56q0 58 -97 58t-97 -58q0 -56 97 -56zM707 209
q41 0 63 15t22 41q0 53 -85 53t-85 -53q0 -26 22.5 -41t62.5 -15zM194 336v299l-105 -33l-17 50l134 50h49v-366h-61z" />
    <glyph glyph-name="threeeighths" unicode="&#x215c;" horiz-adv-x="902" 
d="M191 654q-84 0 -89 -67h-58q4 56 42.5 88.5t105.5 32.5q61 0 99.5 -27.5t38.5 -80.5q0 -26 -13 -45t-33 -25q58 -16 58 -86q0 -54 -42 -85t-108 -31q-144 0 -153 120h59q6 -66 94 -66t88 63q0 54 -70 54h-46v52h46q60 0 60 46q0 57 -79 57zM264 0h-68l441 700h68z
M707 372q68 0 106 -27.5t38 -74.5q0 -63 -60 -82q31 -8 52 -32t21 -57q0 -50 -42.5 -78.5t-114.5 -28.5t-114 28.5t-42 78.5q0 33 21 57t51 32q-59 20 -59 82q0 46 38 74t105 28zM707 46q97 0 97 56q0 58 -97 58t-97 -58q0 -56 97 -56zM707 209q41 0 63 15t22 41
q0 53 -85 53t-85 -53q0 -26 22.5 -41t62.5 -15z" />
    <glyph glyph-name="fiveeighths" unicode="&#x215d;" horiz-adv-x="902" 
d="M196 383q42 0 64.5 18.5t22.5 48.5q0 70 -91 70q-52 0 -82 -19l-49 14l12 185h248v-55h-196l-6 -93q31 17 83 17q67 0 105 -32.5t38 -84.5q0 -57 -41.5 -90.5t-106.5 -33.5q-69 0 -107.5 30.5t-41.5 85.5h57q6 -61 91 -61zM264 0h-68l441 700h68zM707 372q68 0 106 -27.5
t38 -74.5q0 -63 -60 -82q31 -8 52 -32t21 -57q0 -50 -42.5 -78.5t-114.5 -28.5t-114 28.5t-42 78.5q0 33 21 57t51 32q-59 20 -59 82q0 46 38 74t105 28zM707 46q97 0 97 56q0 58 -97 58t-97 -58q0 -56 97 -56zM707 209q41 0 63 15t22 41q0 53 -85 53t-85 -53
q0 -26 22.5 -41t62.5 -15z" />
    <glyph glyph-name="seveneighths" unicode="&#x215e;" horiz-adv-x="902" 
d="M335 653l-179 -317h-69l174 309h-211v55h285v-47zM233 0h-68l441 700h68zM707 372q68 0 106 -27.5t38 -74.5q0 -63 -60 -82q31 -8 52 -32t21 -57q0 -50 -42.5 -78.5t-114.5 -28.5t-114 28.5t-42 78.5q0 33 21 57t51 32q-59 20 -59 82q0 46 38 74t105 28zM707 46
q97 0 97 56q0 58 -97 58t-97 -58q0 -56 97 -56zM707 209q41 0 63 15t22 41q0 53 -85 53t-85 -53q0 -26 22.5 -41t62.5 -15z" />
    <glyph glyph-name="arrowleft" unicode="&#x2190;" horiz-adv-x="670" 
d="M40 240l223 224l23 -14l-72 -179l416 1v-64l-416 1l72 -178l-23 -14z" />
    <glyph glyph-name="arrowup" unicode="&#x2191;" horiz-adv-x="710" 
d="M355 556l224 -224l-15 -22l-178 71l1 -376h-64l1 376l-179 -71l-14 22z" />
    <glyph glyph-name="arrowright" unicode="&#x2192;" horiz-adv-x="670" 
d="M407 464l223 -224l-223 -223l-23 14l71 178l-415 -1v64l415 -1l-71 179z" />
    <glyph glyph-name="arrowdown" unicode="&#x2193;" horiz-adv-x="710" 
d="M355 -75l-224 224l15 22l178 -72l-1 377h64l-1 -377l179 72l14 -22z" />
    <glyph glyph-name="arrowboth" unicode="&#x2194;" horiz-adv-x="832" 
d="M40 230l223 224l23 -14l-72 -179h403l-71 179l22 14l224 -224l-224 -223l-22 14l71 178h-403l72 -178l-23 -14z" />
    <glyph glyph-name="arrowupdn" unicode="&#x2195;" horiz-adv-x="710" 
d="M355 -126l-224 224l14 23l179 -73l-1 364l-178 -72l-14 23l224 224l224 -224l-15 -23l-177 72l-1 -364l178 73l15 -23z" />
    <glyph glyph-name="arrowupleft" unicode="&#x2196;" horiz-adv-x="670" 
d="M120 450h317l5 -27l-176 -76l295 -293l-45 -46l-294 295l-75 -176l-27 6v317z" />
    <glyph glyph-name="arrowupright" unicode="&#x2197;" horiz-adv-x="670" 
d="M233 450h317v-317l-27 -6l-75 176l-294 -295l-45 46l295 293l-176 76z" />
    <glyph glyph-name="arrowdownright" unicode="&#x2198;" horiz-adv-x="670" 
d="M550 8h-317l-5 27l176 75l-295 294l45 46l294 -296l75 177l27 -6v-317z" />
    <glyph glyph-name="arrowdownleft" unicode="&#x2199;" horiz-adv-x="670" 
d="M437 8h-317v317l27 6l75 -177l294 296l45 -46l-295 -294l176 -75z" />
    <glyph glyph-name="partialdiff" unicode="&#x2202;" horiz-adv-x="615" 
d="M300 458q66 0 116 -28t72 -78q1 9 1 30q0 71 -13.5 127.5t-51.5 97t-98 40.5q-41 0 -73.5 -20.5t-43.5 -55.5h-72q17 62 68.5 100.5t124.5 38.5q83 0 136.5 -47t74 -117t20.5 -162q0 -72 -13.5 -137t-43.5 -125t-87 -96t-136 -36q-101 0 -166 60.5t-65 155.5
q0 101 72.5 176.5t177.5 75.5zM282 55q72 0 129 52t57 131q0 67 -46 111.5t-116 44.5q-76 0 -129 -53t-53 -130q1 -70 44.5 -113t113.5 -43z" />
    <glyph glyph-name="Delta" unicode="&#x2206;" horiz-adv-x="712" 
d="M582 68l-226 517l-227 -517h453zM672 0h-632v29l301 681h29l302 -681v-29z" />
    <glyph glyph-name="product" unicode="&#x220f;" horiz-adv-x="743" 
d="M40 634v66h663v-66h-129v-634h-75v634h-256v-634h-74v634h-129z" />
    <glyph glyph-name="summation" unicode="&#x2211;" horiz-adv-x="672" 
d="M346 354l-265 293v53h523v-66h-420l231 -253v-54l-239 -261h436v-66h-539v53z" />
    <glyph glyph-name="minus" unicode="&#x2212;" horiz-adv-x="610" 
d="M496 277v-65h-382v65h382z" />
    <glyph glyph-name="radical" unicode="&#x221a;" horiz-adv-x="644" 
d="M65 289v61h128l131 -339l224 759h71l-255 -852h-68l-149 371h-82z" />
    <glyph glyph-name="infinity" unicode="&#x221e;" horiz-adv-x="796" 
d="M746 331q0 -65 -45.5 -109t-116.5 -44q-53 0 -92 25t-95 88q-56 -63 -94 -87.5t-91 -24.5q-71 0 -116.5 43.5t-45.5 108.5t45.5 108.5t116.5 43.5q52 0 90 -25t96 -89q55 63 94 88.5t92 25.5q71 0 116.5 -43.5t45.5 -108.5zM211 232q40 0 71.5 20.5t80.5 77.5
q-50 57 -81.5 78.5t-70.5 21.5q-48 0 -74 -26.5t-26 -72.5t26 -72.5t74 -26.5zM684 331q0 46 -25.5 72.5t-74.5 26.5q-39 0 -70 -21t-82 -78q52 -58 82.5 -78.5t69.5 -20.5q49 0 74.5 26t25.5 73z" />
    <glyph glyph-name="integral" unicode="&#x222b;" horiz-adv-x="414" 
d="M187 76q0 68 -15.5 208t-15.5 214q0 129 37 191.5t103 62.5q25 0 55 -6v-61q-24 3 -40 3q-85 0 -85 -196q0 -69 15.5 -209t15.5 -214q0 -128 -36.5 -190.5t-102.5 -62.5q-25 0 -55 6v61q24 -3 41 -3q83 0 83 196z" />
    <glyph glyph-name="approxequal" unicode="&#x2248;" horiz-adv-x="610" 
d="M458 212l57 -6q-17 -114 -121 -114q-33 0 -93 28.5t-85 28.5q-49 0 -63 -54l-58 5q17 114 122 114q33 0 92.5 -28.5t84.5 -28.5q50 0 64 55zM458 394l57 -5q-17 -115 -121 -115q-33 0 -93 29t-85 29q-49 0 -63 -55l-58 5q17 115 122 115q33 0 92.5 -29t84.5 -29
q50 0 64 55z" />
    <glyph glyph-name="notequal" unicode="&#x2260;" horiz-adv-x="610" 
d="M486 478l-67 -107h101v-65h-142l-77 -123h219v-66h-260l-80 -128l-55 31l60 97h-95v66h136l77 123h-213v65h254l86 138z" />
    <glyph glyph-name="lessequal" unicode="&#x2264;" horiz-adv-x="610" 
d="M106 274v62l396 177v-81l-314 -127l314 -127v-82zM502 65v-65h-396v65h396z" />
    <glyph glyph-name="greaterequal" unicode="&#x2265;" horiz-adv-x="610" 
d="M504 336v-62l-396 -178v82l314 127l-314 127v81zM108 0v65h396v-65h-396z" />
    <glyph glyph-name="triagup" unicode="&#x25b2;" horiz-adv-x="550" 
d="M445 108h-340l170 290z" />
    <glyph glyph-name="triagrt" unicode="&#x25ba;" horiz-adv-x="550" 
d="M142 83v340l309 -170z" />
    <glyph glyph-name="triagdn" unicode="&#x25bc;" horiz-adv-x="550" 
d="M105 398h340l-170 -290z" />
    <glyph glyph-name="triaglf" unicode="&#x25c4;" horiz-adv-x="550" 
d="M408 423v-340l-309 170z" />
    <glyph glyph-name="lozenge" unicode="&#x25ca;" horiz-adv-x="649" 
d="M570 350l-230 -360h-31l-230 360l230 360h31zM496 350l-171 274l-172 -274l172 -274z" />
    <glyph glyph-name="uni25E2" unicode="&#x25e2;" horiz-adv-x="550" 
d="M413 103h-322l322 322v-322z" />
    <glyph glyph-name="uni25E3" unicode="&#x25e3;" horiz-adv-x="550" 
d="M459 103h-322v322z" />
    <glyph glyph-name="uni25E4" unicode="&#x25e4;" horiz-adv-x="550" 
d="M137 425h322l-322 -322v322z" />
    <glyph glyph-name="uni25E5" unicode="&#x25e5;" horiz-adv-x="550" 
d="M91 425h322v-322z" />
    <glyph glyph-name="uniE000" unicode="&#xe000;" horiz-adv-x="0" 
 />
    <glyph glyph-name="a.alt" unicode="&#xe001;" horiz-adv-x="514" 
d="M256 382q-51 0 -81 -16.5t-35 -44.5h-68q7 53 55 87t129 34q95 0 141 -45t46 -118v-279h-69v66q-53 -73 -171 -73q-66 0 -111.5 31t-45.5 96q0 59 41.5 91.5t121.5 32.5h165v17q0 121 -118 121zM212 50q74 0 118 32t44 89v18h-151q-59 0 -84 -16.5t-25 -52.5
q0 -70 98 -70z" />
    <glyph glyph-name="g.alt" unicode="&#xe002;" horiz-adv-x="514" 
d="M256 443q32 0 61 -9h183v-59h-92q40 -46 40 -102q0 -72 -54 -120.5t-138 -48.5q-53 0 -97 22q-39 -10 -39 -50q0 -47 75 -47h135q72 0 110 -29.5t38 -84.5q0 -69 -59.5 -108t-160.5 -39t-157.5 35t-56.5 100t54 88q-44 27 -44 79q0 33 17 56t42 34q-49 47 -49 113
q0 72 54 121t138 49zM256 161q55 0 89.5 31.5t34.5 80.5q0 50 -34.5 81t-89.5 31t-89.5 -31t-34.5 -81q0 -49 34.5 -80.5t89.5 -31.5zM312 -26h-128q-74 0 -74 -68q0 -83 152 -83q69 0 109.5 21.5t40.5 63.5q0 66 -100 66z" />
    <glyph glyph-name="aacute.alt" unicode="&#xe003;" horiz-adv-x="514" 
d="M256 382q-51 0 -81 -16.5t-35 -44.5h-68q7 53 55 87t129 34q95 0 141 -45t46 -118v-279h-69v66q-53 -73 -171 -73q-66 0 -111.5 31t-45.5 96q0 59 41.5 91.5t121.5 32.5h165v17q0 121 -118 121zM212 50q74 0 118 32t44 89v18h-151q-59 0 -84 -16.5t-25 -52.5
q0 -70 98 -70zM360 689l52 -57l-156 -118l-35 34z" />
    <glyph glyph-name="agrave.alt" unicode="&#xe004;" horiz-adv-x="514" 
d="M256 382q-51 0 -81 -16.5t-35 -44.5h-68q7 53 55 87t129 34q95 0 141 -45t46 -118v-279h-69v66q-53 -73 -171 -73q-66 0 -111.5 31t-45.5 96q0 59 41.5 91.5t121.5 32.5h165v17q0 121 -118 121zM212 50q74 0 118 32t44 89v18h-151q-59 0 -84 -16.5t-25 -52.5
q0 -70 98 -70zM100 632l52 57l139 -141l-35 -34z" />
    <glyph glyph-name="acircumflex.alt" unicode="&#xe005;" horiz-adv-x="514" 
d="M256 382q-51 0 -81 -16.5t-35 -44.5h-68q7 53 55 87t129 34q95 0 141 -45t46 -118v-279h-69v66q-53 -73 -171 -73q-66 0 -111.5 31t-45.5 96q0 59 41.5 91.5t121.5 32.5h165v17q0 121 -118 121zM212 50q74 0 118 32t44 89v18h-151q-59 0 -84 -16.5t-25 -52.5
q0 -70 98 -70zM217 660h78l120 -140h-74l-85 86l-85 -86h-74z" />
    <glyph glyph-name="adieresis.alt" unicode="&#xe006;" horiz-adv-x="514" 
d="M256 382q-51 0 -81 -16.5t-35 -44.5h-68q7 53 55 87t129 34q95 0 141 -45t46 -118v-279h-69v66q-53 -73 -171 -73q-66 0 -111.5 31t-45.5 96q0 59 41.5 91.5t121.5 32.5h165v17q0 121 -118 121zM212 50q74 0 118 32t44 89v18h-151q-59 0 -84 -16.5t-25 -52.5
q0 -70 98 -70zM113 569q0 21 13 34t34 13t34 -13.5t13 -33.5q0 -21 -13 -34t-34 -13q-22 0 -34.5 13t-12.5 34zM305 569q0 20 13 33.5t34 13.5t34 -13t13 -34t-12.5 -34t-34.5 -13q-21 0 -34 13t-13 34z" />
    <glyph glyph-name="atilde.alt" unicode="&#xe007;" horiz-adv-x="514" 
d="M256 382q-51 0 -81 -16.5t-35 -44.5h-68q7 53 55 87t129 34q95 0 141 -45t46 -118v-279h-69v66q-53 -73 -171 -73q-66 0 -111.5 31t-45.5 96q0 59 41.5 91.5t121.5 32.5h165v17q0 121 -118 121zM212 50q74 0 118 32t44 89v18h-151q-59 0 -84 -16.5t-25 -52.5
q0 -70 98 -70zM413 609q-21 -94 -91 -94q-22 0 -67 20.5t-63 20.5q-31 0 -45 -38l-48 5q21 94 91 94q22 0 67 -20.5t63 -20.5q32 0 45 37z" />
    <glyph glyph-name="aring.alt" unicode="&#xe008;" horiz-adv-x="514" 
d="M256 382q-51 0 -81 -16.5t-35 -44.5h-68q7 53 55 87t129 34q95 0 141 -45t46 -118v-279h-69v66q-53 -73 -171 -73q-66 0 -111.5 31t-45.5 96q0 59 41.5 91.5t121.5 32.5h165v17q0 121 -118 121zM256 505q-44 0 -72 27t-28 69q0 41 28.5 68t71.5 27t71.5 -27t28.5 -68
q0 -42 -28 -69t-72 -27zM212 50q74 0 118 32t44 89v18h-151q-59 0 -84 -16.5t-25 -52.5q0 -70 98 -70zM256 547q24 0 39 15t15 39t-15 39t-39 15t-39 -15t-15 -39t15 -39t39 -15z" />
    <glyph glyph-name="amacron.alt" unicode="&#xe009;" horiz-adv-x="514" 
d="M256 382q-51 0 -81 -16.5t-35 -44.5h-68q7 53 55 87t129 34q95 0 141 -45t46 -118v-279h-69v66q-53 -73 -171 -73q-66 0 -111.5 31t-45.5 96q0 59 41.5 91.5t121.5 32.5h165v17q0 121 -118 121zM212 50q74 0 118 32t44 89v18h-151q-59 0 -84 -16.5t-25 -52.5
q0 -70 98 -70zM407 597v-58h-302v58h302z" />
    <glyph glyph-name="abreve.alt" unicode="&#xe00a;" horiz-adv-x="514" 
d="M256 382q-51 0 -81 -16.5t-35 -44.5h-68q7 53 55 87t129 34q95 0 141 -45t46 -118v-279h-69v66q-53 -73 -171 -73q-66 0 -111.5 31t-45.5 96q0 59 41.5 91.5t121.5 32.5h165v17q0 121 -118 121zM212 50q74 0 118 32t44 89v18h-151q-59 0 -84 -16.5t-25 -52.5
q0 -70 98 -70zM256 518q-73 0 -111 39t-48 95h62q5 -32 31 -54.5t66 -22.5t66 22.5t31 54.5h62q-10 -56 -48 -95t-111 -39z" />
    <glyph glyph-name="aogonek.alt" unicode="&#xe00b;" horiz-adv-x="514" 
d="M440 -114l24 -40q-40 -36 -93 -36q-41 0 -68.5 20t-27.5 54q0 66 99 118v65q-53 -74 -171 -74q-66 0 -111.5 31t-45.5 96q0 59 41.5 91.5t121.5 32.5h165v17q0 121 -118 121q-51 0 -81 -16.5t-35 -44.5h-68q7 53 55 87t129 34q95 0 141 -45t46 -118v-279h-1
q-99 -49 -99 -101q0 -30 41 -30q31 0 56 17zM212 50q74 0 118 32t44 89v18h-151q-59 0 -84 -16.5t-25 -52.5q0 -70 98 -70z" />
    <glyph glyph-name="aringacute.alt" unicode="&#xe00c;" horiz-adv-x="514" 
d="M256 382q-51 0 -81 -16.5t-35 -44.5h-68q7 53 55 87t129 34q95 0 141 -45t46 -118v-279h-69v66q-53 -73 -171 -73q-66 0 -111.5 31t-45.5 96q0 59 41.5 91.5t121.5 32.5h165v17q0 121 -118 121zM256 505q-44 0 -72 27t-28 69q0 41 28.5 68t71.5 27t71.5 -27t28.5 -68
q0 -42 -28 -69t-72 -27zM212 50q74 0 118 32t44 89v18h-151q-59 0 -84 -16.5t-25 -52.5q0 -70 98 -70zM360 915l52 -57l-156 -118l-35 34zM256 547q24 0 39 15t15 39t-15 39t-39 15t-39 -15t-15 -39t15 -39t39 -15z" />
    <glyph glyph-name="gcircumflex.alt" unicode="&#xe00d;" horiz-adv-x="514" 
d="M256 443q32 0 61 -9h183v-59h-92q40 -46 40 -102q0 -72 -54 -120.5t-138 -48.5q-53 0 -97 22q-39 -10 -39 -50q0 -47 75 -47h135q72 0 110 -29.5t38 -84.5q0 -69 -59.5 -108t-160.5 -39t-157.5 35t-56.5 100t54 88q-44 27 -44 79q0 33 17 56t42 34q-49 47 -49 113
q0 72 54 121t138 49zM256 161q55 0 89.5 31.5t34.5 80.5q0 50 -34.5 81t-89.5 31t-89.5 -31t-34.5 -81q0 -49 34.5 -80.5t89.5 -31.5zM312 -26h-128q-74 0 -74 -68q0 -83 152 -83q69 0 109.5 21.5t40.5 63.5q0 66 -100 66zM221 660h78l120 -140h-74l-85 86l-85 -86h-74z" />
    <glyph glyph-name="gbreve.alt" unicode="&#xe00e;" horiz-adv-x="514" 
d="M256 443q32 0 61 -9h183v-59h-92q40 -46 40 -102q0 -72 -54 -120.5t-138 -48.5q-53 0 -97 22q-39 -10 -39 -50q0 -47 75 -47h135q72 0 110 -29.5t38 -84.5q0 -69 -59.5 -108t-160.5 -39t-157.5 35t-56.5 100t54 88q-44 27 -44 79q0 33 17 56t42 34q-49 47 -49 113
q0 72 54 121t138 49zM256 161q55 0 89.5 31.5t34.5 80.5q0 50 -34.5 81t-89.5 31t-89.5 -31t-34.5 -81q0 -49 34.5 -80.5t89.5 -31.5zM312 -26h-128q-74 0 -74 -68q0 -83 152 -83q69 0 109.5 21.5t40.5 63.5q0 66 -100 66zM260 518q-73 0 -111 39t-48 95h62q5 -32 31 -54.5
t66 -22.5t66 22.5t31 54.5h62q-10 -56 -48 -95t-111 -39z" />
    <glyph glyph-name="gdotaccent.alt" unicode="&#xe00f;" horiz-adv-x="514" 
d="M256 443q32 0 61 -9h183v-59h-92q40 -46 40 -102q0 -72 -54 -120.5t-138 -48.5q-53 0 -97 22q-39 -10 -39 -50q0 -47 75 -47h135q72 0 110 -29.5t38 -84.5q0 -69 -59.5 -108t-160.5 -39t-157.5 35t-56.5 100t54 88q-44 27 -44 79q0 33 17 56t42 34q-49 47 -49 113
q0 72 54 121t138 49zM256 161q55 0 89.5 31.5t34.5 80.5q0 50 -34.5 81t-89.5 31t-89.5 -31t-34.5 -81q0 -49 34.5 -80.5t89.5 -31.5zM312 -26h-128q-74 0 -74 -68q0 -83 152 -83q69 0 109.5 21.5t40.5 63.5q0 66 -100 66zM213 578q0 21 12.5 34t34.5 13t34.5 -13t12.5 -34
t-13 -34t-34 -13t-34 13t-13 34z" />
    <glyph glyph-name="gcommaaccent.alt" unicode="&#xe010;" horiz-adv-x="514" 
d="M256 443q32 0 61 -9h183v-59h-92q40 -46 40 -102q0 -72 -54 -120.5t-138 -48.5q-53 0 -97 22q-39 -10 -39 -50q0 -47 75 -47h135q72 0 110 -29.5t38 -84.5q0 -69 -59.5 -108t-160.5 -39t-157.5 35t-56.5 100t54 88q-44 27 -44 79q0 33 17 56t42 34q-49 47 -49 113
q0 72 54 121t138 49zM256 161q55 0 89.5 31.5t34.5 80.5q0 50 -34.5 81t-89.5 31t-89.5 -31t-34.5 -81q0 -49 34.5 -80.5t89.5 -31.5zM312 -26h-128q-74 0 -74 -68q0 -83 152 -83q69 0 109.5 21.5t40.5 63.5q0 66 -100 66zM223 520l38 164h58l-22 -164h-74z" />
    <glyph glyph-name="grave.cap" unicode="&#xe011;" 
d="M116 857l52 60l133 -124l-35 -37z" />
    <glyph glyph-name="acute.cap" unicode="&#xe012;" 
d="M332 917l52 -60l-150 -101l-35 37z" />
    <glyph glyph-name="dieresis.cap" unicode="&#xe013;" 
d="M95 805q0 21 13.5 34.5t35.5 13.5t35.5 -13.5t13.5 -34.5q0 -22 -13.5 -35.5t-35.5 -13.5t-35.5 13.5t-13.5 35.5zM307 805q0 21 13.5 34.5t35.5 13.5t35.5 -13.5t13.5 -34.5q0 -22 -13.5 -35.5t-35.5 -13.5t-35.5 13.5t-13.5 35.5z" />
    <glyph glyph-name="circumflex.cap" unicode="&#xe014;" 
d="M211 896h78l124 -136h-75l-88 80l-88 -80h-75z" />
    <glyph glyph-name="tilde.cap" unicode="&#xe015;" 
d="M361 857l50 -7q-21 -94 -93 -94q-28 0 -71.5 20t-62.5 20q-32 0 -45 -37l-50 6q21 95 93 95q28 0 71.5 -20t62.5 -20q32 0 45 37z" />
    <glyph glyph-name="macron.cap" unicode="&#xe016;" 
d="M407 819v-59h-314v59h314z" />
    <glyph glyph-name="breve.cap" unicode="&#xe017;" 
d="M250 756q-73 0 -113 38.5t-50 92.5h65q4 -31 30 -51.5t68 -20.5t68 20.5t30 51.5h65q-10 -54 -50 -92.5t-113 -38.5z" />
    <glyph glyph-name="dotaccent.cap" unicode="&#xe018;" 
d="M201 805q0 21 13.5 35t35.5 14t35.5 -14t13.5 -35q0 -22 -13.5 -35.5t-35.5 -13.5t-35.5 13.5t-13.5 35.5z" />
    <glyph glyph-name="ring.cap" unicode="&#xe019;" 
d="M250 800q23 0 38 15t15 38t-15 38t-38 15t-38 -15t-15 -38t15 -38t38 -15zM250 756q-44 0 -73 27.5t-29 69.5q0 43 29 70.5t73 27.5t73 -27.5t29 -70.5q0 -42 -29 -69.5t-73 -27.5z" />
    <glyph glyph-name="cedilla.cap" unicode="&#xe01a;" 
d="M257 -163h-84l64 165h68z" />
    <glyph glyph-name="hungarumlaut.cap" unicode="&#xe01b;" 
d="M228 884l-100 -128l-45 24l75 146zM412 884l-99 -128l-46 24l75 146z" />
    <glyph glyph-name="ogonek.cap" unicode="&#xe01c;" 
d="M322 -111l24 -41q-41 -37 -97 -37q-43 0 -70.5 19.5t-27.5 55.5q0 45 40 78t113 63l17 -27q-100 -45 -100 -98q0 -30 41 -30q29 0 60 17z" />
    <glyph glyph-name="caron.cap" unicode="&#xe01d;" 
d="M289 760h-78l-124 136h75l88 -79l88 79h75z" />
    <glyph glyph-name="commaaccent.cap" unicode="&#xe01e;" 
d="M299 -44l-40 -167h-60l22 167h78z" />
    <glyph glyph-name="bar.cap" unicode="&#xe01f;" 
d="M425 588v-59h-350v59h350z" />
    <glyph glyph-name="dieresis.alt" unicode="&#xe020;" 
d="M117 569q0 20 13 33.5t34 13.5t34 -13t13 -34t-12.5 -34t-34.5 -13q-21 0 -34 13t-13 34zM289 569q0 21 13 34t34 13t34 -13.5t13 -33.5q0 -21 -13 -34t-34 -13q-22 0 -34.5 13t-12.5 34z" />
    <glyph glyph-name="circumflex.alt" unicode="&#xe021;" 
d="M211 658h78l106 -138h-73l-72 85l-72 -85h-73z" />
    <glyph glyph-name="tilde.alt" unicode="&#xe022;" 
d="M390 609q-20 -91 -84 -91q-20 0 -57.5 17.5t-52.5 17.5q-25 0 -38 -35l-48 5q20 91 84 91q20 0 57.5 -17.5t52.5 -17.5q26 0 38 34z" />
    <glyph glyph-name="macron.alt" unicode="&#xe023;" 
d="M379 597v-57h-258v57h258z" />
    <glyph glyph-name="breve.alt" unicode="&#xe024;" 
d="M250 516q-66 0 -102.5 39.5t-42.5 92.5h62q3 -31 24 -53t59 -22t59 22t24 53h62q-6 -53 -42.5 -92.5t-102.5 -39.5z" />
    <glyph glyph-name="ogonek.alt" unicode="&#xe025;" 
d="M442 -146q-46 -44 -107 -44q-53 0 -86.5 27t-33.5 68q0 47 39 79.5t115 62.5l9 -27q-50 -26 -73.5 -49t-23.5 -52q0 -23 17 -36.5t44 -13.5q35 0 65 28z" />
    <glyph glyph-name="ogonek.alt01" unicode="&#xe026;" 
d="M352 -115l23 -39q-36 -36 -88 -36q-43 0 -70 22.5t-27 59.5q0 83 111 139l20 -31q-39 -21 -53.5 -42t-14.5 -48q0 -42 45 -42q30 0 54 17z" />
    <glyph glyph-name="caron.alt" unicode="&#xe027;" 
d="M210 513l9 187h71l-31 -187h-49z" />
    <glyph glyph-name="croat.alt" unicode="&#xe028;" 
d="M424 585v-57h-348v57h348z" />
    <glyph glyph-name="bar.alt" unicode="&#xe029;" 
d="M424 585v-57h-348v57h348z" />
    <glyph glyph-name="commaaccent.alt" unicode="&#xe02a;" 
d="M203 520l38 164h58l-22 -164h-74z" />
    <glyph glyph-name="ogonek.calt" unicode="&#xe02b;" 
d="M322 -111l24 -41q-41 -37 -97 -37q-44 0 -71 21t-27 61q0 50 43.5 86.5t117.5 67.5l18 -27q-50 -21 -79.5 -50.5t-29.5 -58.5q0 -39 41 -39q29 0 60 17z" />
    <glyph glyph-name="ogonek.calt01" unicode="&#xe02c;" 
d="M321 -114l24 -42q-40 -33 -91 -33q-40 0 -69 21t-29 58q0 86 130 137l18 -27q-78 -35 -78 -94q0 -34 41 -34q30 0 54 14z" />
    <glyph glyph-name="caron.calt" unicode="&#xe02d;" 
d="M208 512l9 188h75l-31 -188h-53z" />
    <glyph glyph-name="quadspace" unicode="&#xe02e;" horiz-adv-x="60" 
 />
    <glyph glyph-name="halfspace" unicode="&#xe02f;" horiz-adv-x="120" 
 />
    <glyph glyph-name="zero.old" unicode="&#xe030;" horiz-adv-x="637" 
d="M319 494q106 0 179.5 -73t73.5 -179t-73.5 -179t-179.5 -73t-180 73t-74 179t74 179t180 73zM319 56q76 0 127.5 53t51.5 133q0 81 -51.5 134t-127.5 53t-128 -53.5t-52 -133.5t52 -133t128 -53z" />
    <glyph glyph-name="one.old" unicode="&#xe031;" horiz-adv-x="463" 
d="M64 64h144v349l-125 -40l-19 56l162 59h54v-424h138v-64h-354v64z" />
    <glyph glyph-name="two.old" unicode="&#xe032;" horiz-adv-x="514" 
d="M255 431q-124 0 -132 -108h-71q6 78 55.5 124.5t147.5 46.5q93 0 142.5 -42.5t49.5 -107.5q0 -62 -31.5 -99.5t-108.5 -90.5l-130 -90h286v-64h-406v55l203 141q61 42 88 74t27 70q0 40 -30.5 65.5t-89.5 25.5z" />
    <glyph glyph-name="three.old" unicode="&#xe033;" horiz-adv-x="601" 
d="M295 429q-72 0 -112 -36.5t-44 -92.5h-73q6 85 66 139.5t164 54.5q93 0 155.5 -46.5t62.5 -130.5q0 -61 -25.5 -100t-70.5 -51q57 -14 93 -60t36 -115q0 -98 -70 -157.5t-180 -59.5q-115 0 -179 54t-71 148h72q5 -63 50 -100t128 -37q82 0 127.5 40t45.5 113
q0 68 -41.5 102.5t-113.5 34.5h-62v62h54q64 0 97.5 31.5t33.5 90.5q0 55 -39.5 85.5t-103.5 30.5z" />
    <glyph glyph-name="four.old" unicode="&#xe034;" horiz-adv-x="664" 
d="M492 486v-421h144v-65h-144v-216h-74v216h-373v55l379 431h68zM137 65h281v317z" />
    <glyph glyph-name="five.old" unicode="&#xe035;" horiz-adv-x="604" 
d="M76 162l15 322h406v-68h-337l-11 -214q23 16 67 27t90 11q114 0 179.5 -63.5t65.5 -163.5q0 -106 -72 -172.5t-180 -66.5q-116 0 -180.5 54.5t-70.5 147.5h73q5 -63 51 -99.5t126 -36.5q77 0 126.5 48t49.5 123q0 71 -46.5 118.5t-130.5 47.5q-99 0 -151 -40z" />
    <glyph glyph-name="six.old" unicode="&#xe036;" horiz-adv-x="628" 
d="M336 458q101 0 170 -66.5t69 -163.5q0 -105 -68.5 -171.5t-175.5 -66.5q-116 0 -191.5 83t-75.5 251q0 76 14 141t44.5 122t87 90t133.5 33q89 0 145.5 -44.5t68.5 -114.5h-74q-8 44 -45 69t-95 25q-195 0 -204 -296q29 49 81.5 79t115.5 30zM329 57q77 0 123 47t46 124
q0 72 -47 119t-122 47q-73 0 -125 -48.5t-52 -117.5q0 -73 52 -122t125 -49z" />
    <glyph glyph-name="seven.old" unicode="&#xe037;" horiz-adv-x="558" 
d="M509 429l-329 -645h-81l327 634h-382v66h465v-55z" />
    <glyph glyph-name="eight.old" unicode="&#xe038;" horiz-adv-x="640" 
d="M320 710q108 0 173.5 -52t65.5 -138q0 -54 -30.5 -97.5t-87.5 -63.5q67 -21 103 -66.5t36 -106.5q0 -91 -71.5 -143.5t-188.5 -52.5t-188.5 52.5t-71.5 143.5q0 62 36 107t103 66q-57 20 -88 64t-31 97q0 86 65.5 138t174.5 52zM320 56q84 0 134.5 34t50.5 96t-50.5 100
t-134.5 38q-85 0 -135 -38t-50 -100t50.5 -96t134.5 -34zM320 645q-75 0 -120.5 -33.5t-45.5 -95.5q0 -56 44.5 -92.5t121.5 -36.5t121 36.5t44 92.5q0 62 -45.5 95.5t-119.5 33.5z" />
    <glyph glyph-name="nine.old" unicode="&#xe039;" horiz-adv-x="626" 
d="M294 26q-101 0 -170 66.5t-69 163.5q0 105 68.5 171.5t175.5 66.5q117 0 192.5 -83t75.5 -251q0 -60 -8.5 -113t-28.5 -104t-51 -87.5t-80.5 -59t-111.5 -22.5q-89 0 -145.5 44.5t-68.5 114.5h74q8 -44 45 -69t95 -25t99 26t62.5 72t31 93.5t10.5 104.5
q-28 -49 -80.5 -79t-115.5 -30zM301 427q-77 0 -123 -47t-46 -124q0 -72 47 -119t122 -47q73 0 125 48.5t52 117.5q0 73 -52 122t-125 49z" />
    <glyph glyph-name="zero.tab" unicode="&#xe03a;" horiz-adv-x="630" 
d="M585 350q0 -167 -73 -263.5t-197 -96.5t-196.5 96.5t-72.5 263.5t72.5 263.5t196.5 96.5t197 -96.5t73 -263.5zM508 350q0 138 -51.5 215t-141.5 77t-141 -76.5t-51 -215.5t51 -215.5t141 -76.5t141.5 77t51.5 215z" />
    <glyph glyph-name="one.tab" unicode="&#xe03b;" horiz-adv-x="630" 
d="M331 0v629l-191 -55l-23 58l225 73h64v-705h-75z" />
    <glyph glyph-name="two.tab" unicode="&#xe03c;" horiz-adv-x="630" 
d="M310 642q-163 0 -172 -149h-75q6 99 69.5 158t178.5 59q110 0 173.5 -57.5t63.5 -150.5q0 -76 -39 -131.5t-126 -130.5l-196 -172h376v-68h-494v55l253 224q81 71 115 118t34 105q0 64 -42.5 102t-118.5 38z" />
    <glyph glyph-name="three.tab" unicode="&#xe03d;" horiz-adv-x="630" 
d="M313 644q-79 0 -122.5 -36.5t-48.5 -101.5h-75q6 94 69.5 149t177.5 55q99 0 166.5 -48.5t67.5 -134.5q0 -64 -27.5 -103.5t-74.5 -53.5q55 -11 89 -55.5t34 -113.5q0 -96 -71.5 -153.5t-182.5 -57.5q-119 0 -184 54t-73 148h75q11 -136 181 -136q83 0 130.5 38t47.5 108
q0 131 -157 131h-76v63h67q145 0 145 127q0 57 -45 89t-113 32z" />
    <glyph glyph-name="four.tab" unicode="&#xe03e;" horiz-adv-x="630" 
d="M497 702v-463h114v-65h-114v-174h-74v174h-395v60l400 468h69zM115 239h308v359z" />
    <glyph glyph-name="five.tab" unicode="&#xe03f;" horiz-adv-x="630" 
d="M315 56q77 0 128 46.5t51 117.5q0 67 -47.5 111t-132.5 44q-101 0 -154 -41l-70 25l16 341h418v-68h-350l-11 -232q24 16 69 27.5t91 11.5q115 0 181.5 -60.5t66.5 -156.5q0 -103 -73.5 -167.5t-181.5 -64.5q-115 0 -181.5 55.5t-72.5 146.5h73q5 -60 53 -98t127 -38z
" />
    <glyph glyph-name="six.tab" unicode="&#xe040;" horiz-adv-x="630" 
d="M342 458q105 0 175 -66.5t70 -163.5q0 -106 -69.5 -172t-180.5 -66q-120 0 -196.5 82.5t-76.5 251.5q0 60 8.5 113t28.5 104t51 87.5t80.5 59t111.5 22.5q90 0 149.5 -45t71.5 -114h-74q-8 44 -48 68.5t-99 24.5q-47 0 -83 -18t-58 -46.5t-36.5 -68.5t-20.5 -79t-7 -83
q29 49 83 79t120 30zM335 57q80 0 127.5 47t47.5 124q0 72 -48 119t-127 47q-76 0 -129.5 -48t-53.5 -118q0 -73 53 -122t130 -49z" />
    <glyph glyph-name="seven.tab" unicode="&#xe041;" horiz-adv-x="630" 
d="M555 643l-327 -643h-79l322 632h-401v68h485v-57z" />
    <glyph glyph-name="eight.tab" unicode="&#xe042;" horiz-adv-x="630" 
d="M315 -10q-121 0 -194.5 52t-73.5 144q0 61 36.5 107t104.5 65q-57 19 -88.5 63.5t-31.5 98.5q0 86 67.5 138t179.5 52t180 -52t68 -138q0 -55 -31.5 -99t-89.5 -63q68 -19 105 -65t37 -107q0 -91 -74 -143.5t-195 -52.5zM315 323q-88 0 -140 -37.5t-52 -98.5
q0 -63 51.5 -97t140.5 -34t140.5 34t51.5 97q0 61 -52 98.5t-140 37.5zM315 386q79 0 125.5 37t46.5 93q0 62 -47.5 95.5t-124.5 33.5t-124.5 -33.5t-47.5 -95.5q0 -56 46.5 -93t125.5 -37z" />
    <glyph glyph-name="nine.tab" unicode="&#xe043;" horiz-adv-x="630" 
d="M297 242q-105 0 -175 66.5t-70 163.5q0 106 69 172t180 66q120 0 197 -82.5t77 -251.5q0 -76 -14 -141t-45 -122t-88 -90t-134 -33q-89 0 -148.5 45t-71.5 114h74q8 -43 48 -68t98 -25q197 0 206 296q-28 -49 -82 -79.5t-121 -30.5zM303 643q-80 0 -127 -47t-47 -124
q0 -72 47.5 -119t126.5 -47q77 0 130.5 48t53.5 118q0 74 -53.5 122.5t-130.5 48.5z" />
    <glyph glyph-name="zero.otab" unicode="&#xe044;" horiz-adv-x="630" 
d="M316 494q106 0 179.5 -73t73.5 -179t-73.5 -179t-179.5 -73t-180 73t-74 179t74 179t180 73zM316 56q76 0 127.5 53t51.5 133q0 81 -51.5 134t-127.5 53t-128 -53.5t-52 -133.5t52 -133t128 -53z" />
    <glyph glyph-name="one.otab" unicode="&#xe045;" horiz-adv-x="630" 
d="M136 64h164v349l-149 -44l-19 56l185 63h55v-424h158v-64h-394v64z" />
    <glyph glyph-name="two.otab" unicode="&#xe046;" horiz-adv-x="630" 
d="M313 431q-124 0 -132 -108h-71q6 78 55.5 124.5t147.5 46.5q93 0 142.5 -42.5t49.5 -107.5q0 -62 -31.5 -99.5t-108.5 -90.5l-130 -90h286v-64h-406v55l203 141q61 42 88 74t27 70q0 40 -30.5 65.5t-89.5 25.5z" />
    <glyph glyph-name="three.otab" unicode="&#xe047;" horiz-adv-x="630" 
d="M311 429q-72 0 -112 -36.5t-44 -92.5h-73q6 85 66 139.5t164 54.5q93 0 155.5 -46.5t62.5 -130.5q0 -61 -25.5 -100t-70.5 -51q57 -14 93 -60t36 -115q0 -98 -70 -157.5t-180 -59.5q-115 0 -179 54t-71 148h72q5 -63 50 -100t128 -37q82 0 127.5 40t45.5 113
q0 68 -41.5 102.5t-113.5 34.5h-62v62h54q64 0 97.5 31.5t33.5 90.5q0 55 -39.5 85.5t-103.5 30.5z" />
    <glyph glyph-name="four.otab" unicode="&#xe048;" horiz-adv-x="630" 
d="M474 486v-421h144v-65h-144v-216h-74v216h-373v55l379 431h68zM119 65h281v317z" />
    <glyph glyph-name="five.otab" unicode="&#xe049;" horiz-adv-x="630" 
d="M96 162l15 322h406v-68h-337l-11 -214q23 16 67 27t90 11q114 0 179.5 -63.5t65.5 -163.5q0 -106 -72 -172.5t-180 -66.5q-116 0 -180.5 54.5t-70.5 147.5h73q5 -63 51 -99.5t126 -36.5q77 0 126.5 48t49.5 123q0 71 -46.5 118.5t-130.5 47.5q-99 0 -151 -40z" />
    <glyph glyph-name="six.otab" unicode="&#xe04a;" horiz-adv-x="630" 
d="M342 458q101 0 170 -66.5t69 -163.5q0 -105 -68.5 -171.5t-175.5 -66.5q-116 0 -191.5 83t-75.5 251q0 76 14 141t44.5 122t87 90t133.5 33q89 0 145.5 -44.5t68.5 -114.5h-74q-8 44 -45 69t-95 25q-195 0 -204 -296q29 49 81.5 79t115.5 30zM335 57q77 0 123 47t46 124
q0 72 -47 119t-122 47q-73 0 -125 -48.5t-52 -117.5q0 -73 52 -122t125 -49z" />
    <glyph glyph-name="seven.otab" unicode="&#xe04b;" horiz-adv-x="630" 
d="M547 429l-329 -645h-81l327 634h-382v66h465v-55z" />
    <glyph glyph-name="eight.otab" unicode="&#xe04c;" horiz-adv-x="630" 
d="M315 710q108 0 173.5 -52t65.5 -138q0 -54 -30.5 -97.5t-87.5 -63.5q67 -21 103 -66.5t36 -106.5q0 -91 -71.5 -143.5t-188.5 -52.5t-188.5 52.5t-71.5 143.5q0 62 36 107t103 66q-57 20 -88 64t-31 97q0 86 65.5 138t174.5 52zM315 56q84 0 134.5 34t50.5 96t-50.5 100
t-134.5 38q-85 0 -135 -38t-50 -100t50.5 -96t134.5 -34zM315 645q-75 0 -120.5 -33.5t-45.5 -95.5q0 -56 44.5 -92.5t121.5 -36.5t121 36.5t44 92.5q0 62 -45.5 95.5t-119.5 33.5z" />
    <glyph glyph-name="nine.otab" unicode="&#xe04d;" horiz-adv-x="630" 
d="M294 26q-101 0 -170 66.5t-69 163.5q0 105 68.5 171.5t175.5 66.5q117 0 192.5 -83t75.5 -251q0 -60 -8.5 -113t-28.5 -104t-51 -87.5t-80.5 -59t-111.5 -22.5q-89 0 -145.5 44.5t-68.5 114.5h74q8 -44 45 -69t95 -25t99 26t62.5 72t31 93.5t10.5 104.5
q-28 -49 -80.5 -79t-115.5 -30zM301 427q-77 0 -123 -47t-46 -124q0 -72 47 -119t122 -47q73 0 125 48.5t52 117.5q0 73 -52 122t-125 49z" />
    <glyph glyph-name="fraction.alt" unicode="&#xe04e;" horiz-adv-x="276" 
d="M-49 0h-68l441 700h68z" />
    <glyph glyph-name="dollar.inferior" unicode="&#xe050;" horiz-adv-x="388" 
d="M226 238v-51q109 -12 118 -101h-59q-5 37 -59 46v-109l22 -4q54 -11 79.5 -35.5t25.5 -65.5q0 -47 -34 -74t-93 -32v-50h-50v50q-129 8 -141 109h59q9 -50 82 -55v112l-13 2q-61 13 -90 34.5t-29 68.5q0 99 132 105v50h50zM105 87q0 -22 17.5 -33.5t53.5 -19.5v101
q-71 -4 -71 -48zM235 -35l-9 2v-101q66 6 66 50q0 21 -13.5 32t-43.5 17z" />
    <glyph glyph-name="cent.inferior" unicode="&#xe051;" horiz-adv-x="388" 
d="M226 238v-50q60 -8 98.5 -44.5t43.5 -85.5h-64q-5 27 -26 47t-52 27v-264q33 6 53.5 26.5t25.5 48.5h64q-5 -50 -43.5 -87t-99.5 -44v-50h-49v50q-69 8 -115 61.5t-46 126.5t46 126.5t115 61.5v50h49zM79 0q0 -50 27 -86.5t71 -44.5v263q-44 -9 -71 -45t-27 -87z" />
    <glyph glyph-name="sterling.inferior" unicode="&#xe052;" horiz-adv-x="388" 
d="M30 23h49v20q0 64 38.5 105.5t107.5 41.5q62 0 96.5 -33.5t39.5 -84.5h-60q-2 28 -20.5 45.5t-54.5 17.5q-87 0 -87 -97v-15h125v-51h-125v-99h222v-55h-331v55h49v99h-49v51z" />
    <glyph glyph-name="yen.inferior" unicode="&#xe053;" horiz-adv-x="388" 
d="M53 -61h110v10l-18 28h-92v48h61l-101 157h68l113 -182l114 182h68l-102 -157h60v-48h-91l-18 -28v-10h109v-49h-109v-72h-62v72h-110v49z" />
    <glyph glyph-name="Euro.inferior" unicode="&#xe054;" horiz-adv-x="388" 
d="M57 0v17h-41v48h51q18 57 67.5 91t119.5 34q66 0 122 -33l-26 -48q-42 25 -96 25q-83 0 -120 -69h171v-48h-185q-1 -6 -1 -17t1 -17h139v-48h-125q37 -69 120 -69q54 0 96 25l26 -48q-56 -33 -122 -33q-70 0 -119.5 34t-67.5 91h-51v48h41v17z" />
    <glyph glyph-name="comma.inferior" unicode="&#xe055;" horiz-adv-x="176" 
d="M34 -250l27 150h74l-50 -150h-51z" />
    <glyph glyph-name="period.inferior" unicode="&#xe056;" horiz-adv-x="176" 
d="M88 -186q-22 0 -35 13t-13 32q0 20 13 33t35 13q21 0 34.5 -13t13.5 -33q0 -19 -13.5 -32t-34.5 -13z" />
    <glyph glyph-name="hyphen.inferior" unicode="&#xe057;" horiz-adv-x="241" 
d="M26 -30v60h189v-60h-189z" />
    <glyph glyph-name="dollar.superior" unicode="&#xe058;" horiz-adv-x="388" 
d="M226 938v-51q109 -12 118 -101h-59q-5 37 -59 46v-109l22 -4q54 -11 79.5 -35.5t25.5 -65.5q0 -47 -34 -74t-93 -32v-50h-50v49q-129 9 -141 110h59q8 -50 82 -56v112l-13 3q-61 13 -90 34.5t-29 68.5q0 99 132 105v50h50zM105 787q0 -22 17.5 -33.5t53.5 -19.5v101
q-71 -4 -71 -48zM235 665l-9 2v-101q66 6 66 50q0 21 -13.5 32t-43.5 17z" />
    <glyph glyph-name="cent.superior" unicode="&#xe059;" horiz-adv-x="388" 
d="M226 938v-50q60 -8 98.5 -44.5t43.5 -85.5h-64q-5 27 -26 47t-52 27v-264q33 6 53.5 26.5t25.5 48.5h64q-5 -51 -43.5 -88t-99.5 -44v-49h-49v49q-69 9 -115 62.5t-46 126.5t46 126.5t115 61.5v50h49zM79 700q0 -51 27 -87t71 -45v264q-44 -9 -71 -45t-27 -87z" />
    <glyph glyph-name="sterling.superior" unicode="&#xe05a;" horiz-adv-x="388" 
d="M30 723h49v20q0 64 38.5 105.5t107.5 41.5q62 0 96.5 -33.5t39.5 -84.5h-60q-2 28 -20.5 45.5t-54.5 17.5q-87 0 -87 -97v-15h125v-51h-125v-99h222v-55h-331v55h49v99h-49v51z" />
    <glyph glyph-name="yen.superior" unicode="&#xe05b;" horiz-adv-x="388" 
d="M53 639h110v10l-18 28h-92v48h61l-101 157h68l113 -182l114 182h68l-102 -157h60v-48h-91l-18 -28v-10h109v-49h-109v-72h-62v72h-110v49z" />
    <glyph glyph-name="Euro.superior" unicode="&#xe05c;" horiz-adv-x="388" 
d="M57 700v17h-41v48h51q18 57 67.5 91t119.5 34q66 0 122 -33l-26 -48q-42 25 -96 25q-83 0 -120 -69h171v-48h-185q-1 -6 -1 -17q0 -12 1 -17h139v-48h-125q36 -69 120 -69q54 0 96 25l26 -48q-56 -33 -122 -33q-70 0 -119.5 34t-67.5 91h-51v48h41v17z" />
    <glyph glyph-name="comma.superior" unicode="&#xe05d;" horiz-adv-x="176" 
d="M34 450l27 150h74l-50 -150h-51z" />
    <glyph glyph-name="period.superior" unicode="&#xe05e;" horiz-adv-x="176" 
d="M88 514q-22 0 -35 13t-13 32q0 20 13 33t35 13q21 0 34.5 -13t13.5 -33q0 -19 -13.5 -32t-34.5 -13z" />
    <glyph glyph-name="hyphen.superior" unicode="&#xe05f;" horiz-adv-x="241" 
d="M26 670v60h189v-60h-189z" />
    <glyph glyph-name="zero.denom" unicode="&#xe060;" horiz-adv-x="388" 
d="M194 372q76 0 122.5 -53.5t46.5 -136.5t-46.5 -136.5t-122.5 -53.5t-122 53.5t-46 136.5t46 136.5t122 53.5zM194 47q48 0 76.5 37t28.5 98t-28.5 98t-76.5 37q-47 0 -76 -37t-29 -98t29 -98t76 -37z" />
    <glyph glyph-name="one.denom" unicode="&#xe061;" horiz-adv-x="388" 
d="M194 0v299l-105 -33l-17 50l134 50h49v-366h-61z" />
    <glyph glyph-name="two.denom" unicode="&#xe062;" horiz-adv-x="388" 
d="M193 317q-81 0 -86 -76h-59q3 58 40.5 94.5t105.5 36.5q66 0 102.5 -30.5t36.5 -81.5q0 -42 -23.5 -73.5t-69.5 -66.5l-85 -65h186v-55h-288v44l143 110q41 33 58 55.5t17 48.5q0 27 -20.5 43t-57.5 16z" />
    <glyph glyph-name="three.denom" unicode="&#xe063;" horiz-adv-x="388" 
d="M191 318q-84 0 -89 -67h-58q4 56 42.5 88.5t105.5 32.5q61 0 99.5 -27.5t38.5 -80.5q0 -26 -13 -45t-33 -25q58 -16 58 -86q0 -54 -42 -85t-108 -31q-144 0 -153 120h59q6 -66 94 -66t88 63q0 54 -70 54h-46v52h46q60 0 60 46q0 57 -79 57z" />
    <glyph glyph-name="four.denom" unicode="&#xe064;" horiz-adv-x="388" 
d="M303 366v-232h58v-54h-58v-80h-62v80h-207v46l217 240h52zM106 134h136v150z" />
    <glyph glyph-name="five.denom" unicode="&#xe065;" horiz-adv-x="388" 
d="M196 47q42 0 64.5 18.5t22.5 48.5q0 70 -91 70q-52 0 -82 -19l-49 14l12 185h248v-55h-196l-6 -93q31 17 83 17q67 0 105 -32.5t38 -84.5q0 -57 -41.5 -90.5t-106.5 -33.5q-69 0 -107.5 30.5t-41.5 85.5h57q6 -61 91 -61z" />
    <glyph glyph-name="six.denom" unicode="&#xe066;" horiz-adv-x="388" 
d="M216 243q61 0 100 -34.5t39 -88.5q0 -57 -41 -92.5t-108 -35.5q-69 0 -113.5 43t-44.5 125q0 212 166 212q115 0 133 -95h-60q-8 42 -72 42q-52 0 -75 -30.5t-28 -87.5q31 42 104 42zM205 45q42 0 66 20t24 54t-24 53.5t-66 19.5t-66 -19.5t-24 -53.5t24.5 -54t65.5 -20z
" />
    <glyph glyph-name="seven.denom" unicode="&#xe067;" horiz-adv-x="388" 
d="M335 317l-179 -317h-69l174 309h-211v55h285v-47z" />
    <glyph glyph-name="eight.denom" unicode="&#xe068;" horiz-adv-x="388" 
d="M194 372q68 0 106 -27.5t38 -74.5q0 -63 -60 -82q31 -8 52 -32t21 -57q0 -50 -42.5 -78.5t-114.5 -28.5t-114 28.5t-42 78.5q0 33 21 57t51 32q-59 20 -59 82q0 46 38 74t105 28zM194 46q97 0 97 56q0 58 -97 58t-97 -58q0 -56 97 -56zM194 209q41 0 63 15t22 41
q0 53 -85 53t-85 -53q0 -26 22.5 -41t62.5 -15z" />
    <glyph glyph-name="nine.denom" unicode="&#xe069;" horiz-adv-x="388" 
d="M173 121q-61 0 -100 34.5t-39 88.5q0 57 40.5 92.5t107.5 35.5q70 0 114.5 -43t44.5 -125q0 -212 -167 -212q-114 0 -132 95h59q4 -20 24 -31t48 -11q53 0 76 30.5t27 87.5q-31 -42 -103 -42zM183 319q-41 0 -65.5 -20t-24.5 -54t24 -53.5t66 -19.5t66 19.5t24 53.5
t-24 54t-66 20z" />
    <glyph glyph-name="parenleft.denom" unicode="&#xe06a;" horiz-adv-x="275" 
d="M54 182q0 86 52 154t139 88v-53q-58 -16 -93 -68t-35 -121t35 -121t93 -68v-53q-87 20 -139 88t-52 154z" />
    <glyph glyph-name="parenright.denom" unicode="&#xe06b;" horiz-adv-x="275" 
d="M221 182q0 -86 -52.5 -154t-138.5 -88v53q58 16 92.5 68t34.5 121t-34.5 121t-92.5 68v53q86 -20 138.5 -88t52.5 -154z" />
    <glyph glyph-name="dollar.denom" unicode="&#xe06c;" horiz-adv-x="388" 
d="M226 420v-51q109 -12 118 -101h-59q-5 37 -59 46v-109l22 -4q54 -11 79.5 -35.5t25.5 -65.5q0 -47 -34 -74t-93 -32v-50h-50v50q-129 8 -141 109h59q8 -50 82 -56v112l-13 3q-61 13 -90 34.5t-29 68.5q0 99 132 105v50h50zM105 269q0 -22 17.5 -33.5t53.5 -19.5v101
q-71 -4 -71 -48zM235 147l-9 2v-101q66 6 66 50q0 21 -13.5 32t-43.5 17z" />
    <glyph glyph-name="cent.denom" unicode="&#xe06d;" horiz-adv-x="388" 
d="M226 420v-50q60 -8 98.5 -44.5t43.5 -85.5h-64q-5 27 -26 47t-52 27v-264q33 6 53.5 26.5t25.5 48.5h64q-5 -51 -43.5 -87.5t-99.5 -43.5v-50h-49v50q-69 8 -115 61.5t-46 126.5t46 126.5t115 61.5v50h49zM79 182q0 -51 27 -87t71 -45v264q-44 -9 -71 -45t-27 -87z" />
    <glyph glyph-name="sterling.denom" unicode="&#xe06e;" horiz-adv-x="388" 
d="M30 205h49v20q0 64 38.5 105.5t107.5 41.5q62 0 96.5 -33.5t39.5 -84.5h-60q-2 28 -20.5 45.5t-54.5 17.5q-87 0 -87 -97v-15h125v-51h-125v-99h222v-55h-331v55h49v99h-49v51z" />
    <glyph glyph-name="yen.denom" unicode="&#xe06f;" horiz-adv-x="388" 
d="M53 121h110v10l-18 28h-92v48h61l-101 157h68l113 -182l114 182h68l-102 -157h60v-48h-91l-18 -28v-10h109v-49h-109v-72h-62v72h-110v49z" />
    <glyph glyph-name="Euro.denom" unicode="&#xe070;" horiz-adv-x="388" 
d="M57 182v17h-41v48h51q18 57 67.5 91t119.5 34q66 0 122 -33l-26 -48q-42 25 -96 25q-83 0 -120 -69h171v-48h-185q-1 -6 -1 -17q0 -12 1 -17h139v-48h-125q36 -69 120 -69q54 0 96 25l26 -48q-56 -33 -122 -33q-70 0 -119.5 34t-67.5 91h-51v48h41v17z" />
    <glyph glyph-name="comma.denom" unicode="&#xe071;" horiz-adv-x="176" 
d="M34 -68l27 150h74l-50 -150h-51z" />
    <glyph glyph-name="period.denom" unicode="&#xe072;" horiz-adv-x="176" 
d="M88 -4q-22 0 -35 13t-13 32q0 20 13 33t35 13q21 0 34.5 -13t13.5 -33q0 -19 -13.5 -32t-34.5 -13z" />
    <glyph glyph-name="hyphen.denom" unicode="&#xe073;" horiz-adv-x="241" 
d="M26 152v60h189v-60h-189z" />
    <glyph glyph-name="zero.num" unicode="&#xe074;" horiz-adv-x="388" 
d="M194 708q76 0 122.5 -53.5t46.5 -136.5t-46.5 -136.5t-122.5 -53.5t-122 53.5t-46 136.5t46 136.5t122 53.5zM194 383q48 0 76.5 37t28.5 98t-28.5 98t-76.5 37q-47 0 -76 -37t-29 -98t29 -98t76 -37z" />
    <glyph glyph-name="one.num" unicode="&#xe075;" horiz-adv-x="388" 
d="M194 336v299l-105 -33l-17 50l134 50h49v-366h-61z" />
    <glyph glyph-name="two.num" unicode="&#xe076;" horiz-adv-x="388" 
d="M193 653q-81 0 -86 -76h-59q3 58 40.5 94.5t105.5 36.5q66 0 102.5 -30.5t36.5 -81.5q0 -42 -23.5 -73.5t-69.5 -66.5l-85 -65h186v-55h-288v44l143 110q41 33 58 55.5t17 48.5q0 27 -20.5 43t-57.5 16z" />
    <glyph glyph-name="three.num" unicode="&#xe077;" horiz-adv-x="388" 
d="M191 654q-84 0 -89 -67h-58q4 56 42.5 88.5t105.5 32.5q61 0 99.5 -27.5t38.5 -80.5q0 -26 -13 -45t-33 -25q58 -16 58 -86q0 -54 -42 -85t-108 -31q-144 0 -153 120h59q6 -66 94 -66t88 63q0 54 -70 54h-46v52h46q60 0 60 46q0 57 -79 57z" />
    <glyph glyph-name="four.num" unicode="&#xe078;" horiz-adv-x="388" 
d="M303 702v-232h58v-54h-58v-80h-62v80h-207v46l217 240h52zM106 470h136v150z" />
    <glyph glyph-name="five.num" unicode="&#xe079;" horiz-adv-x="388" 
d="M196 383q42 0 64.5 18.5t22.5 48.5q0 70 -91 70q-52 0 -82 -19l-49 14l12 185h248v-55h-196l-6 -93q31 17 83 17q67 0 105 -32.5t38 -84.5q0 -57 -41.5 -90.5t-106.5 -33.5q-69 0 -107.5 30.5t-41.5 85.5h57q6 -61 91 -61z" />
    <glyph glyph-name="six.num" unicode="&#xe07a;" horiz-adv-x="388" 
d="M216 579q61 0 100 -34.5t39 -88.5q0 -57 -41 -92.5t-108 -35.5q-69 0 -113.5 43t-44.5 125q0 212 166 212q115 0 133 -95h-60q-8 42 -72 42q-52 0 -75 -30.5t-28 -87.5q31 42 104 42zM205 381q42 0 66 20t24 54t-24 53.5t-66 19.5t-66 -19.5t-24 -53.5t24.5 -54t65.5 -20
z" />
    <glyph glyph-name="seven.num" unicode="&#xe07b;" horiz-adv-x="388" 
d="M335 653l-179 -317h-69l174 309h-211v55h285v-47z" />
    <glyph glyph-name="eight.num" unicode="&#xe07c;" horiz-adv-x="388" 
d="M194 708q68 0 106 -27.5t38 -74.5q0 -63 -60 -82q31 -8 52 -32t21 -57q0 -50 -42.5 -78.5t-114.5 -28.5t-114 28.5t-42 78.5q0 33 21 57t51 32q-59 20 -59 82q0 46 38 74t105 28zM194 382q97 0 97 56q0 58 -97 58t-97 -58q0 -56 97 -56zM194 545q41 0 63 15t22 41
q0 53 -85 53t-85 -53q0 -26 22.5 -41t62.5 -15z" />
    <glyph glyph-name="nine.num" unicode="&#xe07d;" horiz-adv-x="388" 
d="M173 457q-61 0 -100 34.5t-39 88.5q0 57 40.5 92.5t107.5 35.5q70 0 114.5 -43t44.5 -125q0 -212 -167 -212q-114 0 -132 95h59q4 -20 24 -31t48 -11q53 0 76 30.5t27 87.5q-31 -42 -103 -42zM183 655q-41 0 -65.5 -20t-24.5 -54t24 -53.5t66 -19.5t66 19.5t24 53.5
t-24 54t-66 20z" />
    <glyph glyph-name="parenleft.num" unicode="&#xe07e;" horiz-adv-x="275" 
d="M54 518q0 86 52 154t139 88v-53q-58 -16 -93 -68t-35 -121t35 -121t93 -68v-53q-87 20 -139 88t-52 154z" />
    <glyph glyph-name="parenright.num" unicode="&#xe07f;" horiz-adv-x="275" 
d="M221 518q0 -86 -52.5 -154t-138.5 -88v53q58 16 92.5 68t34.5 121t-34.5 121t-92.5 68v53q86 -20 138.5 -88t52.5 -154z" />
    <glyph glyph-name="dollar.num" unicode="&#xe080;" horiz-adv-x="388" 
d="M226 756v-51q109 -12 118 -101h-59q-5 37 -59 46v-109l22 -4q54 -11 79.5 -35.5t25.5 -65.5q0 -47 -34 -74t-93 -32v-50h-50v49q-129 9 -141 110h59q8 -50 82 -56v112l-13 3q-61 13 -90 34.5t-29 68.5q0 99 132 105v50h50zM105 605q0 -22 17.5 -33.5t53.5 -19.5v101
q-71 -4 -71 -48zM235 483l-9 2v-101q66 6 66 50q0 21 -13.5 32t-43.5 17z" />
    <glyph glyph-name="cent.num" unicode="&#xe081;" horiz-adv-x="388" 
d="M226 756v-50q60 -8 98.5 -44.5t43.5 -85.5h-64q-5 27 -26 47t-52 27v-264q33 6 53.5 26.5t25.5 48.5h64q-5 -51 -43.5 -88t-99.5 -44v-49h-49v49q-69 9 -115 62.5t-46 126.5t46 126.5t115 61.5v50h49zM79 518q0 -51 27 -87t71 -45v264q-44 -9 -71 -45t-27 -87z" />
    <glyph glyph-name="sterling.num" unicode="&#xe082;" horiz-adv-x="388" 
d="M30 541h49v20q0 64 38.5 105.5t107.5 41.5q62 0 96.5 -33.5t39.5 -84.5h-60q-2 28 -20.5 45.5t-54.5 17.5q-87 0 -87 -97v-15h125v-51h-125v-99h222v-55h-331v55h49v99h-49v51z" />
    <glyph glyph-name="yen.num" unicode="&#xe083;" horiz-adv-x="388" 
d="M53 457h110v10l-18 28h-92v48h61l-101 157h68l113 -182l114 182h68l-102 -157h60v-48h-91l-18 -28v-10h109v-49h-109v-72h-62v72h-110v49z" />
    <glyph glyph-name="Euro.num" unicode="&#xe084;" horiz-adv-x="388" 
d="M57 518v17h-41v48h51q18 57 67.5 91t119.5 34q66 0 122 -33l-26 -48q-42 25 -96 25q-83 0 -120 -69h171v-48h-185q-1 -6 -1 -17q0 -12 1 -17h139v-48h-125q36 -69 120 -69q54 0 96 25l26 -48q-56 -33 -122 -33q-70 0 -119 34t-68 91h-51v48h41v17z" />
    <glyph glyph-name="comma.num" unicode="&#xe085;" horiz-adv-x="176" 
d="M34 268l27 150h74l-50 -150h-51z" />
    <glyph glyph-name="period.num" unicode="&#xe086;" horiz-adv-x="176" 
d="M88 332q-22 0 -35 13t-13 32q0 20 13 33t35 13q21 0 34.5 -13t13.5 -33q0 -19 -13.5 -32t-34.5 -13z" />
    <glyph glyph-name="hyphen.num" unicode="&#xe087;" horiz-adv-x="241" 
d="M26 488v60h189v-60h-189z" />
    <glyph glyph-name="at.case" unicode="&#xe088;" horiz-adv-x="979" 
d="M685 40v-56q-83 -39 -195 -39q-182 0 -299.5 115t-117.5 284q0 178 118.5 294.5t304.5 116.5q181 0 295.5 -107t114.5 -279q0 -102 -43.5 -160.5t-121.5 -58.5q-84 0 -107 81q-56 -85 -153 -85q-82 0 -138.5 58.5t-56.5 143.5t56.5 143.5t138.5 58.5q84 0 140 -68v62h64
v-231q0 -57 14.5 -82.5t48.5 -25.5q42 0 67.5 42.5t25.5 121.5q0 151 -96 240.5t-249 89.5q-159 0 -258.5 -99.5t-99.5 -255.5q0 -148 99 -245.5t253 -97.5q105 0 195 39zM352 348q0 -63 37.5 -104t97.5 -41q55 0 94.5 41.5t39.5 103.5t-39.5 103.5t-94.5 41.5
q-60 0 -97.5 -41t-37.5 -104z" />
    <glyph glyph-name="parenleft.case" unicode="&#xe089;" horiz-adv-x="394" 
d="M79 350q0 137 76.5 237.5t199.5 130.5v-69q-89 -26 -143 -103t-54 -196t54 -196t143 -103v-69q-123 30 -199.5 130.5t-76.5 237.5z" />
    <glyph glyph-name="parenright.case" unicode="&#xe08a;" horiz-adv-x="394" 
d="M315 350q0 -137 -76 -237.5t-199 -130.5v69q89 26 143 103t54 196t-54 196t-143 103v69q123 -30 199 -130.5t76 -237.5z" />
    <glyph glyph-name="bracketleft.case" unicode="&#xe08b;" horiz-adv-x="382" 
d="M105 700h238v-64h-164v-572h164v-64h-238v700z" />
    <glyph glyph-name="bracketright.case" unicode="&#xe08c;" horiz-adv-x="382" 
d="M40 700h238v-700h-238v64h163v572h-163v64z" />
    <glyph glyph-name="braceleft.case" unicode="&#xe08d;" horiz-adv-x="420" 
d="M65 314v72q54 0 86.5 28t28.5 73l-4 47q-7 84 31.5 125t138.5 41h34v-64h-33q-61 0 -80 -21.5t-17 -73.5l2 -47q2 -50 -22 -88.5t-74 -55.5q50 -17 74 -55.5t22 -88.5l-2 -47q-2 -52 17 -73.5t80 -21.5h33v-64h-34q-100 0 -138.5 41t-31.5 125l4 47q4 45 -28.5 73
t-86.5 28z" />
    <glyph glyph-name="braceright.case" unicode="&#xe08e;" horiz-adv-x="420" 
d="M355 386v-72q-54 0 -86 -28t-28 -73l4 -47q6 -85 -32 -125.5t-139 -40.5h-34v64h33q61 0 80 21.5t17 73.5l-2 47q-2 50 22 88.5t74 55.5q-50 17 -74 55.5t-22 88.5l2 47q2 52 -17 73.5t-80 21.5h-33v64h34q101 0 139 -40.5t32 -125.5l-4 -47q-4 -45 28 -73t86 -28z" />
    <glyph glyph-name="plus.case" unicode="&#xe08f;" horiz-adv-x="610" 
d="M339 154h-68v164h-162v65h162v163h68v-163h162v-65h-162v-164z" />
    <glyph glyph-name="minus.case" unicode="&#xe090;" horiz-adv-x="610" 
d="M496 383v-65h-382v65h382z" />
    <glyph glyph-name="multiply.case" unicode="&#xe091;" horiz-adv-x="610" 
d="M133 474l48 48l124 -124l124 124l48 -48l-124 -124l124 -124l-48 -48l-124 124l-124 -124l-48 48l124 124z" />
    <glyph glyph-name="divide.case" unicode="&#xe092;" horiz-adv-x="610" 
d="M496 383v-65h-382v65h382zM251 519q0 23 15.5 38.5t38.5 15.5q24 0 39 -15.5t15 -38.5t-15 -38.5t-39 -15.5q-23 0 -38.5 15.5t-15.5 38.5zM251 182q0 23 15.5 38.5t38.5 15.5q24 0 39 -15.5t15 -38.5t-15 -38.5t-39 -15.5q-23 0 -38.5 15.5t-15.5 38.5z" />
    <glyph glyph-name="equal.case" unicode="&#xe093;" horiz-adv-x="610" 
d="M496 477v-65h-382v65h382zM496 289v-66h-382v66h382z" />
    <glyph glyph-name="notequal.case" unicode="&#xe094;" horiz-adv-x="610" 
d="M486 584l-67 -107h101v-65h-142l-77 -123h219v-66h-260l-80 -128l-55 31l60 97h-95v66h136l77 123h-213v65h254l86 138z" />
    <glyph glyph-name="approxequal.case" unicode="&#xe095;" horiz-adv-x="610" 
d="M458 318l57 -6q-17 -114 -121 -114q-33 0 -93 28.5t-85 28.5q-49 0 -63 -54l-58 5q17 114 122 114q33 0 92.5 -28.5t84.5 -28.5q50 0 64 55zM458 500l57 -5q-17 -115 -121 -115q-33 0 -93 29t-85 29q-49 0 -63 -55l-58 5q17 115 122 115q33 0 92.5 -29t84.5 -29
q50 0 64 55z" />
    <glyph glyph-name="infinity.case" unicode="&#xe096;" horiz-adv-x="796" 
d="M746 350q0 -65 -45.5 -109t-116.5 -44q-53 0 -92 25t-95 88q-56 -63 -94 -87.5t-91 -24.5q-71 0 -116.5 43.5t-45.5 108.5t45.5 108.5t116.5 43.5q52 0 90 -25t96 -89q55 63 94 88.5t92 25.5q71 0 116.5 -43.5t45.5 -108.5zM211 251q40 0 71.5 20.5t80.5 77.5
q-50 57 -81.5 78.5t-70.5 21.5q-48 0 -74 -26.5t-26 -72.5t26 -72.5t74 -26.5zM684 350q0 46 -25.5 72.5t-74.5 26.5q-39 0 -70 -21t-82 -78q52 -58 82.5 -78.5t69.5 -20.5q49 0 74.5 26t25.5 73z" />
    <glyph glyph-name="less.case" unicode="&#xe097;" horiz-adv-x="610" 
d="M106 319v62l396 198v-82l-314 -147l314 -147v-82z" />
    <glyph glyph-name="greater.case" unicode="&#xe098;" horiz-adv-x="610" 
d="M504 381v-62l-396 -198v82l314 147l-314 147v82z" />
    <glyph glyph-name="guilsinglleft.case" unicode="&#xe099;" horiz-adv-x="287" 
d="M237 530l-112 -180l112 -180h-76l-112 180l112 180h76z" />
    <glyph glyph-name="guilsinglright.case" unicode="&#xe09a;" horiz-adv-x="287" 
d="M50 170l111 180l-111 180h75l112 -180l-112 -180h-75z" />
    <glyph glyph-name="guillemotleft.case" unicode="&#xe09b;" horiz-adv-x="474" 
d="M237 530l-112 -180l112 -180h-76l-112 180l112 180h76zM424 530l-112 -180l112 -180h-76l-112 180l112 180h76z" />
    <glyph glyph-name="guillemotright.case" unicode="&#xe09c;" horiz-adv-x="474" 
d="M50 170l111 180l-111 180h75l112 -180l-112 -180h-75zM237 170l111 180l-111 180h75l112 -180l-112 -180h-75z" />
    <glyph glyph-name="bar.case" unicode="&#xe09d;" horiz-adv-x="347" 
d="M209 864v-1028h-70v1028h70z" />
    <glyph glyph-name="brokenbar.case" unicode="&#xe09e;" horiz-adv-x="347" 
d="M209 864v-428h-70v428h70zM209 264v-428h-70v428h70z" />
    <glyph glyph-name="asciitilde.case" unicode="&#xe09f;" horiz-adv-x="502" 
d="M386 403l47 -6q-9 -43 -35 -71t-66 -28q-30 0 -88 24q-5 2 -16.5 7t-18 8t-17.5 5.5t-20 2.5q-41 0 -56 -49l-47 6q9 43 35 71t66 28q30 0 88 -24q5 -2 16.5 -7t18 -8t17.5 -5.5t20 -2.5q41 0 56 49z" />
    <glyph glyph-name="bullet.case" unicode="&#xe0a0;" horiz-adv-x="403" 
d="M95 345q-2 44 27.5 77t73.5 35t77 -28t35 -74t-27.5 -77.5t-73.5 -35.5t-77 28.5t-35 74.5z" />
    <glyph glyph-name="periodcentered.case" unicode="&#xe0a1;" horiz-adv-x="243" 
d="M66 350q0 24 15.5 39.5t39.5 15.5q25 0 40 -15.5t15 -39.5t-15.5 -39.5t-39.5 -15.5t-39.5 16t-15.5 39z" />
    <glyph glyph-name="hyphen.case" unicode="&#xe0a2;" horiz-adv-x="392" 
d="M48 319v62h297v-62h-297z" />
    <glyph glyph-name="endash.case" unicode="&#xe0a3;" horiz-adv-x="470" 
d="M30 319v62h411v-62h-411z" />
    <glyph glyph-name="emdash.case" unicode="&#xe0a4;" horiz-adv-x="580" 
d="M16 319v62h548v-62h-548z" />
    <glyph glyph-name="questiondown.case" unicode="&#xe0a5;" horiz-adv-x="591" 
d="M60 191q0 39 17.5 74t50 63t57 44.5t58.5 34.5l9 91h57l10 -121q-33 -16 -50 -25t-46.5 -28.5t-45 -36t-28 -41t-12.5 -51.5q0 -64 41.5 -100.5t124.5 -36.5q169 0 179 149h73q-6 -100 -69 -158.5t-184 -58.5q-116 0 -179 55t-63 146zM226 651q0 23 15.5 38.5t40.5 15.5
q24 0 39.5 -15.5t15.5 -38.5q0 -24 -15.5 -39.5t-39.5 -15.5q-25 0 -40.5 15.5t-15.5 39.5z" />
    <glyph glyph-name="exclamdown.case" unicode="&#xe0a6;" horiz-adv-x="281" 
d="M115 498h51q15 -220 15 -438v-60h-82v60q0 227 16 438zM85 651q0 23 15.5 38.5t39.5 15.5t39.5 -15.5t15.5 -38.5q0 -24 -15 -39.5t-40 -15.5q-24 0 -39.5 15.5t-15.5 39.5z" />
    <glyph glyph-name="registered.case" unicode="&#xe0a7;" horiz-adv-x="851" 
d="M426 710q151 0 255.5 -104.5t104.5 -255.5t-104.5 -255.5t-255.5 -104.5t-256 104.5t-105 255.5t105 255.5t256 104.5zM426 51q125 0 210 86t85 213t-85 213t-210 86t-210 -86t-85 -213t85 -213t210 -86zM351 294v-134h-64v380h176q64 0 101 -35t37 -88q0 -45 -26 -77
t-73 -42l100 -138h-70l-96 134h-85zM351 351h102q83 0 83 66q0 65 -83 65h-102v-131z" />
    <glyph glyph-name="arrowleft.case" unicode="&#xe0a8;" horiz-adv-x="670" 
d="M40 350l223 224l23 -14l-72 -179l416 1v-64l-416 1l72 -178l-23 -14z" />
    <glyph glyph-name="arrowup.case" unicode="&#xe0a9;" horiz-adv-x="710" 
d="M355 666l224 -224l-15 -22l-178 71l1 -376h-64l1 376l-179 -71l-14 22z" />
    <glyph glyph-name="arrowright.case" unicode="&#xe0aa;" horiz-adv-x="670" 
d="M407 574l223 -224l-223 -223l-23 14l71 178l-415 -1v64l415 -1l-71 179z" />
    <glyph glyph-name="arrowdown.case" unicode="&#xe0ab;" horiz-adv-x="710" 
d="M355 33l-224 224l15 22l178 -72l-1 377h64l-1 -377l179 72l14 -22z" />
    <glyph glyph-name="arrowboth.case" unicode="&#xe0ac;" horiz-adv-x="832" 
d="M40 340l223 224l23 -14l-72 -179h403l-71 179l22 14l224 -224l-224 -223l-22 14l71 178h-403l72 -178l-23 -14z" />
    <glyph glyph-name="arrowupdn.case" unicode="&#xe0ad;" horiz-adv-x="710" 
d="M355 -16l-224 224l14 23l179 -73l-1 364l-178 -72l-14 23l224 224l224 -224l-15 -23l-177 72l-1 -364l178 73l15 -23z" />
    <glyph glyph-name="arrowupleft.case" unicode="&#xe0ae;" horiz-adv-x="670" 
d="M120 560h317l5 -27l-176 -76l295 -293l-45 -46l-294 295l-75 -176l-27 6v317z" />
    <glyph glyph-name="arrowupright.case" unicode="&#xe0af;" horiz-adv-x="670" 
d="M255 560h317v-317l-27 -6l-75 176l-294 -295l-45 46l295 293l-176 76z" />
    <glyph glyph-name="arrowdownright.case" unicode="&#xe0b0;" horiz-adv-x="670" 
d="M572 118h-317l-5 27l176 75l-295 294l45 46l294 -296l75 177l27 -6v-317z" />
    <glyph glyph-name="arrowdownleft.case" unicode="&#xe0b1;" horiz-adv-x="670" 
d="M437 118h-317v317l27 6l75 -177l294 296l45 -46l-295 -294l176 -75z" />
    <glyph glyph-name="triagup.case" unicode="&#xe0b2;" horiz-adv-x="550" 
d="M445 218h-340l170 290z" />
    <glyph glyph-name="triagrt.case" unicode="&#xe0b3;" horiz-adv-x="550" 
d="M142 193v340l309 -170z" />
    <glyph glyph-name="triagdn.case" unicode="&#xe0b4;" horiz-adv-x="550" 
d="M105 508h340l-170 -290z" />
    <glyph glyph-name="triaglf.case" unicode="&#xe0b5;" horiz-adv-x="550" 
d="M408 533v-340l-309 170z" />
    <glyph glyph-name="uni25E2.case" unicode="&#xe0b6;" horiz-adv-x="550" 
d="M413 213h-322l322 322v-322z" />
    <glyph glyph-name="uni25E3.case" unicode="&#xe0b7;" horiz-adv-x="550" 
d="M459 213h-322v322z" />
    <glyph glyph-name="uni25E4.case" unicode="&#xe0b8;" horiz-adv-x="550" 
d="M137 535h322l-322 -322v322z" />
    <glyph glyph-name="uni25E5.case" unicode="&#xe0b9;" horiz-adv-x="550" 
d="M91 535h322v-322z" />
    <glyph glyph-name="commaaccent" unicode="&#xf6c3;" 
d="M297 -44l-38 -164h-58l22 164h74z" />
    <glyph glyph-name="exclam.sc" unicode="&#xf720;" horiz-adv-x="253" 
d="M153 168h-54q-9 155 -9 264v78h72v-78q0 -109 -9 -264zM71 50q0 23 15.5 39t39.5 16t39.5 -15.5t15.5 -39.5t-15 -39.5t-40 -15.5q-24 0 -39.5 15.5t-15.5 39.5z" />
    <glyph glyph-name="numbersign.sc" unicode="&#xf721;" horiz-adv-x="581" 
d="M90 326v57h89l26 127h62l-26 -127h149l26 127h62l-26 -127h79v-57h-90l-28 -141h78v-58h-90l-25 -127h-62l25 127h-149l-25 -127h-62l25 127h-77v58h89l28 141h-78zM230 326l-28 -141h149l28 141h-149z" />
    <glyph glyph-name="dollar.sc" unicode="&#xf722;" horiz-adv-x="531" 
d="M244 -100v93q-176 11 -191 142h71q10 -72 120 -78v172l-6 1q-173 25 -173 145q0 65 47 101.5t132 40.5v93h56v-94q71 -7 112.5 -41.5t46.5 -88.5h-69q-11 56 -90 66v-167l27 -4q151 -22 151 -140q0 -66 -48.5 -104.5t-129.5 -43.5v-93h-56zM309 219l-9 1v-163
q52 4 79.5 24.5t27.5 55.5q0 67 -98 82zM136 377q0 -34 26 -53.5t82 -29.5v159q-108 -5 -108 -76z" />
    <glyph glyph-name="percent.sc" unicode="&#xf723;" horiz-adv-x="781" 
d="M256 0h-69l343 510h70zM190 514q61 0 101 -39t40 -96q0 -58 -40 -97t-101 -39q-60 0 -100 39.5t-40 96.5t40 96t100 39zM190 298q36 0 59 23t23 58t-22.5 57.5t-59.5 22.5q-36 0 -58.5 -22.5t-22.5 -57.5t22.5 -58t58.5 -23zM590 267q61 0 101 -39t40 -96q0 -58 -40 -97
t-101 -39q-60 0 -100 39t-40 97q0 57 40 96t100 39zM590 51q36 0 59 22.5t23 58.5q0 35 -23 57.5t-59 22.5t-58.5 -22.5t-22.5 -57.5t22.5 -58t58.5 -23z" />
    <glyph glyph-name="ampersand.sc" unicode="&#xf724;" horiz-adv-x="568" 
d="M498 262l50 -42q-53 -66 -99 -113l99 -107h-82l-62 67q-91 -75 -181 -75q-72 0 -119 37t-47 102q0 29 8 52t27.5 42.5t32 29.5t40.5 28l22 15q-55 57 -55 110q0 51 33 79.5t89 28.5q53 0 86.5 -27t33.5 -77q0 -40 -20.5 -66t-59.5 -51l-11 -7l122 -133q40 40 93 107z
M224 56q68 0 137 57l-131 139l-20 -13q-24 -16 -32 -22t-23 -20.5t-20.5 -29.5t-5.5 -34q0 -35 26.5 -56t68.5 -21zM200 409q0 -30 41 -75l18 12q17 12 25 18.5t15.5 19.5t7.5 30q0 21 -14 33t-37 12q-56 0 -56 -50z" />
    <glyph glyph-name="parenleft.sc" unicode="&#xf725;" horiz-adv-x="359" 
d="M71 255q0 120 64.5 211.5t173.5 115.5v-64q-77 -20 -120.5 -90t-43.5 -173q0 -102 43.5 -172t120.5 -91v-64q-109 24 -173.5 115.5t-64.5 211.5z" />
    <glyph glyph-name="parenright.sc" unicode="&#xf726;" horiz-adv-x="359" 
d="M288 255q0 -120 -64.5 -211.5t-174.5 -115.5v64q77 21 121 90.5t44 172.5t-44 173t-121 90v64q110 -24 174.5 -115.5t64.5 -211.5z" />
    <glyph glyph-name="asterisk.sc" unicode="&#xf727;" horiz-adv-x="374" 
d="M217 510l-6 -93l94 37l19 -56l-100 -26l67 -71l-47 -35l-57 79l-57 -79l-48 35l68 71l-100 26l19 56l94 -37l-7 93h61z" />
    <glyph glyph-name="slash.sc" unicode="&#xf728;" horiz-adv-x="429" 
d="M421 580l-341 -650h-72l341 650h72z" />
    <glyph glyph-name="zero.sc" unicode="&#xf729;" horiz-adv-x="531" 
d="M265 518q99 0 161.5 -72t62.5 -191t-62.5 -191t-161.5 -72t-161 72t-62 191t62 191t161 72zM265 58q68 0 109.5 51.5t41.5 145.5t-41.5 146t-109.5 52q-67 0 -108.5 -52t-41.5 -146t41.5 -145.5t108.5 -51.5z" />
    <glyph glyph-name="one.sc" unicode="&#xf72a;" horiz-adv-x="531" 
d="M278 0v438l-142 -47l-20 48l184 73h49v-512h-71z" />
    <glyph glyph-name="two.sc" unicode="&#xf72b;" horiz-adv-x="531" 
d="M263 455q-126 0 -129 -108h-69q3 77 54 124t145 47q90 0 139.5 -43.5t49.5 -114.5q0 -57 -30 -96.5t-97 -92.5l-143 -107h281v-64h-395v51l200 155q62 49 87.5 82t25.5 72q0 44 -31.5 69.5t-87.5 25.5z" />
    <glyph glyph-name="three.sc" unicode="&#xf72c;" horiz-adv-x="531" 
d="M259 455q-122 0 -127 -95h-69q4 73 55 115.5t142 42.5q80 0 134.5 -37t54.5 -106q0 -41 -19.5 -69t-50.5 -37q39 -8 64 -39t25 -76q0 -76 -56.5 -119t-142.5 -43q-100 0 -154.5 41t-59.5 115h69q4 -92 145 -92q60 0 94 25t34 74q0 79 -110 79h-64v60h55q100 0 100 75
q0 43 -32.5 64.5t-86.5 21.5z" />
    <glyph glyph-name="four.sc" unicode="&#xf72d;" horiz-adv-x="531" 
d="M409 511v-326h87v-62h-87v-123h-70v123h-292v54l304 334h58zM133 185h206v226z" />
    <glyph glyph-name="five.sc" unicode="&#xf72e;" horiz-adv-x="531" 
d="M272 55q61 0 95 28.5t34 78.5q0 49 -34 77t-101 28q-81 0 -118 -24l-60 24l12 243h340v-63h-276l-7 -144q40 25 118 25q94 0 145.5 -44.5t51.5 -119.5q0 -78 -57 -125.5t-142 -47.5q-92 0 -145.5 42t-56.5 113h70q2 -42 36.5 -66.5t94.5 -24.5z" />
    <glyph glyph-name="six.sc" unicode="&#xf72f;" horiz-adv-x="531" 
d="M293 336q81 0 133.5 -46.5t52.5 -122.5q0 -79 -56 -127t-143 -48q-96 0 -154 60t-58 184q0 56 11 103.5t35.5 89t69.5 65.5t107 24q67 0 113.5 -35t54.5 -89h-68q-5 29 -32 46t-68 17q-139 0 -153 -180q57 59 155 59zM278 54q61 0 95.5 31t34.5 82q0 54 -34 81.5
t-97 27.5q-57 0 -94 -28t-37 -79q0 -52 37.5 -83.5t94.5 -31.5z" />
    <glyph glyph-name="seven.sc" unicode="&#xf730;" horiz-adv-x="531" 
d="M455 459l-251 -459h-75l245 447h-300v63h381v-51z" />
    <glyph glyph-name="eight.sc" unicode="&#xf731;" horiz-adv-x="531" 
d="M265 518q89 0 141.5 -39.5t52.5 -102.5q0 -95 -87 -118q47 -9 75 -42.5t28 -75.5q0 -70 -56.5 -109t-153.5 -39q-96 0 -152.5 39t-56.5 109q0 42 28 75.5t75 42.5q-87 23 -87 118q0 63 52 102.5t141 39.5zM265 54q65 0 101 22.5t36 64.5q0 40 -36 63.5t-101 23.5
q-64 0 -100 -23.5t-36 -63.5q0 -42 36 -64.5t100 -22.5zM265 286q58 0 90 23.5t32 59.5q0 43 -33 65.5t-89 22.5t-88.5 -22.5t-32.5 -65.5q0 -36 31.5 -59.5t89.5 -23.5z" />
    <glyph glyph-name="nine.sc" unicode="&#xf732;" horiz-adv-x="531" 
d="M238 174q-81 0 -133.5 46.5t-52.5 122.5q0 79 56 127t143 48q96 0 154 -60t58 -184q0 -56 -11 -103.5t-35.5 -89t-69.5 -65.5t-107 -24q-67 0 -113.5 35.5t-54.5 89.5h68q4 -29 31.5 -46t68.5 -17q140 0 152 179q-56 -59 -154 -59zM253 457q-61 0 -95.5 -31.5
t-34.5 -82.5q0 -54 34 -81.5t97 -27.5q57 0 94 28t37 79q0 52 -37.5 84t-94.5 32z" />
    <glyph glyph-name="question.sc" unicode="&#xf733;" horiz-adv-x="492" 
d="M433 372q0 -31 -15 -57.5t-43 -46t-46.5 -29t-45.5 -21.5l-5 -50h-54l-4 80q85 35 112 59q28 26 29 58q0 89 -120 89q-128 0 -131 -100h-66q2 77 50.5 120.5t146.5 43.5q97 0 144.5 -38.5t47.5 -107.5zM194 50q0 24 16 39.5t40 15.5t39.5 -16t15.5 -39q0 -24 -15.5 -39.5
t-39.5 -15.5q-25 0 -40.5 15.5t-15.5 39.5z" />
    <glyph glyph-name="at.sc" unicode="&#xf734;" horiz-adv-x="754" 
d="M229 255q0 58 40 98.5t99 40.5q58 0 98 -40v34h55v-168q0 -60 40 -60q63 0 63 106q0 103 -68 162t-177 59q-112 0 -181.5 -65.5t-69.5 -168.5t69 -166.5t182 -63.5q82 0 142 23v-47q-52 -23 -142 -23q-136 0 -220 78t-84 199q0 120 84.5 200.5t219.5 80.5
q133 0 215.5 -73t82.5 -193q0 -72 -29 -115.5t-86 -43.5q-68 0 -87 57q-40 -50 -107 -50q-59 0 -99 40.5t-40 98.5zM286 255q0 -38 26 -64t64 -26t64 26.5t26 63.5q0 38 -26 64t-64 26t-64 -25.5t-26 -64.5z" />
    <glyph glyph-name="bracketleft.sc" unicode="&#xf735;" horiz-adv-x="341" 
d="M99 582h192v-60h-123v-534h123v-60h-192v654z" />
    <glyph glyph-name="backslash.sc" unicode="&#xf736;" horiz-adv-x="429" 
d="M349 -70l-341 650h72l341 -650h-72z" />
    <glyph glyph-name="bracketright.sc" unicode="&#xf737;" horiz-adv-x="341" 
d="M49 582h193v-654h-193v60h123v534h-123v60z" />
    <glyph glyph-name="braceleft.sc" unicode="&#xf738;" horiz-adv-x="375" 
d="M59 228v54q97 8 90 91l-5 64q-6 74 23 109.5t108 35.5h51v-60h-45q-44 0 -58.5 -17.5t-11.5 -61.5l5 -63q7 -99 -66 -125q73 -26 66 -124l-5 -64q-3 -44 11.5 -61.5t58.5 -17.5h45v-60h-51q-78 0 -107.5 36t-23.5 109l5 64q7 83 -90 91z" />
    <glyph glyph-name="braceright.sc" unicode="&#xf739;" horiz-adv-x="375" 
d="M316 282v-54q-97 -8 -90 -91l5 -64q6 -73 -23.5 -109t-107.5 -36h-51v60h45q44 0 58.5 17.5t11.5 61.5l-5 64q-7 98 66 124q-73 26 -66 125l5 63q3 44 -11.5 61.5t-58.5 17.5h-45v60h51q79 0 108 -35.5t23 -109.5l-5 -64q-7 -83 90 -91z" />
    <glyph glyph-name="currency.sc" unicode="&#xf73a;" horiz-adv-x="650" 
d="M144 484l58 -59q57 39 123 39q67 0 122 -39l59 59l49 -49l-59 -59q39 -53 39 -121q0 -69 -39 -122l59 -58l-49 -49l-59 58q-54 -38 -122 -38t-123 38l-58 -58l-49 49l58 58q-38 54 -38 122q0 67 38 121l-58 59zM325 104q61 0 102 43t41 108t-41 108t-102 43t-102 -43
t-41 -108t41 -108t102 -43z" />
    <glyph glyph-name="cent.sc" unicode="&#xf73b;" horiz-adv-x="531" 
d="M257 -100v93q-89 8 -148 71.5t-59 152.5q0 88 59 152t148 72v93h56v-94q75 -9 122.5 -52.5t53.5 -101.5h-72q-8 34 -35 59t-69 32v-320q43 7 69.5 32t34.5 60h72q-6 -59 -53.5 -102.5t-122.5 -52.5v-94h-56zM122 217q0 -64 37 -108.5t98 -52.5v322q-61 -7 -98 -51.5
t-37 -109.5z" />
    <glyph glyph-name="sterling.sc" unicode="&#xf73c;" horiz-adv-x="531" 
d="M54 279h63v34q0 92 47.5 148.5t142.5 56.5q87 0 134.5 -46t50.5 -118h-69q-2 44 -30.5 72.5t-85.5 28.5q-119 0 -119 -146v-30h172v-61h-172v-154h305v-64h-439v64h63v154h-63v61z" />
    <glyph glyph-name="yen.sc" unicode="&#xf73d;" horiz-adv-x="531" 
d="M80 162h150v30l-18 26h-132v59h93l-155 233h78l171 -259l171 259h76l-156 -233h92v-59h-132l-17 -26v-30h149v-59h-149v-103h-71v103h-150v59z" />
    <glyph glyph-name="Euro.sc" unicode="&#xf73e;" horiz-adv-x="531" 
d="M75 255q0 19 1 28h-54v59h67q27 79 96 127.5t161 48.5q87 0 159 -41l-30 -55q-50 29 -128 29q-63 0 -110 -29.5t-70 -79.5h252v-59h-268q-2 -18 -2 -28q0 -9 2 -27h204v-59h-188q23 -51 70 -80.5t110 -29.5q76 0 128 30l30 -56q-72 -41 -159 -41q-93 0 -162 48.5
t-96 128.5h-66v59h54q-1 9 -1 27z" />
    <glyph glyph-name="florin.sc" unicode="&#xf73f;" horiz-adv-x="531" 
d="M166 259h72l17 120q10 70 43.5 103t99.5 33q35 0 61 -7l-8 -56q-32 2 -51 2q-39 0 -54 -18t-22 -67l-16 -110h114l-8 -59h-114l-33 -243q-16 -119 -127 -119q-6 0 -42 3l8 58q12 -1 28 -1q32 0 45.5 17.5t18.5 52.5l32 232h-72z" />
    <glyph glyph-name="section.sc" unicode="&#xf740;" horiz-adv-x="531" 
d="M261 -69q51 0 81 18.5t30 47.5q0 24 -18 38.5t-56 24.5l-77 20q-133 35 -133 114q0 72 75 106q-45 33 -45 94q0 60 43.5 92t127.5 32q146 0 162 -111h-66q-5 27 -26.5 40.5t-70.5 13.5q-103 0 -103 -66q0 -28 18 -44t56 -26l79 -21q59 -15 85 -38t26 -69q0 -69 -72 -102
q63 -30 63 -95q0 -60 -49.5 -93t-128.5 -33q-82 0 -131 31.5t-55 87.5h68q8 -62 117 -62zM157 203q0 -28 20.5 -42t66.5 -26l57 -15q37 11 58.5 30.5t21.5 42.5q0 22 -13.5 34.5t-51.5 21.5l-80 20q-3 0 -9 2q-33 -8 -51.5 -25.5t-18.5 -42.5z" />
    <glyph glyph-name="registered.sc" unicode="&#xf741;" horiz-adv-x="679" 
d="M339 518q116 0 193.5 -77t77.5 -186t-77.5 -186t-193.5 -77t-193 77t-77 186t77 186t193 77zM339 37q97 0 160.5 61.5t63.5 156.5t-63.5 157t-160.5 62t-160 -62t-63 -157t63 -156.5t160 -61.5zM287 204v-88h-60v278h133q114 0 114 -95q0 -74 -67 -90l68 -93h-65l-65 88
h-58zM287 260h67q32 0 45.5 8t13.5 31t-13.5 31t-45.5 8h-67v-78z" />
    <glyph glyph-name="copyright.sc" unicode="&#xf742;" horiz-adv-x="679" 
d="M339 518q116 0 193.5 -77t77.5 -186t-77.5 -186t-193.5 -77t-193 77t-77 186t77 186t193 77zM339 37q97 0 160.5 61.5t63.5 156.5t-63.5 157t-160.5 62t-160 -62t-63 -157t63 -156.5t160 -61.5zM199 255q0 61 42.5 102t104.5 41q58 0 95.5 -31.5t42.5 -76.5h-60
q-3 21 -23 36t-54 15q-38 0 -62 -24t-24 -62t24 -62t62 -24q33 0 53.5 15.5t23.5 35.5h60q-5 -45 -42.5 -76.5t-95.5 -31.5q-62 0 -104.5 41t-42.5 102z" />
    <glyph glyph-name="ordfeminine.sc" unicode="&#xf743;" horiz-adv-x="412" 
d="M229 511l163 -351h-58l-40 87h-177l-39 -87h-58l163 351h46zM205 439l-65 -142h131z" />
    <glyph glyph-name="ordmasculine.sc" unicode="&#xf744;" horiz-adv-x="470" 
d="M235 210q52 0 87 35t35 90t-34.5 90t-87.5 35t-87.5 -34.5t-34.5 -90.5q0 -55 34.5 -90t87.5 -35zM235 154q-79 0 -131.5 51.5t-52.5 129.5t52.5 129.5t131.5 51.5t131 -51t52 -130t-52 -130t-131 -51z" />
    <glyph glyph-name="Omega.sc" unicode="&#xf745;" horiz-adv-x="657" 
d="M328 518q121 0 194 -69.5t73 -173.5q0 -69 -34.5 -123.5t-84.5 -89.5h106v-62h-205v48q147 97 147 216q0 87 -54 138.5t-142 51.5t-141.5 -52t-53.5 -138q0 -119 147 -216v-48h-205v62h106q-50 35 -85 89.5t-35 123.5q0 104 73 173.5t194 69.5z" />
    <glyph glyph-name="questiondown.sc" unicode="&#xf746;" horiz-adv-x="492" 
d="M59 139q0 31 15 57.5t43 46t46.5 29t45.5 21.5l6 49h54l4 -80q-27 -11 -38.5 -15.5t-35.5 -17t-35.5 -23t-21.5 -27t-10 -34.5q0 -89 119 -89q129 0 131 101h67q-2 -78 -50.5 -121.5t-147.5 -43.5q-97 0 -144.5 38.5t-47.5 108.5zM298 460q0 -23 -15.5 -39t-39.5 -16
t-39.5 15.5t-15.5 39.5t15 39.5t40 15.5q24 0 39.5 -15.5t15.5 -39.5z" />
    <glyph glyph-name="exclamdown.sc" unicode="&#xf747;" horiz-adv-x="253" 
d="M99 342h54q9 -153 9 -263v-79h-72v79q0 110 9 263zM181 460q0 -24 -15.5 -39t-39.5 -15t-39.5 15.5t-15.5 38.5q0 24 15.5 39.5t39.5 15.5q25 0 40 -15.5t15 -39.5z" />
    <glyph glyph-name="dagger.sc" unicode="&#xf748;" horiz-adv-x="471" 
d="M421 359v-62h-152v-397h-68v397h-151v62h151v151h68v-151h152z" />
    <glyph glyph-name="daggerdbl.sc" unicode="&#xf749;" horiz-adv-x="471" 
d="M421 103v-61h-152v-142h-68v142h-151v61h151v204h-151v62h151v141h68v-141h152v-62h-152v-204h152z" />
    <glyph glyph-name="quoteleft.sc" unicode="&#xf74a;" horiz-adv-x="221" 
d="M169 518l-37 -211h-86l64 211h59z" />
    <glyph glyph-name="quoteright.sc" unicode="&#xf74b;" horiz-adv-x="221" 
d="M51 307l38 211h86l-64 -211h-60z" />
    <glyph glyph-name="quotesinglbase.sc" unicode="&#xf74c;" horiz-adv-x="221" 
d="M51 -114l38 211h86l-64 -211h-60z" />
    <glyph glyph-name="quotedblleft.sc" unicode="&#xf74d;" horiz-adv-x="396" 
d="M169 518l-37 -211h-86l64 211h59zM344 518l-37 -211h-86l64 211h59z" />
    <glyph glyph-name="quotedblright.sc" unicode="&#xf74e;" horiz-adv-x="396" 
d="M51 307l38 211h86l-64 -211h-60zM226 307l38 211h86l-64 -211h-60z" />
    <glyph glyph-name="quotedblbase.sc" unicode="&#xf74f;" horiz-adv-x="396" 
d="M51 -114l38 211h86l-64 -211h-60zM226 -114l38 211h86l-64 -211h-60z" />
    <glyph glyph-name="perthousand.sc" unicode="&#xf750;" horiz-adv-x="1127" 
d="M256 0h-69l343 510h70zM190 514q61 0 101 -39t40 -96q0 -58 -40 -97t-101 -39q-60 0 -100 39.5t-40 96.5t40 96t100 39zM190 298q36 0 59 23t23 58t-22.5 57.5t-59.5 22.5q-36 0 -58.5 -22.5t-22.5 -57.5t22.5 -58t58.5 -23zM590 267q61 0 101 -39t40 -96q0 -58 -40 -97
t-101 -39q-60 0 -100 39t-40 97q0 57 40 96t100 39zM590 51q36 0 59 22.5t23 58.5q0 35 -23 57.5t-59 22.5t-58.5 -22.5t-22.5 -57.5t22.5 -58t58.5 -23zM937 267q60 0 100.5 -39t40.5 -96q0 -58 -40 -97t-101 -39q-60 0 -100 39t-40 97q0 57 40 96t100 39zM937 51
q36 0 58.5 22.5t22.5 58.5q0 35 -22.5 57.5t-58.5 22.5t-58.5 -22.5t-22.5 -57.5t22.5 -58t58.5 -23z" />
    <glyph glyph-name="bullet.sc" unicode="&#xf751;" horiz-adv-x="403" 
d="M95 250q-2 44 27.5 77t73.5 35t77 -28t35 -74t-27.5 -77.5t-73.5 -35.5t-77 28.5t-35 74.5z" />
    <glyph glyph-name="periodcentered.sc" unicode="&#xf752;" horiz-adv-x="243" 
d="M66 255q0 23 15.5 39t39.5 16t39.5 -15.5t15.5 -39.5t-15 -39.5t-40 -15.5q-24 0 -39.5 15.5t-15.5 39.5z" />
    <glyph glyph-name="hyphen.sc" unicode="&#xf753;" horiz-adv-x="392" 
d="M48 224v62h297v-62h-297z" />
    <glyph glyph-name="endash.sc" unicode="&#xf754;" horiz-adv-x="470" 
d="M30 224v62h411v-62h-411z" />
    <glyph glyph-name="emdash.sc" unicode="&#xf755;" horiz-adv-x="580" 
d="M16 224v62h548v-62h-548z" />
    <glyph glyph-name="plus.sc" unicode="&#xf756;" horiz-adv-x="610" 
d="M339 59h-68v164h-162v65h162v163h68v-163h162v-65h-162v-164z" />
    <glyph glyph-name="minus.sc" unicode="&#xf757;" horiz-adv-x="610" 
d="M496 288v-65h-382v65h382z" />
    <glyph glyph-name="multiply.sc" unicode="&#xf758;" horiz-adv-x="610" 
d="M133 379l48 48l124 -124l124 124l48 -48l-124 -124l124 -124l-48 -48l-124 124l-124 -124l-48 48l124 124z" />
    <glyph glyph-name="divide.sc" unicode="&#xf759;" horiz-adv-x="610" 
d="M496 288v-65h-382v65h382zM251 424q0 23 15.5 38.5t38.5 15.5q24 0 39 -15.5t15 -38.5t-15 -38.5t-39 -15.5q-23 0 -38.5 15.5t-15.5 38.5zM251 87q0 23 15.5 38.5t38.5 15.5q24 0 39 -15.5t15 -38.5t-15 -38.5t-39 -15.5q-23 0 -38.5 15.5t-15.5 38.5z" />
    <glyph glyph-name="equal.sc" unicode="&#xf75a;" horiz-adv-x="610" 
d="M496 382v-65h-382v65h382zM496 194v-66h-382v66h382z" />
    <glyph glyph-name="notequal.sc" unicode="&#xf75b;" horiz-adv-x="610" 
d="M486 489l-67 -107h101v-65h-142l-77 -123h219v-66h-260l-80 -128l-55 31l60 97h-95v66h136l77 123h-213v65h254l86 138z" />
    <glyph glyph-name="approxequal.sc" unicode="&#xf75c;" horiz-adv-x="610" 
d="M458 223l57 -6q-17 -114 -121 -114q-33 0 -93 28.5t-85 28.5q-49 0 -63 -54l-58 5q17 114 122 114q33 0 92.5 -28.5t84.5 -28.5q50 0 64 55zM458 405l57 -5q-17 -115 -121 -115q-33 0 -93 29t-85 29q-49 0 -63 -55l-58 5q17 115 122 115q33 0 92.5 -29t84.5 -29
q50 0 64 55z" />
    <glyph glyph-name="less.sc" unicode="&#xf75d;" horiz-adv-x="610" 
d="M106 224v62l396 198v-82l-314 -147l314 -147v-82z" />
    <glyph glyph-name="greater.sc" unicode="&#xf75e;" horiz-adv-x="610" 
d="M504 286v-62l-396 -198v82l314 147l-314 147v82z" />
    <glyph glyph-name="guilsinglleft.sc" unicode="&#xf75f;" horiz-adv-x="287" 
d="M237 435l-112 -180l112 -180h-76l-112 180l112 180h76z" />
    <glyph glyph-name="guilsinglright.sc" unicode="&#xf760;" horiz-adv-x="287" 
d="M50 75l111 180l-111 180h75l112 -180l-112 -180h-75z" />
    <glyph glyph-name="guillemotleft.sc" unicode="&#xf761;" horiz-adv-x="474" 
d="M237 435l-112 -180l112 -180h-76l-112 180l112 180h76zM424 435l-112 -180l112 -180h-76l-112 180l112 180h76z" />
    <glyph glyph-name="guillemotright.sc" unicode="&#xf762;" horiz-adv-x="474" 
d="M50 75l111 180l-111 180h75l112 -180l-112 -180h-75zM237 75l111 180l-111 180h75l112 -180l-112 -180h-75z" />
    <glyph glyph-name="a.sc" unicode="&#xf763;" horiz-adv-x="593" 
d="M323 511l244 -511h-71l-62 131h-277l-61 -131h-71l244 511h54zM296 424l-108 -228h215z" />
    <glyph glyph-name="b.sc" unicode="&#xf764;" horiz-adv-x="570" 
d="M89 510h228q83 0 132 -35.5t49 -99.5q0 -45 -22 -74t-57 -39q44 -6 71 -40t27 -80q0 -70 -51 -106t-144 -36h-233v510zM159 225v-161h163q123 0 123 81q0 44 -30.5 62t-98.5 18h-157zM159 446v-157h146q60 0 90.5 17.5t30.5 63.5q0 41 -28.5 58.5t-85.5 17.5h-153z" />
    <glyph glyph-name="c.sc" unicode="&#xf765;" horiz-adv-x="636" 
d="M57 255q0 111 79 187t193 76q98 0 169 -55.5t84 -129.5h-73q-8 47 -58 83t-122 36q-84 0 -140.5 -56t-56.5 -141q0 -84 57 -140t141 -56q71 0 122 36.5t59 82.5h73q-13 -75 -84 -130.5t-170 -55.5q-114 0 -193.5 76t-79.5 187z" />
    <glyph glyph-name="d.sc" unicode="&#xf766;" horiz-adv-x="618" 
d="M486 257q0 85 -55.5 136t-159.5 51h-111v-377h111q104 0 159.5 51t55.5 139zM560 257q0 -114 -78.5 -185.5t-208.5 -71.5h-184v510h184q129 0 208 -71t79 -182z" />
    <glyph glyph-name="e.sc" unicode="&#xf767;" horiz-adv-x="534" 
d="M479 0h-390v510h387v-65h-316v-156h296v-65h-296v-158h319v-66z" />
    <glyph glyph-name="f.sc" unicode="&#xf768;" horiz-adv-x="524" 
d="M160 0h-71v510h381v-65h-310v-172h288v-65h-288v-208z" />
    <glyph glyph-name="g.sc" unicode="&#xf769;" horiz-adv-x="649" 
d="M580 350h-74q-13 44 -60 73.5t-112 29.5q-87 0 -144.5 -56.5t-57.5 -141.5t57.5 -141t144.5 -56q80 0 130 43t54 112h-184v65h255q2 -19 2 -39q0 -108 -71.5 -177.5t-185.5 -69.5q-117 0 -197 76t-80 187q0 112 80 187.5t197 75.5q92 0 160 -49t86 -119z" />
    <glyph glyph-name="h.sc" unicode="&#xf76a;" horiz-adv-x="634" 
d="M160 290h314v220h71v-510h-71v223h-314v-223h-71v510h71v-220z" />
    <glyph glyph-name="i.sc" unicode="&#xf76b;" horiz-adv-x="257" 
d="M164 510v-510h-71v510h71z" />
    <glyph glyph-name="j.sc" unicode="&#xf76c;" horiz-adv-x="502" 
d="M417 510v-332q0 -91 -52.5 -138.5t-138.5 -47.5q-83 0 -130.5 40t-55.5 107h69q14 -80 114 -80q123 0 123 129v322h71z" />
    <glyph glyph-name="k.sc" unicode="&#xf76d;" horiz-adv-x="569" 
d="M541 510l-232 -227l244 -283h-89l-203 236l-101 -100v-136h-71v510h71v-279l284 279h97z" />
    <glyph glyph-name="l.sc" unicode="&#xf76e;" horiz-adv-x="490" 
d="M462 0h-373v510h71v-444h302v-66z" />
    <glyph glyph-name="m.sc" unicode="&#xf76f;" horiz-adv-x="776" 
d="M89 510h67l232 -329l233 329h66v-510h-71v394l-204 -286h-48l-205 290v-398h-70v510z" />
    <glyph glyph-name="n.sc" unicode="&#xf770;" horiz-adv-x="648" 
d="M496 0l-337 401v-401h-70v510h63l336 -401v401h71v-510h-63z" />
    <glyph glyph-name="o.sc" unicode="&#xf771;" horiz-adv-x="657" 
d="M329 518q114 0 192.5 -76t78.5 -187t-78.5 -187t-192.5 -76t-193 76t-79 187t79 187t193 76zM329 58q84 0 140.5 56t56.5 141t-56.5 141.5t-140.5 56.5t-140.5 -56.5t-56.5 -141.5t56.5 -141t140.5 -56z" />
    <glyph glyph-name="p.sc" unicode="&#xf772;" horiz-adv-x="548" 
d="M160 251h141q130 0 130 97t-130 97h-141v-194zM160 185v-185h-71v510h223q91 0 141 -43t50 -119t-50 -119.5t-141 -43.5h-152z" />
    <glyph glyph-name="q.sc" unicode="&#xf773;" horiz-adv-x="658" 
d="M329 0q-113 0 -192.5 75t-79.5 184t79.5 184t192.5 75t192 -75t79 -184q0 -57 -27.5 -108t-72.5 -88h108v-63h-279zM329 66q84 0 140.5 55.5t56.5 137.5q0 81 -56.5 137.5t-140.5 56.5t-140.5 -56t-56.5 -138t56.5 -137.5t140.5 -55.5z" />
    <glyph glyph-name="r.sc" unicode="&#xf774;" horiz-adv-x="564" 
d="M160 185v-185h-71v510h227q93 0 144 -43t51 -119q0 -66 -38.5 -108t-110.5 -52l155 -188h-83l-151 185h-123zM160 251h145q134 0 134 97t-134 97h-145v-194z" />
    <glyph glyph-name="s.sc" unicode="&#xf775;" horiz-adv-x="512" 
d="M263 56q59 0 95 23t36 58q0 67 -94 82l-71 11q-83 12 -126.5 49.5t-43.5 95.5q0 63 53 103t139 40q84 0 136.5 -38.5t58.5 -95.5h-69q-13 70 -124 70q-58 0 -90.5 -20t-32.5 -57q0 -68 117 -85l71 -11q147 -23 147 -140q0 -66 -58 -107.5t-144 -41.5q-91 0 -149.5 39
t-66.5 106h71q14 -81 145 -81z" />
    <glyph glyph-name="t.sc" unicode="&#xf776;" horiz-adv-x="491" 
d="M465 510v-66h-184v-444h-71v444h-184v66h439z" />
    <glyph glyph-name="u.sc" unicode="&#xf777;" horiz-adv-x="626" 
d="M314 59q156 0 156 159v292h71v-302q0 -105 -62.5 -160.5t-165.5 -55.5t-165.5 55.5t-62.5 160.5v302h72v-292q0 -80 41 -119.5t116 -39.5z" />
    <glyph glyph-name="v.sc" unicode="&#xf778;" horiz-adv-x="581" 
d="M263 -1l-239 511h74l193 -418l194 418h72l-240 -511h-54z" />
    <glyph glyph-name="w.sc" unicode="&#xf779;" horiz-adv-x="899" 
d="M478 510l157 -408l153 408h72l-198 -511h-57l-156 400l-156 -400h-57l-197 511h74l153 -410l158 410h54z" />
    <glyph glyph-name="x.sc" unicode="&#xf77a;" horiz-adv-x="576" 
d="M538 510l-208 -252l212 -258h-87l-168 207l-168 -207h-85l212 257l-208 253h87l163 -202l166 202h84z" />
    <glyph glyph-name="y.sc" unicode="&#xf77b;" horiz-adv-x="532" 
d="M92 510l175 -251l175 251h77l-217 -308v-202h-71v202l-217 308h78z" />
    <glyph glyph-name="z.sc" unicode="&#xf77c;" horiz-adv-x="556" 
d="M494 66v-66h-433v53l328 392h-324v65h423v-53l-328 -391h334z" />
    <glyph glyph-name="dotlessj.sc" unicode="&#xf77d;" horiz-adv-x="502" 
d="M417 510v-332q0 -91 -52.5 -138.5t-138.5 -47.5q-83 0 -130.5 40t-55.5 107h69q14 -80 114 -80q123 0 123 129v322h71z" />
    <glyph glyph-name="grave.sc" unicode="&#xf77e;" 
d="M110 680l49 59l138 -130l-31 -37z" />
    <glyph glyph-name="acute.sc" unicode="&#xf77f;" 
d="M341 739l49 -59l-156 -108l-31 37z" />
    <glyph glyph-name="dieresis.sc" unicode="&#xf780;" 
d="M152 574q-21 0 -34 13t-13 33t13 33t34 13q20 0 33.5 -13t13.5 -33t-13.5 -33t-33.5 -13zM348 574q-20 0 -33.5 13t-13.5 33t13.5 33t33.5 13q21 0 34 -13t13 -33t-13 -33t-34 -13z" />
    <glyph glyph-name="circumflex.sc" unicode="&#xf781;" 
d="M289 711l121 -135h-73l-87 81l-87 -81h-73l121 135h78z" />
    <glyph glyph-name="tilde.sc" unicode="&#xf782;" 
d="M315 632q29 0 44 43l49 -7q-9 -43 -33 -69t-59 -26q-26 0 -69.5 23t-61.5 23q-29 0 -44 -43l-49 7q9 43 33 69t59 26q26 0 70 -23t61 -23z" />
    <glyph glyph-name="macron.sc" unicode="&#xf783;" 
d="M400 635v-59h-300v59h300z" />
    <glyph glyph-name="breve.sc" unicode="&#xf784;" 
d="M250 629q41 0 66.5 21t27.5 51h62q-5 -50 -45 -89.5t-111 -39.5t-111 39.5t-45 89.5h62q2 -30 27.5 -51t66.5 -21z" />
    <glyph glyph-name="dotaccent.sc" unicode="&#xf785;" 
d="M250 574q-21 0 -34 13t-13 33t13 33t34 13t34 -13t13 -33t-13 -33t-34 -13z" />
    <glyph glyph-name="ring.sc" unicode="&#xf786;" 
d="M250 756q41 0 68 -26.5t27 -65.5q0 -40 -27 -66t-68 -26t-68 26t-27 66q0 39 27 65.5t68 26.5zM250 613q23 0 36.5 14t13.5 37t-13.5 37t-36.5 14t-36.5 -14t-13.5 -37t13.5 -37t36.5 -14z" />
    <glyph glyph-name="cedilla.sc" unicode="&#xf787;" 
d="M257 -162h-80l63 164h66z" />
    <glyph glyph-name="hungarumlaut.sc" unicode="&#xf788;" 
d="M186 745l63 -39l-100 -133l-40 23zM365 745l64 -39l-101 -133l-40 23z" />
    <glyph glyph-name="ogonek.sc" unicode="&#xf789;" 
d="M324 -114l23 -41q-37 -35 -89 -35q-45 0 -73.5 19.5t-28.5 56.5q0 84 144 139l21 -25q-44 -18 -70 -44t-26 -52q0 -34 44 -34q28 0 55 16z" />
    <glyph glyph-name="caron.sc" unicode="&#xf78a;" 
d="M410 711l-121 -135h-78l-121 135h73l87 -81l87 81h73z" />
    <glyph glyph-name="commaaccent.sc" unicode="&#xf78b;" 
d="M299 -44l-39 -165h-59l22 165h76z" />
    <glyph glyph-name="bar.sc" unicode="&#xf78c;" 
d="M400 635v-59h-300v59h300z" />
    <glyph glyph-name="germandbls.sc" unicode="&#xf78d;" horiz-adv-x="1022" 
d="M263 56q59 0 95 23t36 58q0 67 -94 82l-71 11q-83 12 -126.5 49.5t-43.5 95.5q0 63 53 103t139 40q84 0 136.5 -38.5t58.5 -95.5h-69q-13 70 -124 70q-58 0 -90.5 -20t-32.5 -57q0 -68 117 -85l71 -11q147 -23 147 -140q0 -66 -58 -107.5t-144 -41.5q-91 0 -149.5 39
t-66.5 106h71q14 -81 145 -81zM773 56q59 0 95 23t36 58q0 67 -94 82l-71 11q-83 12 -126.5 49.5t-43.5 95.5q0 63 53 103t139 40q84 0 136.5 -38.5t58.5 -95.5h-69q-13 70 -124 70q-58 0 -90.5 -20t-32.5 -57q0 -68 117 -85l71 -11q147 -23 147 -140q0 -66 -58 -107.5
t-144 -41.5q-91 0 -149.5 39t-66.5 106h71q14 -81 145 -81z" />
    <glyph glyph-name="aacute.sc" unicode="&#xf78e;" horiz-adv-x="593" 
d="M323 511l244 -511h-71l-62 131h-277l-61 -131h-71l244 511h54zM296 424l-108 -228h215zM403 739l49 -59l-156 -108l-31 37z" />
    <glyph glyph-name="agrave.sc" unicode="&#xf78f;" horiz-adv-x="593" 
d="M323 511l244 -511h-71l-62 131h-277l-61 -131h-71l244 511h54zM296 424l-108 -228h215zM140 680l49 59l138 -130l-31 -37z" />
    <glyph glyph-name="acircumflex.sc" unicode="&#xf790;" horiz-adv-x="593" 
d="M323 511l244 -511h-71l-62 131h-277l-61 -131h-71l244 511h54zM296 424l-108 -228h215zM335 711l121 -135h-73l-87 81l-87 -81h-73l121 135h78z" />
    <glyph glyph-name="adieresis.sc" unicode="&#xf791;" horiz-adv-x="593" 
d="M323 511l244 -511h-71l-62 131h-277l-61 -131h-71l244 511h54zM296 424l-108 -228h215zM198 574q-21 0 -34 13t-13 33t13 33t34 13q20 0 33.5 -13t13.5 -33t-13.5 -33t-33.5 -13zM394 574q-20 0 -33.5 13t-13.5 33t13.5 33t33.5 13q21 0 34 -13t13 -33t-13 -33t-34 -13z
" />
    <glyph glyph-name="atilde.sc" unicode="&#xf792;" horiz-adv-x="593" 
d="M323 511l244 -511h-71l-62 131h-277l-61 -131h-71l244 511h54zM296 424l-108 -228h215zM361 632q29 0 44 43l49 -7q-9 -43 -33 -69t-59 -26q-26 0 -69.5 23t-61.5 23q-29 0 -44 -43l-49 7q9 43 33 69t59 26q26 0 70 -23t61 -23z" />
    <glyph glyph-name="aring.sc" unicode="&#xf793;" horiz-adv-x="593" 
d="M323 511l244 -511h-71l-62 131h-277l-61 -131h-71l244 511h54zM296 756q41 0 68 -26.5t27 -65.5q0 -40 -27 -66t-68 -26t-68 26t-27 66q0 39 27 65.5t68 26.5zM296 424l-108 -228h215zM296 613q23 0 36.5 14t13.5 37t-13.5 37t-36.5 14t-36.5 -14t-13.5 -37t13.5 -37
t36.5 -14z" />
    <glyph glyph-name="amacron.sc" unicode="&#xf794;" horiz-adv-x="593" 
d="M323 511l244 -511h-71l-62 131h-277l-61 -131h-71l244 511h54zM296 424l-108 -228h215zM446 635v-59h-300v59h300z" />
    <glyph glyph-name="abreve.sc" unicode="&#xf795;" horiz-adv-x="593" 
d="M323 511l244 -511h-71l-62 131h-277l-61 -131h-71l244 511h54zM296 424l-108 -228h215zM296 629q41 0 66.5 21t27.5 51h62q-5 -50 -45 -89.5t-111 -39.5t-111 39.5t-45 89.5h62q2 -30 27.5 -51t66.5 -21z" />
    <glyph glyph-name="aogonek.sc" unicode="&#xf796;" horiz-adv-x="593" 
d="M570 -114l23 -41q-37 -35 -89 -35q-45 0 -73.5 19.5t-28.5 56.5q0 69 93 116l-61 129h-277l-61 -131h-71l244 511h54l244 -511q-44 -18 -70 -44t-26 -52q0 -34 44 -34q28 0 55 16zM296 424l-108 -228h215z" />
    <glyph glyph-name="aringacute.sc" unicode="&#xf797;" horiz-adv-x="593" 
d="M323 511l244 -511h-71l-62 131h-277l-61 -131h-71l244 511h54zM296 756q41 0 68 -26.5t27 -65.5q0 -40 -27 -66t-68 -26t-68 26t-27 66q0 39 27 65.5t68 26.5zM296 424l-108 -228h215zM403 960l49 -59l-156 -108l-31 37zM296 613q23 0 36.5 14t13.5 37t-13.5 37t-36.5 14
t-36.5 -14t-13.5 -37t13.5 -37t36.5 -14z" />
    <glyph glyph-name="ae.sc" unicode="&#xf798;" horiz-adv-x="887" 
d="M831 0h-389v114h-258l-89 -114h-85l405 510h413v-65h-315v-156h296v-65h-296v-158h318v-66zM234 178h208v264z" />
    <glyph glyph-name="aeacute.sc" unicode="&#xf799;" horiz-adv-x="887" 
d="M831 0h-389v114h-258l-89 -114h-85l405 510h413v-65h-315v-156h296v-65h-296v-158h318v-66zM234 178h208v264zM577 739l49 -59l-156 -108l-31 37z" />
    <glyph glyph-name="ccedilla.sc" unicode="&#xf79a;" horiz-adv-x="636" 
d="M319 -164h-80l60 158q-103 10 -172.5 84t-69.5 177q0 111 79 187t193 76q98 0 169 -55.5t84 -129.5h-73q-8 47 -58 83t-122 36q-84 0 -140.5 -56t-56.5 -141q0 -84 57 -140t141 -56q71 0 122 36.5t59 82.5h73q-12 -68 -72 -121t-146 -63z" />
    <glyph glyph-name="cacute.sc" unicode="&#xf79b;" horiz-adv-x="636" 
d="M57 255q0 111 79 187t193 76q98 0 169 -55.5t84 -129.5h-73q-8 47 -58 83t-122 36q-84 0 -140.5 -56t-56.5 -141q0 -84 57 -140t141 -56q71 0 122 36.5t59 82.5h73q-13 -75 -84 -130.5t-170 -55.5q-114 0 -193.5 76t-79.5 187zM436 739l49 -59l-156 -108l-31 37z" />
    <glyph glyph-name="ccircumflex.sc" unicode="&#xf79c;" horiz-adv-x="636" 
d="M57 255q0 111 79 187t193 76q98 0 169 -55.5t84 -129.5h-73q-8 47 -58 83t-122 36q-84 0 -140.5 -56t-56.5 -141q0 -84 57 -140t141 -56q71 0 122 36.5t59 82.5h73q-13 -75 -84 -130.5t-170 -55.5q-114 0 -193.5 76t-79.5 187zM368 711l121 -135h-73l-87 81l-87 -81h-73
l121 135h78z" />
    <glyph glyph-name="cdotaccent.sc" unicode="&#xf79d;" horiz-adv-x="636" 
d="M57 255q0 111 79 187t193 76q98 0 169 -55.5t84 -129.5h-73q-8 47 -58 83t-122 36q-84 0 -140.5 -56t-56.5 -141q0 -84 57 -140t141 -56q71 0 122 36.5t59 82.5h73q-13 -75 -84 -130.5t-170 -55.5q-114 0 -193.5 76t-79.5 187zM329 574q-21 0 -34 13t-13 33t13 33t34 13
t34 -13t13 -33t-13 -33t-34 -13z" />
    <glyph glyph-name="ccaron.sc" unicode="&#xf79e;" horiz-adv-x="636" 
d="M57 255q0 111 79 187t193 76q98 0 169 -55.5t84 -129.5h-73q-8 47 -58 83t-122 36q-84 0 -140.5 -56t-56.5 -141q0 -84 57 -140t141 -56q71 0 122 36.5t59 82.5h73q-13 -75 -84 -130.5t-170 -55.5q-114 0 -193.5 76t-79.5 187zM489 711l-121 -135h-78l-121 135h73l87 -81
l87 81h73z" />
    <glyph glyph-name="eth.sc" unicode="&#xf79f;" horiz-adv-x="622" 
d="M562 257q0 -114 -78.5 -185.5t-208.5 -71.5h-184v225h-65v59h65v226h184q129 0 208 -71t79 -182zM326 284v-59h-164v-158h111q104 0 159.5 51t55.5 139q0 85 -55.5 136t-159.5 51h-111v-160h164z" />
    <glyph glyph-name="dcaron.sc" unicode="&#xf7a0;" horiz-adv-x="618" 
d="M486 257q0 85 -55.5 136t-159.5 51h-111v-377h111q104 0 159.5 51t55.5 139zM560 257q0 -114 -78.5 -185.5t-208.5 -71.5h-184v510h184q129 0 208 -71t79 -182zM482 711l-121 -135h-78l-121 135h73l87 -81l87 81h73z" />
    <glyph glyph-name="dcroat.sc" unicode="&#xf7a1;" horiz-adv-x="622" 
d="M562 257q0 -114 -78.5 -185.5t-208.5 -71.5h-184v225h-65v59h65v226h184q129 0 208 -71t79 -182zM326 284v-59h-164v-158h111q104 0 159.5 51t55.5 139q0 85 -55.5 136t-159.5 51h-111v-160h164z" />
    <glyph glyph-name="eacute.sc" unicode="&#xf7a2;" horiz-adv-x="534" 
d="M479 0h-390v510h387v-65h-316v-156h296v-65h-296v-158h319v-66zM395 739l49 -59l-156 -108l-31 37z" />
    <glyph glyph-name="egrave.sc" unicode="&#xf7a3;" horiz-adv-x="534" 
d="M479 0h-390v510h387v-65h-316v-156h296v-65h-296v-158h319v-66zM132 680l49 59l138 -130l-31 -37z" />
    <glyph glyph-name="ecircumflex.sc" unicode="&#xf7a4;" horiz-adv-x="534" 
d="M479 0h-390v510h387v-65h-316v-156h296v-65h-296v-158h319v-66zM327 711l121 -135h-73l-87 81l-87 -81h-73l121 135h78z" />
    <glyph glyph-name="edieresis.sc" unicode="&#xf7a5;" horiz-adv-x="534" 
d="M479 0h-390v510h387v-65h-316v-156h296v-65h-296v-158h319v-66zM190 574q-21 0 -34 13t-13 33t13 33t34 13q20 0 33.5 -13t13.5 -33t-13.5 -33t-33.5 -13zM386 574q-20 0 -33.5 13t-13.5 33t13.5 33t33.5 13q21 0 34 -13t13 -33t-13 -33t-34 -13z" />
    <glyph glyph-name="emacron.sc" unicode="&#xf7a6;" horiz-adv-x="534" 
d="M479 0h-390v510h387v-65h-316v-156h296v-65h-296v-158h319v-66zM438 635v-59h-300v59h300z" />
    <glyph glyph-name="ebreve.sc" unicode="&#xf7a7;" horiz-adv-x="534" 
d="M479 0h-390v510h387v-65h-316v-156h296v-65h-296v-158h319v-66zM288 629q41 0 66.5 21t27.5 51h62q-5 -50 -45 -89.5t-111 -39.5t-111 39.5t-45 89.5h62q2 -30 27.5 -51t66.5 -21z" />
    <glyph glyph-name="edotaccent.sc" unicode="&#xf7a8;" horiz-adv-x="534" 
d="M479 0h-390v510h387v-65h-316v-156h296v-65h-296v-158h319v-66zM288 574q-21 0 -34 13t-13 33t13 33t34 13t34 -13t13 -33t-13 -33t-34 -13z" />
    <glyph glyph-name="eogonek.sc" unicode="&#xf7a9;" horiz-adv-x="534" 
d="M440 -114l23 -41q-37 -35 -89 -35q-45 0 -73.5 19.5t-28.5 56.5q0 67 88 114h-271v510h387v-65h-316v-156h296v-65h-296v-158h319v-66h-42q-44 -18 -70 -44t-26 -52q0 -34 44 -34q28 0 55 16z" />
    <glyph glyph-name="ecaron.sc" unicode="&#xf7aa;" horiz-adv-x="534" 
d="M479 0h-390v510h387v-65h-316v-156h296v-65h-296v-158h319v-66zM448 711l-121 -135h-78l-121 135h73l87 -81l87 81h73z" />
    <glyph glyph-name="gcircumflex.sc" unicode="&#xf7ab;" horiz-adv-x="649" 
d="M580 350h-74q-13 44 -60 73.5t-112 29.5q-87 0 -144.5 -56.5t-57.5 -141.5t57.5 -141t144.5 -56q80 0 130 43t54 112h-184v65h255q2 -19 2 -39q0 -108 -71.5 -177.5t-185.5 -69.5q-117 0 -197 76t-80 187q0 112 80 187.5t197 75.5q92 0 160 -49t86 -119zM373 711
l121 -135h-73l-87 81l-87 -81h-73l121 135h78z" />
    <glyph glyph-name="gbreve.sc" unicode="&#xf7ac;" horiz-adv-x="649" 
d="M580 350h-74q-13 44 -60 73.5t-112 29.5q-87 0 -144.5 -56.5t-57.5 -141.5t57.5 -141t144.5 -56q80 0 130 43t54 112h-184v65h255q2 -19 2 -39q0 -108 -71.5 -177.5t-185.5 -69.5q-117 0 -197 76t-80 187q0 112 80 187.5t197 75.5q92 0 160 -49t86 -119zM334 629
q41 0 66.5 21t27.5 51h62q-5 -50 -45 -89.5t-111 -39.5t-111 39.5t-45 89.5h62q2 -30 27.5 -51t66.5 -21z" />
    <glyph glyph-name="gdotaccent.sc" unicode="&#xf7ad;" horiz-adv-x="649" 
d="M580 350h-74q-13 44 -60 73.5t-112 29.5q-87 0 -144.5 -56.5t-57.5 -141.5t57.5 -141t144.5 -56q80 0 130 43t54 112h-184v65h255q2 -19 2 -39q0 -108 -71.5 -177.5t-185.5 -69.5q-117 0 -197 76t-80 187q0 112 80 187.5t197 75.5q92 0 160 -49t86 -119zM334 574
q-21 0 -34 13t-13 33t13 33t34 13t34 -13t13 -33t-13 -33t-34 -13z" />
    <glyph glyph-name="gcommaaccent.sc" unicode="&#xf7ae;" horiz-adv-x="649" 
d="M580 350h-74q-13 44 -60 73.5t-112 29.5q-87 0 -144.5 -56.5t-57.5 -141.5t57.5 -141t144.5 -56q80 0 130 43t54 112h-184v65h255q2 -19 2 -39q0 -108 -71.5 -177.5t-185.5 -69.5q-117 0 -197 76t-80 187q0 112 80 187.5t197 75.5q92 0 160 -49t86 -119zM372 -44
l-39 -165h-59l22 165h76z" />
    <glyph glyph-name="hcircumflex.sc" unicode="&#xf7af;" horiz-adv-x="634" 
d="M160 290h314v220h71v-510h-71v223h-314v-223h-71v510h71v-220zM356 711l121 -135h-73l-87 81l-87 -81h-73l121 135h78z" />
    <glyph glyph-name="hbar.sc" unicode="&#xf7b0;" horiz-adv-x="638" 
d="M611 432v-59h-64v-373h-71v223h-314v-223h-71v373h-64v59h64v78h71v-78h314v78h71v-78h64zM162 290h314v83h-314v-83z" />
    <glyph glyph-name="iacute.sc" unicode="&#xf7b1;" horiz-adv-x="257" 
d="M164 510v-510h-71v510h71zM236 739l49 -59l-156 -108l-31 37z" />
    <glyph glyph-name="igrave.sc" unicode="&#xf7b2;" horiz-adv-x="257" 
d="M164 510v-510h-71v510h71zM-27 680l49 59l138 -130l-31 -37z" />
    <glyph glyph-name="icircumflex.sc" unicode="&#xf7b3;" horiz-adv-x="257" 
d="M164 510v-510h-71v510h71zM168 711l121 -135h-73l-87 81l-87 -81h-73l121 135h78z" />
    <glyph glyph-name="idieresis.sc" unicode="&#xf7b4;" horiz-adv-x="257" 
d="M164 510v-510h-71v510h71zM31 574q-21 0 -34 13t-13 33t13 33t34 13q20 0 33.5 -13t13.5 -33t-13.5 -33t-33.5 -13zM227 574q-20 0 -33.5 13t-13.5 33t13.5 33t33.5 13q21 0 34 -13t13 -33t-13 -33t-34 -13z" />
    <glyph glyph-name="itilde.sc" unicode="&#xf7b5;" horiz-adv-x="257" 
d="M164 510v-510h-71v510h71zM194 632q29 0 44 43l49 -7q-9 -43 -33 -69t-59 -26q-27 0 -70.5 23t-60.5 23q-29 0 -44 -43l-49 7q9 43 33 69t59 26q26 0 69.5 -23t61.5 -23z" />
    <glyph glyph-name="imacron.sc" unicode="&#xf7b6;" horiz-adv-x="257" 
d="M164 510v-510h-71v510h71zM279 635v-59h-300v59h300z" />
    <glyph glyph-name="ibreve.sc" unicode="&#xf7b7;" horiz-adv-x="257" 
d="M164 510v-510h-71v510h71zM129 629q41 0 66.5 21t27.5 51h62q-5 -50 -45 -89.5t-111 -39.5t-111 39.5t-45 89.5h62q2 -30 27.5 -51t66.5 -21z" />
    <glyph glyph-name="iogonek.sc" unicode="&#xf7b8;" horiz-adv-x="257" 
d="M167 -114l23 -41q-37 -35 -89 -35q-45 0 -73.5 19.5t-28.5 56.5q0 70 94 117v507h71v-510q-44 -18 -70 -44t-26 -52q0 -34 44 -34q28 0 55 16z" />
    <glyph glyph-name="dotlessi.sc" unicode="&#xf7b9;" horiz-adv-x="257" 
d="M164 510v-510h-71v510h71z" />
    <glyph glyph-name="ij.sc" unicode="&#xf7ba;" horiz-adv-x="759" 
d="M164 510v-510h-71v510h71zM674 510v-332q0 -91 -52.5 -138.5t-138.5 -47.5q-83 0 -130.5 40t-55.5 107h69q14 -80 114 -80q123 0 123 129v322h71z" />
    <glyph glyph-name="jcircumflex.sc" unicode="&#xf7bb;" horiz-adv-x="502" 
d="M417 510v-332q0 -91 -52.5 -138.5t-138.5 -47.5q-83 0 -130.5 40t-55.5 107h69q14 -80 114 -80q123 0 123 129v322h71zM421 711l121 -135h-73l-87 81l-87 -81h-73l121 135h78z" />
    <glyph glyph-name="kcommaaccent.sc" unicode="&#xf7bc;" horiz-adv-x="569" 
d="M541 510l-232 -227l244 -283h-89l-203 236l-101 -100v-136h-71v510h71v-279l284 279h97zM359 -44l-39 -165h-59l22 165h76z" />
    <glyph glyph-name="kgreenlandic.sc" unicode="&#xf7bd;" horiz-adv-x="569" 
d="M541 510l-232 -227l244 -283h-89l-203 236l-101 -100v-136h-71v510h71v-279l284 279h97z" />
    <glyph glyph-name="lacute.sc" unicode="&#xf7be;" horiz-adv-x="490" 
d="M462 0h-373v510h71v-444h302v-66zM231 739l49 -59l-156 -108l-31 37z" />
    <glyph glyph-name="lcommaaccent.sc" unicode="&#xf7bf;" horiz-adv-x="490" 
d="M462 0h-373v510h71v-444h302v-66zM330 -44l-39 -165h-59l22 165h76z" />
    <glyph glyph-name="lcaron.sc" unicode="&#xf7c0;" horiz-adv-x="490" 
d="M462 0h-373v510h71v-444h302v-66zM244 307l38 211h86l-64 -211h-60z" />
    <glyph glyph-name="ldot.sc" unicode="&#xf7c1;" horiz-adv-x="490" 
d="M462 0h-373v510h71v-444h302v-66zM266 256q0 24 15.5 39.5t39.5 15.5q25 0 40 -15.5t15 -39.5t-15.5 -39.5t-39.5 -15.5t-39.5 16t-15.5 39z" />
    <glyph glyph-name="lslash.sc" unicode="&#xf7c2;" horiz-adv-x="490" 
d="M306 379l28 -50l-174 -100v-163h303v-66h-374v188l-53 -30l-29 49l82 47v256h71v-215z" />
    <glyph glyph-name="ntilde.sc" unicode="&#xf7c3;" horiz-adv-x="648" 
d="M496 0l-337 401v-401h-70v510h63l336 -401v401h71v-510h-63zM389 632q29 0 44 43l49 -7q-9 -43 -33 -69t-59 -26q-26 0 -70 23t-61 23q-29 0 -44 -43l-49 7q9 43 33 69t59 26q27 0 70.5 -23t60.5 -23z" />
    <glyph glyph-name="nacute.sc" unicode="&#xf7c4;" horiz-adv-x="648" 
d="M496 0l-337 401v-401h-70v510h63l336 -401v401h71v-510h-63zM431 739l49 -59l-156 -108l-31 37z" />
    <glyph glyph-name="ncommaaccent.sc" unicode="&#xf7c5;" horiz-adv-x="648" 
d="M496 0l-337 401v-401h-70v510h63l336 -401v401h71v-510h-63zM362 -44l-39 -165h-59l22 165h76z" />
    <glyph glyph-name="ncaron.sc" unicode="&#xf7c6;" horiz-adv-x="648" 
d="M496 0l-337 401v-401h-70v510h63l336 -401v401h71v-510h-63zM484 711l-121 -135h-78l-121 135h73l87 -81l87 81h73z" />
    <glyph glyph-name="napostrophe.sc" unicode="&#xf7c7;" horiz-adv-x="742" 
d="M590 0l-337 401v-401h-70v510h63l336 -401v401h71v-510h-63zM0 307l38 211h86l-64 -211h-60z" />
    <glyph glyph-name="eng.sc" unicode="&#xf7c8;" horiz-adv-x="648" 
d="M489 -57v63l-330 395v-401h-70v510h63l336 -403v403h71v-577q0 -155 -144 -155q-50 0 -80 10v61q26 -7 65 -7q49 0 69 24.5t20 76.5z" />
    </font>
</defs>
</svg>
